<?xml version="1.0" standalone="no"?>
<!DOCTYPE svg PUBLIC "-//W3C//DTD SVG 1.1//EN" "http://www.w3.org/Graphics/SVG/1.1/DTD/svg11.dtd" >
<svg>
<metadata>
Created by FontForge 20090914 at Mon Oct 24 06:26:43 2016
 By www-data
Copyright &#194;&#169; 2010 ParaType Ltd. All rights reserved.
</metadata>
<defs>
<font id="PTSerif-Bold" horiz-adv-x="565" >
  <font-face 
    font-family="PT Serif"
    font-weight="700"
    font-stretch="normal"
    units-per-em="1000"
    panose-1="2 10 7 3 4 5 5 2 2 4"
    ascent="778"
    descent="-222"
    x-height="500"
    cap-height="700.002"
    bbox="-158 -257.001 1076 898.25"
    underline-thickness="50"
    underline-position="-50"
    unicode-range="U+000D-U+F6D4"
  />
<missing-glyph horiz-adv-x="364" 
d="M33 0v666h265v-666h-265zM66 33h199v600h-199v-600z" />
    <glyph glyph-name=".notdef" horiz-adv-x="364" 
d="M33 0v666h265v-666h-265zM66 33h199v600h-199v-600z" />
    <glyph glyph-name="glyph1" horiz-adv-x="1000" 
 />
    <glyph glyph-name="glyph1" horiz-adv-x="1000" 
 />
    <glyph glyph-name="uni000D" unicode="&#xd;" horiz-adv-x="270" 
 />
    <glyph glyph-name="space" unicode=" " horiz-adv-x="270" 
 />
    <glyph glyph-name="exclam" unicode="!" horiz-adv-x="344" 
d="M172 218l-50 194v278c6.66699 4 16.667 6.83301 30 8.5s27.333 2.5 42 2.5s28.5 -0.833008 41.5 -2.5s23.167 -4.5 30.5 -8.5v-278l-50 -194h-44zM110 71c0 24 7.83301 43.333 23.5 58s36.167 22 61.5 22s46 -7.33301 62 -22s24 -34 24 -58s-8 -43.167 -24 -57.5
s-36.667 -21.5 -62 -21.5s-45.833 7.16699 -61.5 21.5s-23.5 33.5 -23.5 57.5z" />
    <glyph glyph-name="quotedbl" unicode="&#x22;" horiz-adv-x="416" 
d="M221 670c3.33301 8.66699 11.168 15.833 23.501 21.5s26.166 8.5 41.499 8.5c14 0 27.5 -2.5 40.5 -7.5s21.167 -12.5 24.5 -22.5l-46 -184h-38zM65.002 669.999c3.33301 8.66699 11.168 15.833 23.501 21.5s26.166 8.5 41.499 8.5c14 0 27.5 -2.5 40.5 -7.5
s21.167 -12.5 24.5 -22.5l-46 -184h-38z" />
    <glyph glyph-name="numbersign" unicode="#" 
d="M314 220h-124l-38 -162h-71l38 162h-81l19 64h77l31 132h-77l19 64h74l39 162h70l-38 -162h124l39 162h70l-39 -162h79l-22 -64h-73l-31 -132h76l-22 -64h-69l-38 -162h-70zM205 284h124l31 132h-124z" />
    <glyph glyph-name="dollar" unicode="$" 
d="M246 -12c-20 0 -40.0039 1.50098 -60.0039 4.50098s-38.667 6.83301 -56 11.5s-32.666 9.83398 -45.999 15.501s-23.333 11.5 -30 17.5c1.33301 26 4.83301 51.833 10.5 77.5s11.167 45.834 16.5 60.501h42l51 -97c6.66699 -5.33301 15.5 -10.5 26.5 -15.5
s26.167 -8.16699 45.5 -9.5v253c-1.33301 0.666992 -2.83301 1.16699 -4.5 1.5s-3.16699 1.16602 -4.5 2.49902l-23 10c-20.667 8.66699 -40.667 19.167 -60 31.5s-36.666 26.666 -51.999 42.999s-27.666 35.5 -36.999 57.5s-14 47 -14 75
c0 27.333 4.83301 51.833 14.5 73.5s23.167 40.167 40.5 55.5s38 27.666 62 36.999s50 15 78 17v50h70v-49c32 -1.33301 60.833 -5 86.5 -11s50.167 -14 73.5 -24c0 -10 -0.833008 -20.5 -2.5 -31.5s-3.83398 -21.667 -6.50098 -32s-5.66699 -19.833 -9 -28.5
s-6.33301 -15.334 -9 -20.001h-41l-51 77c-5.33301 1.33301 -11.166 2.5 -17.499 3.5s-14.166 1.5 -23.499 1.5v-240l38 -16c20 -9.33301 40 -19.833 60 -31.5s37.833 -25.5 53.5 -41.5s28.334 -34.667 38.001 -56s14.5 -46.666 14.5 -75.999
c0 -52.667 -17.333 -96 -52 -130s-85.334 -55.333 -152.001 -64v-61h-70v58zM389.996 166.001c0 28.667 -8.00098 51.5 -24.001 68.5s-36 31.833 -60 44.5v-221c26.667 7.33301 47.334 20 62.001 38s22 41.333 22 70zM174.995 546.001c0 -28 7.66699 -50.5 23 -67.5
s34.666 -31.833 57.999 -44.5v210c-25.333 -3.33301 -45.166 -13.5 -59.499 -30.5s-21.5 -39.5 -21.5 -67.5z" />
    <glyph glyph-name="percent" unicode="%" horiz-adv-x="848" 
d="M691 715l48 -42l-585 -686l-47 43zM42 542c0 26 4.66699 49.333 14 70s22.5 38.5 39.5 53.5s37.167 26.5 60.5 34.5s49.333 12 78 12s54.834 -3.5 78.501 -10.5s43.834 -17.5 60.501 -31.5s29.667 -31.667 39 -53s14 -46.333 14 -75c0 -26 -4.66699 -49.5 -14 -70.5
s-22.333 -38.833 -39 -53.5s-36.834 -26 -60.501 -34s-49.834 -12 -78.501 -12s-54.667 3.5 -78 10.5s-43.5 17.5 -60.5 31.5s-30.167 31.667 -39.5 53s-14 46.333 -14 75zM162 542c0 -79.333 24.001 -119 72.001 -119c23.333 0 41.166 8.83301 53.499 26.5
s18.5 48.5 18.5 92.5s-6.16699 74.833 -18.5 92.5s-30.166 26.5 -53.499 26.5c-24.667 0 -42.834 -8.83301 -54.501 -26.5s-17.5 -48.5 -17.5 -92.5zM422.001 159c0 26 4.66699 49.333 14 70s22.5 38.5 39.5 53.5s37.167 26.5 60.5 34.5s49.333 12 78 12
s54.834 -3.5 78.501 -10.5s43.834 -17.5 60.501 -31.5s29.667 -31.667 39 -53s14 -46.333 14 -75c0 -26 -4.66699 -49.5 -14 -70.5s-22.333 -38.833 -39 -53.5s-36.834 -26 -60.501 -34s-49.834 -12 -78.501 -12s-54.667 3.5 -78 10.5s-43.5 17.5 -60.5 31.5
s-30.167 31.667 -39.5 53s-14 46.333 -14 75zM542.001 159c0 -79.333 24.001 -119 72.001 -119c23.333 0 41.166 8.83301 53.499 26.5s18.5 48.5 18.5 92.5s-6.16699 74.833 -18.5 92.5s-30.166 26.5 -53.499 26.5c-24.667 0 -42.834 -8.83301 -54.501 -26.5
s-17.5 -48.5 -17.5 -92.5z" />
    <glyph glyph-name="ampersand" unicode="&#x26;" horiz-adv-x="896" 
d="M529 116c-21.333 18 -42.999 38.668 -64.999 62.001s-42.833 47 -62.5 71s-37.5 47.333 -53.5 70s-28.667 42 -38 58c-19.333 -24 -33.333 -46.833 -42 -68.5s-13 -47.167 -13 -76.5c0 -24.667 4 -47.334 12 -68.001s19.167 -38.5 33.5 -53.5s31.166 -26.667 50.499 -35
s40.333 -12.5 63 -12.5c20 0 40.5 4.16699 61.5 12.5s38.833 21.833 53.5 40.5zM324.001 582.001c0 -10 1.99609 -21.001 5.99609 -33.001s9.16699 -24 15.5 -36s13.333 -23.667 21 -35s15.167 -21.333 22.5 -30c22.667 17.333 39.334 38.333 50.001 63s15.334 51 14.001 79
c-1.33301 18.667 -7.16602 34.5 -17.499 47.5s-26.166 19.5 -47.499 19.5c-22 0 -38.167 -7.66699 -48.5 -23s-15.5 -32.666 -15.5 -51.999zM675.997 0l-47.002 28.4951c-18 11 -35.667 25.167 -53 42.5c-20.667 -21.333 -49.667 -40.5 -87 -57.5s-80 -25.5 -128 -25.5
c-44.667 0 -83.167 6.16699 -115.5 18.5s-58.833 28.333 -79.5 48s-36 41.834 -46 66.501s-15 49.667 -15 75c0 30.667 5.83301 58.834 17.5 84.501s25.834 48.5 42.501 68.5s34.5 37.167 53.5 51.5s35.5 25.5 49.5 33.5c-16.667 18 -31 39.667 -43 65s-18 50.333 -18 75
c0 16.667 3.5 33.334 10.5 50.001s17.667 31.5 32 44.5s32 23.5 53 31.5s45.5 12 73.5 12c48 0 87 -10.667 117 -32s45 -52 45 -92c0 -19.333 -3.33301 -37.666 -10 -54.999s-15.5 -33.666 -26.5 -48.999s-23.667 -29.833 -38 -43.5s-29.5 -26.167 -45.5 -37.5
c46 -63.333 109 -130.666 189 -201.999c5.33301 7.33301 11.333 19.666 18 36.999s12.334 37 17.001 59s7.66699 45.333 9 70s-0.666992 48 -6 70c-10.667 2 -20 5 -28 9s-16.333 9 -25 15v39h228v-39c-18 -11.333 -40 -19.333 -66 -24
c-3.33301 -28.667 -8.33301 -57 -15 -85s-14.5 -54.333 -23.5 -79s-18.5 -46.667 -28.5 -66s-20 -34.333 -30 -45c23.333 -20.667 47 -39 71 -55s47.667 -30.667 71 -44l51 -24v-39h-174z" />
    <glyph glyph-name="quotesingle" unicode="'" horiz-adv-x="240" 
d="M65 670c3.33301 8.66699 11.168 15.833 23.501 21.5s26.166 8.5 41.499 8.5c14 0 27.5 -2.5 40.5 -7.5s21.167 -12.5 24.5 -22.5l-46 -184h-38z" />
    <glyph glyph-name="parenleft" unicode="(" horiz-adv-x="375" 
d="M327 -210c-32 19.333 -64.498 41.834 -97.498 67.501s-62.833 56.5 -89.5 92.5s-48.334 77.833 -65.001 125.5s-25 103.5 -25 167.5c0 58 7.83301 110.167 23.5 156.5s36.5 88 62.5 125s55.833 70 89.5 99s68.5 55.167 104.5 78.5l30 -31
c-26.667 -28.667 -50.5 -57.5 -71.5 -86.5s-38.833 -60.5 -53.5 -94.5s-25.834 -71 -33.501 -111s-11.5 -85.333 -11.5 -136c0 -48.667 4.16699 -93.334 12.5 -134.001s20 -78.167 35 -112.5s33 -65.833 54 -94.5s43.833 -55 68.5 -79z" />
    <glyph glyph-name="parenright" unicode=")" horiz-adv-x="375" 
d="M15 -177c24.667 24 47.332 50.8301 67.999 80.4971s38.5 62.334 53.5 98.001s26.667 74.334 35 116.001s12.5 86.834 12.5 135.501c0 50.667 -3.83301 95.834 -11.5 135.501s-18.667 75.834 -33 108.501s-32 63 -53 91s-44.833 55.667 -71.5 83l30 31
c38 -22 73.833 -47.333 107.5 -76s63.334 -61.334 89.001 -98.001s46 -77.667 61 -123s22.5 -96 22.5 -152c0 -56.667 -6.83301 -108.5 -20.5 -155.5s-32.667 -89.5 -57 -127.5s-53.5 -71.833 -87.5 -101.5s-71.333 -55.834 -112 -78.501z" />
    <glyph glyph-name="asterisk" unicode="*" horiz-adv-x="463" 
d="M58 597c-4 5.33301 -4.83301 13.5 -2.5 24.5s6.5 22 12.5 33s13.333 20.667 22 29s17 12.833 25 13.5l91 -106c0 -10 -4.33301 -17.333 -13 -22zM118 429c-7.33301 0 -15.167 4.16699 -23.5 12.5s-15.833 18 -22.5 29s-11.667 22.167 -15 33.5s-3.33301 20 0 26l135 26
c9.33301 -5.33301 14 -12.333 14 -21zM290.999 395c-2.66699 -5.33301 -9.50098 -9.50098 -20.501 -12.501s-22.833 -4.66699 -35.5 -5s-24.667 0.833984 -36 3.50098s-18.666 6.66699 -21.999 12l43 131c9.33301 5.33301 18.333 5.33301 27 0zM404.998 529.999
c4 -7.33301 4.83301 -16.666 2.5 -27.999s-6.33301 -22.333 -12 -33s-12.667 -19.834 -21 -27.501s-16.5 -11.5 -24.5 -11.5l-88 103c0 8.66699 4 15.667 12 21zM351.998 695.999c8 0.666992 15.834 -2.5 23.501 -9.5s14.167 -15.667 19.5 -26s9.16602 -21.333 11.499 -33
s2.5 -21.5 0.5 -29.5l-134 -30c-8 6 -12 13.333 -12 22zM176.999 730.999c2.66699 6 9.33301 10.667 20 14s22.334 5 35.001 5s24.5 -1.5 35.5 -4.5s18.167 -7.83301 21.5 -14.5l-43 -131c-8.66699 -5.33301 -17.334 -5.33301 -26.001 0z" />
    <glyph glyph-name="plus" unicode="+" 
d="M57 384h185v196h80v-196h185v-80h-185v-202h-80v202h-185v80z" />
    <glyph glyph-name="comma" unicode="," horiz-adv-x="306" 
d="M53 -131c13.333 4 25.3311 10 35.998 18s19.834 17 27.501 27s13.5 20.667 17.5 32s5.66699 22.333 5 33c-9.33301 12 -20.5 21.667 -33.5 29s-26.833 13.333 -41.5 18c-3.33301 14 -3.83301 28 -1.5 42s6.83301 27 13.5 39s14.5 22.167 23.5 30.5s18.5 13.5 28.5 15.5
c14 -0.666992 27.667 -3.83398 41 -9.50098s25.333 -13.667 36 -24s19.167 -23.5 25.5 -39.5s9.5 -34.667 9.5 -56c0 -20.667 -4.16699 -41.667 -12.5 -63s-19.666 -41.166 -33.999 -59.499s-31.5 -34.333 -51.5 -48s-42 -23.167 -66 -28.5z" />
    <glyph glyph-name="hyphen" unicode="-" horiz-adv-x="414" 
d="M66 327h282v-90h-282v90z" />
    <glyph glyph-name="period" unicode="." horiz-adv-x="296" 
d="M63 71c0 24 7.66699 43.333 23 58s35.666 22 60.999 22s46 -7.33301 62 -22s24 -34 24 -58s-8 -43.167 -24 -57.5s-36.667 -21.5 -62 -21.5s-45.666 7.16699 -60.999 21.5s-23 33.5 -23 57.5z" />
    <glyph glyph-name="slash" unicode="/" horiz-adv-x="344" 
d="M318 716l60 -25l-365 -824l-59 26z" />
    <glyph glyph-name="zero" unicode="0" 
d="M23 350c0 60 6.50195 112.5 19.502 157.5s31 82.667 54 113s50.333 53.166 82 68.499s66.167 23 103.5 23c80 0 143.333 -30.167 190 -90.5s70 -150.833 70 -271.5c0 -60 -6.5 -112.5 -19.5 -157.5s-31.333 -82.667 -55 -113s-51.834 -53.166 -84.501 -68.499
s-68.334 -23 -107.001 -23c-40.667 0 -76.667 8.16699 -108 24.5s-57.833 40 -79.5 71s-38 68.833 -49 113.5s-16.5 95.667 -16.5 153zM173.002 350c0 -48 1.5 -91.001 4.5 -129.001s8.5 -70.167 16.5 -96.5s18.5 -46.5 31.5 -60.5s29.5 -21 49.5 -21
c23.333 0 42.5 5.66699 57.5 17s27 29.333 36 54s15.167 56.334 18.5 95.001s5 85.667 5 141c0 48 -1.33301 91 -4 129s-7.83398 70.167 -15.501 96.5s-18.667 46.5 -33 60.5s-33.5 21 -57.5 21c-21.333 0 -39 -5.66699 -53 -17s-25.167 -29.333 -33.5 -54
s-14.166 -56.5 -17.499 -95.5s-5 -85.833 -5 -140.5z" />
    <glyph glyph-name="one" unicode="1" 
d="M466 0h-346.002v43c16.667 7.33301 33.5 13.833 50.5 19.5s34.167 10.5 51.5 14.5v459l4 59c-18.667 -6 -38 -10 -58 -12s-40.667 -2.66699 -62 -2l-5 37c35.333 9.33301 73.833 22 115.5 38s80.167 34.667 115.5 56h34v-635c16.667 -4 33.334 -8.83301 50.001 -14.5
s33.334 -12.167 50.001 -19.5v-43z" />
    <glyph glyph-name="two" unicode="2" 
d="M141 478l-34 0.00390625l-13.5 35l-15.5 42c-5.33301 14.667 -10.333 29.167 -15 43.5s-8.33398 27.5 -11.001 39.5c23.333 20 53.166 37.333 89.499 52s80.5 22 132.5 22c36.667 0 68.334 -4.66699 95.001 -14s48.834 -22.333 66.501 -39s30.667 -36 39 -58
s12.5 -45.667 12.5 -71c0 -40.667 -9.33301 -79.167 -28 -115.5s-41.667 -70.333 -69 -102s-56.666 -61 -87.999 -88l-85 -73.5l-52 -35v-4l61 6h172l49 112h34c2 -16 4.16699 -34.667 6.5 -56s4.5 -42.833 6.5 -64.5s3.66699 -42.334 5 -62.001s2 -35.5 2 -47.5h-458v64
l59 53.5c22 20.333 44.333 42.666 67 66.999s45 50.166 67 77.499s41.667 55.166 59 83.499s31.166 57.166 41.499 86.499s15.5 58 15.5 86c0 36.667 -9.83301 66.5 -29.5 89.5s-47.5 34.5 -83.5 34.5c-11.333 0 -21.5 -0.666992 -30.5 -2s-19.167 -3.66602 -30.5 -6.99902z
" />
    <glyph glyph-name="three" unicode="3" 
d="M257 53c15.333 0 30.332 3.50293 44.999 10.5029s27.834 16.833 39.501 29.5s21 27.667 28 45s10.5 36 10.5 56c0 22.667 -3.83301 42.167 -11.5 58.5s-17.667 29.833 -30 40.5s-26.5 18.5 -42.5 23.5s-32 7.5 -48 7.5h-58v40l150 196l34 35v4l-54 -6h-151l-39 -102h-34
c-3.33301 14 -6.83301 30.667 -10.5 50s-7 38.666 -10 57.999s-5.33301 38 -7 56s-2.5 33 -2.5 45h436v-49l-173 -211l-43 -44v-2l34 7c31.333 -1.33301 59.5 -7.16602 84.5 -17.499s46 -24.333 63 -42s30 -38.167 39 -61.5s13.5 -49 13.5 -77
c0 -33.333 -7.16699 -63.333 -21.5 -90s-33.5 -49.334 -57.5 -68.001s-52 -32.834 -84 -42.501s-65.667 -14.5 -101 -14.5c-20 0 -40 1.5 -60 4.5s-38.833 7.16699 -56.5 12.5s-33.667 11.666 -48 18.999s-26.5 15.333 -36.5 24l37 104h29l16.5 -18.5l22 -24.5l22.5 -26
l19 -22c6.66699 -1.33301 14.167 -3 22.5 -5s19.5 -3 33.5 -3z" />
    <glyph glyph-name="four" unicode="4" 
d="M513 0h-309.001v43c32.667 11.333 63.334 19.333 92.001 24v113h-296v45l383 487h54v-467h123v-65h-123v-113c26 -5.33301 51.333 -13.333 76 -24v-43zM295.999 458l10 70h-3l-38 -70l-145 -187l-40 -33l71 7h145v213z" />
    <glyph glyph-name="five" unicode="5" 
d="M455 755l34.0029 -0.000976562c0 -10 -0.333008 -23 -1 -39s-2 -32.333 -4 -49s-4.33301 -32.5 -7 -47.5s-5.33398 -26.5 -8.00098 -34.5h-274l-18 -143h83c36 0 68.667 -4.83301 98 -14.5s54.333 -23.667 75 -42s36.667 -40.666 48 -66.999s17 -56.5 17 -90.5
c0 -38 -7.16699 -71.833 -21.5 -101.5s-33.833 -54.667 -58.5 -75s-53.667 -36 -87 -47s-69.333 -16.5 -108 -16.5s-74 6.16699 -106 18.5s-57.667 26.166 -77 41.499l42 99h29c4.66699 -4.66699 10 -10.667 16 -18l19 -23c6.66699 -8 13 -16 19 -24l16 -21
c6.66699 -2.66699 12.834 -4.66699 18.501 -6s13.167 -2 22.5 -2c20 0 38.667 3.5 56 10.5s32.166 16.833 44.499 29.5s22.166 27.834 29.499 45.501s11 37.167 11 58.5c0 23.333 -4.5 43.833 -13.5 61.5s-21.167 32.167 -36.5 43.5s-33.333 19.833 -54 25.5
s-42.334 8.5 -65.001 8.5l-87 -1l40 365h261z" />
    <glyph glyph-name="six" unicode="6" 
d="M536 215c0 -34.667 -6.49805 -66 -19.498 -94s-30.5 -51.833 -52.5 -71.5s-47.833 -34.834 -77.5 -45.501s-61.167 -16 -94.5 -16c-41.333 0 -77.833 6.5 -109.5 19.5s-58.167 31.167 -79.5 54.5s-37.5 51 -48.5 83s-16.5 67 -16.5 105c0 62.667 11 120 33 172
s51.667 98 89 138s80.833 73.333 130.5 100s102.5 46 158.5 58l15 -43c-36 -11.333 -69.333 -26.666 -100 -45.999s-57.834 -42.833 -81.501 -70.5s-43 -59 -58 -94s-24.5 -73.5 -28.5 -115.5c5.33301 8.66699 12.166 17.167 20.499 25.5s18.5 16 30.5 23
s25.833 12.667 41.5 17s33.5 6.5 53.5 6.5c27.333 0 52.833 -4.33301 76.5 -13s44.167 -21.667 61.5 -39s31 -38.833 41 -64.5s15 -55.5 15 -89.5zM386.002 203c0 98.667 -33.001 147.997 -99.001 147.997c-22.667 0 -42 -5.83301 -58 -17.5s-27.667 -25.167 -35 -40.5
c-2 -9.33301 -3.5 -20.166 -4.5 -32.499s-1.5 -24.166 -1.5 -35.499c0 -22.667 2 -44.5 6 -65.5s10.333 -39.667 19 -56s19.834 -29.5 33.501 -39.5s30.167 -15 49.5 -15c16.667 0 30.667 4.16699 42 12.5s20.5 19.5 27.5 33.5s12.167 30.333 15.5 49s5 38.334 5 59.001z
" />
    <glyph glyph-name="seven" unicode="7" 
d="M117 481h-34c-3.33301 14 -6.66602 31.167 -9.99902 51.5s-6.5 40.833 -9.5 61.5s-5.5 40.5 -7.5 59.5s-3 34.5 -3 46.5h468v-47c-36 -56 -66.333 -108.667 -91 -158s-45.334 -99.333 -62.001 -150s-30.5 -103.667 -41.5 -159s-20.5 -117.333 -28.5 -186h-142
c24 96.667 55 188.667 93 276s83 175.333 135 264l37 48l-50 -5h-215z" />
    <glyph glyph-name="eight" unicode="8" 
d="M35 157c0 46.667 15 85.833 45 117.5s69.333 55.167 118 70.5c-40 22.667 -72.333 49.5 -97 80.5s-37 66.833 -37 107.5c0 26 5.16699 49.833 15.5 71.5s25.166 40.5 44.499 56.5s42.833 28.5 70.5 37.5s58.834 13.5 93.501 13.5c32 0 61.167 -4 87.5 -12
s48.833 -19 67.5 -33s33 -31 43 -51s15 -42 15 -66c0 -40 -13.333 -74.667 -40 -104s-60.334 -50.333 -101.001 -63c28.667 -15.333 53.5 -30.666 74.5 -45.999s38.5 -31.333 52.5 -48s24.5 -34.334 31.5 -53.001s10.5 -39 10.5 -61c0 -26 -5.5 -50.333 -16.5 -73
s-27 -42.5 -48 -59.5s-47 -30.333 -78 -40s-66.833 -14.5 -107.5 -14.5c-37.333 0 -71.166 4.33301 -101.499 13s-56 20.5 -77 35.5s-37.167 32.833 -48.5 53.5s-17 43 -17 67zM387 145.999c0 22.667 -4.16504 41.999 -12.498 57.999s-19.333 30.5 -33 43.5
s-29.667 25 -48 36l-57.5 34.5c-23.333 -18 -39.333 -39.333 -48 -64s-13 -48.667 -13 -72c0 -16 2 -32 6 -48s10.5 -30.167 19.5 -42.5s20.5 -22.5 34.5 -30.5s31.333 -12 52 -12c16.667 0 31.167 2.66699 43.5 8s22.666 12.5 30.999 21.5s14.666 19.333 18.999 31
s6.5 23.834 6.5 36.501zM200.002 553.998c0 -32 11.167 -60.167 33.5 -84.5s51.166 -45.5 86.499 -63.5c18.667 17.333 31.834 36.5 39.501 57.5s11.5 45.167 11.5 72.5c0 38.667 -7.83301 67.5 -23.5 86.5s-36.167 28.5 -61.5 28.5c-30 0 -51.833 -9.33301 -65.5 -28
s-20.5 -41.667 -20.5 -69z" />
    <glyph glyph-name="nine" unicode="9" 
d="M38 482c0 34 6.00098 65.002 18.001 93.002s28.833 52.167 50.5 72.5s47.5 36.166 77.5 47.499s63.333 17 100 17c38.667 0 73.334 -6.5 104.001 -19.5s56.667 -31.167 78 -54.5s37.5 -51.833 48.5 -85.5s16.5 -70.834 16.5 -111.501c0 -62 -9.33301 -119.167 -28 -171.5
s-45 -98.333 -79 -138s-74.833 -72 -122.5 -97s-100.167 -40.5 -157.5 -46.5l-23 43c76.667 20 135.667 56 177 108s67.333 116 78 192c-12.667 -16.667 -29.334 -30.334 -50.001 -41.001s-47.334 -16 -80.001 -16c-28.667 0 -55.5 4.33301 -80.5 13s-47 21.834 -66 39.501
s-34 39.5 -45 65.5s-16.5 56 -16.5 90zM188.001 488.002c0 -19.333 2.16699 -37.6709 6.5 -55.0039s10.833 -32.666 19.5 -45.999s19.334 -23.833 32.001 -31.5s27.667 -11.5 45 -11.5c20 0 37.667 3.83301 53 11.5s27 18.167 35 31.5
c1.33301 8.66699 2.33301 19.334 3 32.001s1 25 1 37c0 26 -1.83301 50.833 -5.5 74.5s-9.5 44.334 -17.5 62.001s-18.333 31.834 -31 42.501s-28.334 16 -47.001 16c-33.333 0 -57.333 -13.5 -72 -40.5s-22 -67.833 -22 -122.5z" />
    <glyph glyph-name="colon" unicode=":" horiz-adv-x="343" 
d="M110 429c0 24 7.66699 43.333 23 58s35.666 22 60.999 22s46 -7.33301 62 -22s24 -34 24 -58s-8 -43.167 -24 -57.5s-36.667 -21.5 -62 -21.5s-45.666 7.16699 -60.999 21.5s-23 33.5 -23 57.5zM110 71c0 24 7.66699 43.333 23 58s35.666 22 60.999 22
s46 -7.33301 62 -22s24 -34 24 -58s-8 -43.167 -24 -57.5s-36.667 -21.5 -62 -21.5s-45.666 7.16699 -60.999 21.5s-23 33.5 -23 57.5z" />
    <glyph glyph-name="semicolon" unicode=";" horiz-adv-x="348" 
d="M112 429c0 24 7.66699 43.333 23 58s35.666 22 60.999 22s46 -7.33301 62 -22s24 -34 24 -58s-8 -43.167 -24 -57.5s-36.667 -21.5 -62 -21.5s-45.666 7.16699 -60.999 21.5s-23 33.5 -23 57.5zM102 -131c13.333 4 25.3311 10 35.998 18s19.834 17 27.501 27
s13.5 20.667 17.5 32s5.66699 22.333 5 33c-9.33301 12 -20.5 21.667 -33.5 29s-26.833 13.333 -41.5 18c-3.33301 14 -3.83301 28 -1.5 42s6.83301 27 13.5 39s14.5 22.167 23.5 30.5s18.5 13.5 28.5 15.5c14 -0.666992 27.667 -3.83398 41 -9.50098s25.333 -13.667 36 -24
s19.167 -23.5 25.5 -39.5s9.5 -34.667 9.5 -56c0 -20.667 -4.16699 -41.667 -12.5 -63s-19.666 -41.166 -33.999 -59.499s-31.5 -34.333 -51.5 -48s-42 -23.167 -66 -28.5z" />
    <glyph glyph-name="less" unicode="&#x3c;" 
d="M65 324v31l385 235l36 -65l-213 -128l-82 -34l81 -31l233 -137l-56 -92z" />
    <glyph glyph-name="equal" unicode="=" 
d="M57 469h450v-80h-450v80zM57 299h450v-80h-450v80z" />
    <glyph glyph-name="greater" unicode="&#x3e;" 
d="M513 369v-31l-385 -235l-36 65l213 128l82 34l-81 31l-233 136l56 93z" />
    <glyph glyph-name="question" unicode="?" horiz-adv-x="486" 
d="M135 501l-34.002 0.00195312c-4 8.66699 -8.33301 19.5 -13 32.5s-9.16699 26.667 -13.5 41s-8.16602 29 -11.499 44s-5.66602 29.167 -6.99902 42.5c25.333 15.333 54.166 27.666 86.499 36.999s73.5 14 123.5 14c30 0 56.833 -4.16699 80.5 -12.5
s44 -19.666 61 -33.999s30 -31.5 39 -51.5s13.5 -41.667 13.5 -65c0 -30 -5.66699 -55.667 -17 -77s-25.333 -40.166 -42 -56.499s-34.834 -31.333 -54.501 -45s-38 -28.334 -55 -44.001s-31.167 -33.167 -42.5 -52.5s-17 -43 -17 -71h-33
c-9.33301 30.667 -12.833 57.167 -10.5 79.5s7.83301 42.5 16.5 60.5s19.334 34.333 32.001 49s24.834 29.667 36.501 45s21.667 31.666 30 48.999s12.5 37.333 12.5 60c0 12.667 -1.5 25.167 -4.5 37.5s-8 23.166 -15 32.499s-16 16.833 -27 22.5s-24.5 8.5 -40.5 8.5
c-14 0 -26.333 -1.33301 -37 -4s-18.667 -6 -24 -10zM141.998 71.002c0 24 7.66699 43.333 23 58s35.666 22 60.999 22s46 -7.33301 62 -22s24 -34 24 -58s-8 -43.167 -24 -57.5s-36.667 -21.5 -62 -21.5s-45.666 7.16699 -60.999 21.5s-23 33.5 -23 57.5z" />
    <glyph glyph-name="at" unicode="@" horiz-adv-x="1064" 
d="M647 465c16 7.33301 35.1641 12.667 57.4971 16s44.833 4.66602 67.5 3.99902l-49 -278c-8 -42.667 -11.5 -74.5 -10.5 -95.5s10.833 -31.5 29.5 -31.5c15.333 0 32.833 5 52.5 15s38.167 25.167 55.5 45.5s32 46 44 77s18 67.167 18 108.5
c0 50.667 -9.16699 96 -27.5 136s-43.666 73.667 -75.999 101s-70.666 48.166 -114.999 62.499s-92.166 21.5 -143.499 21.5c-58 0 -111.167 -10.167 -159.5 -30.5s-89.833 -48.5 -124.5 -84.5s-61.667 -78.833 -81 -128.5s-29 -103.5 -29 -161.5
c0 -59.333 9.83301 -111.166 29.5 -155.499s46.834 -81.5 81.501 -111.5s75.834 -52.5 123.501 -67.5s99.5 -22.5 155.5 -22.5c19.333 0 41.333 2.33301 66 7s47 11.667 67 21l16 -57c-23.333 -13.333 -49 -22.666 -77 -27.999s-59 -8 -93 -8
c-59.333 0 -115.833 8.66699 -169.5 26s-100.834 43.333 -141.501 78s-73 78 -97 130s-36 112.667 -36 182c0 72.667 12.5 138.334 37.5 197.001s59 108.667 102 150s93.167 73.166 150.5 95.499s118.666 33.5 183.999 33.5c63.333 0 121.5 -8.83301 174.5 -26.5
s98.5 -43 136.5 -76s67.667 -73.333 89 -121s32 -101.834 32 -162.501c0 -46.667 -8.5 -89.167 -25.5 -127.5s-39.167 -71.333 -66.5 -99s-58.333 -49 -93 -64s-69.667 -22.5 -105 -22.5c-20 0 -37.333 2.5 -52 7.5s-26.667 13.5 -36 25.5s-15.5 27.667 -18.5 47
s-2.5 43.333 1.5 72h-4c-6 -18 -14.833 -36.167 -26.5 -54.5s-25 -34.666 -40 -48.999s-31.5 -26 -49.5 -35s-36.333 -13.5 -55 -13.5c-45.333 0 -79.5 14.667 -102.5 44s-34.5 66.666 -34.5 111.999c0 39.333 6.5 78.333 19.5 117s31 73.167 54 103.5s50.5 55 82.5 74
s67 28.5 105 28.5c23.333 0 42.833 -2.16699 58.5 -6.5s31.5 -11.166 47.5 -20.499zM626.997 415.001c-7.33301 5.33301 -15 9.33301 -23 12s-17.667 4 -29 4c-22.667 0 -43.667 -8.66699 -63 -26s-36 -39.333 -50 -66s-25 -55.5 -33 -86.5s-12 -59.833 -12 -86.5
c0 -22.667 4 -40.5 12 -53.5s21.667 -19.5 41 -19.5c11.333 0 22.833 4.66699 34.5 14s23 21.5 34 36.5s21.667 32 32 51s19.833 37.833 28.5 56.5z" />
    <glyph glyph-name="A" unicode="A" horiz-adv-x="729" 
d="M247 0h-247v38c10.667 6.66699 22.167 12.5 34.5 17.5s24.5 8.83301 36.5 11.5l258 645h74l251 -645c13.333 -2.66699 26.666 -6.5 39.999 -11.5s25 -10.833 35 -17.5v-38h-313v38c12.667 6 26.334 11.667 41.001 17s28.667 9.33301 42 12l-58 159h-222l-59 -159
c30.667 -4 59.667 -13.667 87 -29v-38zM243 291h177l-65 191l-19 86h-2l-22 -88z" />
    <glyph glyph-name="B" unicode="B" horiz-adv-x="649" 
d="M20 0l0.00195312 38.002c12.667 7.33301 26.167 13.666 40.5 18.999s28.166 8.66602 41.499 9.99902v566c-13.333 2.66699 -27.333 6.5 -42 11.5s-28 10.833 -40 17.5v38h161c25.333 0 49.333 1 72 3s48.667 3 78 3c32 0 63 -2.33301 93 -7s56.667 -13 80 -25
s42 -28.833 56 -50.5s21 -49.5 21 -83.5c0 -21.333 -3.83301 -41.166 -11.5 -59.499s-18.334 -34.5 -32.001 -48.5s-29.667 -25.667 -48 -35s-38.166 -16 -59.499 -20v-4c21.333 -2.66699 42.833 -7.66699 64.5 -15s41.167 -18 58.5 -32s31.5 -31.5 42.5 -52.5
s16.5 -45.833 16.5 -74.5c0 -36 -8 -67 -24 -93s-37.5 -47.333 -64.5 -64s-57.833 -28.834 -92.5 -36.501s-70.667 -11.5 -108 -11.5c-14 0 -29.333 0.333008 -46 1l-50 2l-48.5 2c-15.667 0.666992 -28.834 1 -39.501 1h-119zM322.002 59.002c42 0 75.001 12.5 99.001 37.5
s36 58.167 36 99.5c0 25.333 -4 46.166 -12 62.499s-19 29.333 -33 39s-30.667 16.334 -50 20.001s-40.333 5.5 -63 5.5h-53v-257c9.33301 -2 19.166 -3.66699 29.499 -5s25.833 -2 46.5 -2zM278.003 388.002c11.333 0 22.6689 0.5 34.002 1.5s22 2.16699 32 3.5
c26 10.667 47 27.167 63 49.5s24 47.833 24 76.5c0 42 -11 72.833 -33 92.5s-50.333 29.5 -85 29.5c-14.667 0 -27.334 -0.333008 -38.001 -1s-20.334 -1.66699 -29.001 -3v-249h32z" />
    <glyph glyph-name="C" unicode="C" horiz-adv-x="652" 
d="M540 210l40.999 -0.000976562c2.66699 -10.667 5.16699 -23.5 7.5 -38.5s4.33301 -31 6 -48s2.83398 -33.833 3.50098 -50.5s1 -31.667 1 -45c-23.333 -14.667 -52.5 -25 -87.5 -31s-70.833 -9 -107.5 -9c-55.333 0 -105.5 6.83301 -150.5 20.5
s-83.333 35.334 -115 65.001s-56.167 67.334 -73.5 113.001s-26 100.5 -26 164.5c0 63.333 9.5 117.833 28.5 163.5s44.5 83.167 76.5 112.5s69.167 50.833 111.5 64.5s86.833 20.5 133.5 20.5c44 0 83.833 -3.16699 119.5 -9.5s64.834 -14.833 87.501 -25.5
c0 -10.667 -0.5 -24.334 -1.5 -41.001s-2.66699 -34.167 -5 -52.5s-5 -36.333 -8 -54s-5.83301 -32.5 -8.5 -44.5h-42l-55 151c-6 3.33301 -15.667 6 -29 8s-27 3 -41 3c-27.333 0 -53 -5.5 -77 -16.5s-45.333 -28.5 -64 -52.5s-33.334 -54.833 -44.001 -92.5
s-16 -82.834 -16 -135.501c0 -95.333 19 -168.666 57 -219.999s89.667 -77 155 -77c18.667 0 34.5 1.5 47.5 4.5s21.833 7.16699 26.5 12.5z" />
    <glyph glyph-name="D" unicode="D" horiz-adv-x="736" 
d="M20 0l0.000976562 37.9971c11.333 6.66699 24 12.5 38 17.5s28.667 8.83301 44 11.5v566c-15.333 3.33301 -30.166 7.5 -44.499 12.5s-26.833 10.5 -37.5 16.5v38h116c11.333 0 25.333 0.333008 42 1s34 1.5 52 2.5l52.5 3c17 1 31.5 1.5 43.5 1.5
c58 0 109.833 -7.66699 155.5 -23s84.334 -37.666 116.001 -66.999s56 -65.666 73 -108.999s25.5 -93.333 25.5 -150c0 -55.333 -8 -105.666 -24 -150.999s-40 -84 -72 -116s-72.5 -56.833 -121.5 -74.5s-106.5 -26.5 -172.5 -26.5c-8.66699 0 -20.334 0.5 -35.001 1.5
s-30.334 2 -47.001 3l-50 3c-16.667 1 -31.334 1.5 -44.001 1.5h-110zM313.001 642.997c-12 0 -24.001 -0.333008 -36.001 -1s-22.333 -1.66699 -31 -3v-579c2.66699 -0.666992 7.33398 -1.16699 14.001 -1.5l20.5 -1l20.5 -1c6.66699 -0.333008 11.667 -0.5 15 -0.5
c38.667 0 71.5 8 98.5 24s49.167 37.667 66.5 65s30 59.333 38 96s12 75.667 12 117c0 36.667 -4.16699 72 -12.5 106s-21.166 64.333 -38.499 91s-39.833 48 -67.5 64s-60.834 24 -99.501 24z" />
    <glyph glyph-name="E" unicode="E" horiz-adv-x="604" 
d="M546 700c-1.33301 -30 -3.66992 -61 -7.00293 -93s-7.66602 -62 -12.999 -90h-41l-46 118h-187v-245h122l44 77h32c3.33301 -32.667 5 -69 5 -109s-1.66699 -77.333 -5 -112h-32l-44 79h-122v-260h195l53 127h41c2.66699 -12.667 5.33398 -27 8.00098 -43
s4.83398 -32.5 6.50098 -49.5s3 -34.167 4 -51.5s1.5 -33.333 1.5 -48h-541v38c11.333 6 24 11.667 38 17s28.667 9.33301 44 12v566c-13.333 2.66699 -27.5 6.5 -42.5 11.5s-28.167 10.833 -39.5 17.5v38h526z" />
    <glyph glyph-name="F" unicode="F" horiz-adv-x="575" 
d="M242 67c30.667 -4 59.667 -13.666 87 -28.999v-38h-309v38c10.667 6 22 11.5 34 16.5s24.667 9.16699 38 12.5v566c-15.333 3.33301 -28.833 7.66602 -40.5 12.999s-22.167 10.666 -31.5 15.999v38h523c0 -13.333 -0.666992 -27.833 -2 -43.5s-2.83301 -31.667 -4.5 -48
s-3.66699 -32.333 -6 -48s-4.83301 -30.167 -7.5 -43.5h-41l-46 118h-194v-263h137l45 77h30c2.66699 -17.333 4.5 -35.666 5.5 -54.999s1.5 -38.666 1.5 -57.999c-0.666992 -20 -1.5 -39.333 -2.5 -58s-2.5 -35.334 -4.5 -50.001h-30l-45 79h-137v-240z" />
    <glyph glyph-name="G" unicode="G" horiz-adv-x="709" 
d="M636 44c-13.333 -6.66699 -29.6748 -13.3301 -49.0078 -19.9971s-39.666 -12.667 -60.999 -18s-42.666 -9.66602 -63.999 -12.999s-40.333 -5 -57 -5c-57.333 0 -108.5 7.5 -153.5 22.5s-83.333 37.667 -115 68s-55.834 68.166 -72.501 113.499s-25 98 -25 158
c0 65.333 10.167 120.833 30.5 166.5s47.333 83 81 112s71.834 50.167 114.501 63.5s86.334 20 131.001 20c44 0 85.333 -3 124 -9s69.334 -14.667 92.001 -26c0 -10 -0.5 -22.833 -1.5 -38.5s-2.5 -32.5 -4.5 -50.5s-4.5 -36 -7.5 -54s-6.5 -34.333 -10.5 -49h-41l-56 152
c-7.33301 3.33301 -18.333 5.83301 -33 7.5s-29.334 2.5 -44.001 2.5c-27.333 0 -53.666 -5.33301 -78.999 -16s-47.666 -27.834 -66.999 -51.501s-34.666 -54.334 -45.999 -92.001s-17 -83.5 -17 -137.5c0 -44 5.16699 -84.167 15.5 -120.5s24.833 -67.5 43.5 -93.5
s41 -46.333 67 -61s54.667 -22 86 -22c10 0 20.333 0.833008 31 2.5s20.667 3.83398 30 6.50098s17.5 5.66699 24.5 9s11.833 6.33301 14.5 9v188c-17.333 1.33301 -33.666 4.66602 -48.999 9.99902s-29.666 11.666 -42.999 18.999v38h273v-38c-6 -6 -14 -11.5 -24 -16.5
s-22.667 -9.16699 -38 -12.5v-224z" />
    <glyph glyph-name="H" unicode="H" horiz-adv-x="769" 
d="M323 0l-302.996 0.00195312v38c11.333 6 24.5 11.667 39.5 17s29.167 9.33301 42.5 12v566c-16 2.66699 -31.333 6.66699 -46 12s-26.667 11 -36 17v38h303v-38c-10 -6.66699 -21.167 -12.667 -33.5 -18s-24.833 -9 -37.5 -11v-242h265v242
c-14.667 2.66699 -27.834 6.66699 -39.501 12s-22.167 11 -31.5 17v38h303v-38c-11.333 -7.33301 -24.333 -13.333 -39 -18s-29 -8.33398 -43 -11.001v-566c15.333 -2.66699 30.166 -6.66699 44.499 -12s26.833 -11 37.5 -17v-38h-303v38c10 6 21 11.667 33 17
s24.667 9.33301 38 12v259h-265v-259c13.333 -2.66699 25.666 -6.33398 36.999 -11.001s22.666 -10.667 33.999 -18v-38z" />
    <glyph glyph-name="I" unicode="I" horiz-adv-x="372" 
d="M342 0h-312v38c26.667 14.667 53.667 24.334 81 29.001v566c-13.333 2 -27.333 5.66699 -42 11s-27.667 11.333 -39 18v38h312v-38c-12 -7.33301 -25.167 -13.5 -39.5 -18.5s-28.166 -8.5 -41.499 -10.5v-566c13.333 -2.66699 27.166 -6.33398 41.499 -11.001
s27.5 -10.667 39.5 -18v-38z" />
    <glyph glyph-name="J" unicode="J" horiz-adv-x="365" 
d="M27 700l307.996 0.000976562v-38c-10.667 -6.66699 -22.667 -12.667 -36 -18s-26.666 -9 -39.999 -11v-512c0 -54.667 -8.16699 -99.5 -24.5 -134.5s-35.666 -62.667 -57.999 -83s-45.166 -35.166 -68.499 -44.499s-42.333 -15.666 -57 -18.999l-19 26
c10 8 19.667 18.167 29 30.5s17.5 28.166 24.5 47.499s12.667 42.833 17 70.5s6.5 61.167 6.5 100.5v518c-14.667 3.33301 -29.167 7.16602 -43.5 11.499s-27.166 10.166 -38.499 17.499v38z" />
    <glyph glyph-name="K" unicode="K" horiz-adv-x="710" 
d="M399 700l267.999 -0.00292969v-38c-11.333 -7.33301 -24.333 -13.5 -39 -18.5s-28 -8.5 -40 -10.5l-190 -241l54 -72.5l66 -84l72 -88l72 -84.5l48 -29v-34h-174l-40 28c-16 20 -32.833 42.167 -50.5 66.5l-52.5 76l-51 79.5l-47 78h-43v-261
c14.667 -2.66699 28 -6.66699 40 -12s22.333 -11 31 -17v-38h-303v38c13.333 6.66699 27 12.5 41 17.5s27.667 8.83301 41 11.5v566c-15.333 2 -30.166 5.66699 -44.499 11s-26.833 11.333 -37.5 18v38h303v-38c-8.66699 -5.33301 -19.167 -10.666 -31.5 -15.999
s-25.5 -9.66602 -39.5 -12.999v-254l59 14l161 240c-13.333 2.66699 -26.5 6.83398 -39.5 12.501s-24.167 11.167 -33.5 16.5v38z" />
    <glyph glyph-name="L" unicode="L" horiz-adv-x="583" 
d="M20 700l328.001 0.000976562v-38c-14 -7.33301 -29.5 -13.5 -46.5 -18.5s-33.5 -8.5 -49.5 -10.5v-568h193l67 179h41c2.66699 -15.333 5.16699 -33.333 7.5 -54s4.16602 -42.334 5.49902 -65.001s2.33301 -45 3 -67s0.666992 -41.333 0 -58h-549v38
c15.333 8 29.833 14.333 43.5 19s26.5 8 38.5 10v566c-32.667 5.33301 -60 15 -82 29v38z" />
    <glyph glyph-name="M" unicode="M" horiz-adv-x="930" 
d="M909 0l-299 -0.00292969v38c13.333 6.66699 26.333 12.334 39 17.001s26.334 8.66699 41.001 12v418l5 117h-8l-33 -107l-193 -495h-46l-192 491l-36 117h-9l1 -127v-410c12.667 -2.66699 26.667 -7 42 -13s29.666 -12.667 42.999 -20v-38h-244v38l39.5 19
c15.667 7.33301 30.5 12.333 44.5 15v561c-13.333 2.66699 -27.5 6.33398 -42.5 11.001s-28.167 10.667 -39.5 18v38h271l153 -407l29 -96h1l30 98l156 405h248v-38c-11.333 -6.66699 -23.5 -12.5 -36.5 -17.5s-26.167 -8.83301 -39.5 -11.5v-567
c14 -2.66699 27.5 -6.66699 40.5 -12s24.5 -10.666 34.5 -15.999v-38z" />
    <glyph glyph-name="N" unicode="N" horiz-adv-x="758" 
d="M490 700l248.001 -0.000976562v-38c-12.667 -10 -26.667 -18.833 -42 -26.5s-29.666 -13.5 -42.999 -17.5v-630h-85l-353 510l-40 77h-3l9 -80v-417c13.333 -3.33301 28.166 -8.83301 44.499 -16.5s30.166 -15.5 41.499 -23.5v-38h-247v38c12 8 25.167 15.5 39.5 22.5
s29.166 12.833 44.499 17.5v546c-13.333 5.33301 -26.666 11.333 -39.999 18s-25.333 13.667 -36 21v37h216l287 -416l46 -86h4l-5 86v334c-16 5.33301 -31.5 11.833 -46.5 19.5s-28.167 15.834 -39.5 24.501v38z" />
    <glyph glyph-name="O" unicode="O" horiz-adv-x="754" 
d="M39 350c0 52 7.33301 100.167 22 144.5s36.334 82.666 65.001 114.999s64 57.5 106 75.5s90.333 27 145 27s103 -9 145 -27s77.167 -43.167 105.5 -75.5s49.833 -70.666 64.5 -114.999s22 -92.5 22 -144.5s-7.33301 -100.167 -22 -144.5s-36.167 -82.666 -64.5 -114.999
s-63.5 -57.5 -105.5 -75.5s-90.333 -27 -145 -27s-103 9 -145 27s-77.333 43.167 -106 75.5s-50.334 70.666 -65.001 114.999s-22 92.5 -22 144.5zM209 350c0 -42.667 3.33496 -82.167 10.002 -118.5s17.167 -67.666 31.5 -93.999s32.666 -47 54.999 -62
s49.166 -22.5 80.499 -22.5c28.667 0 53 7.5 73 22.5s36.333 35.667 49 62s21.834 57.666 27.501 93.999s8.5 75.833 8.5 118.5s-3.16699 82.167 -9.5 118.5s-16.333 67.666 -30 93.999s-31.667 47 -54 62s-49.5 22.5 -81.5 22.5c-30.667 0 -56.334 -7.5 -77.001 -22.5
s-37.167 -35.667 -49.5 -62s-21 -57.666 -26 -93.999s-7.5 -75.833 -7.5 -118.5z" />
    <glyph glyph-name="P" unicode="P" horiz-adv-x="640" 
d="M252 67c18 -2.66699 35.833 -6.49902 53.5 -11.499s33.5 -10.833 47.5 -17.5v-38h-333v38c12.667 7.33301 26.167 13.333 40.5 18s28.166 8.33398 41.499 11.001v566c-15.333 2.66699 -30 6.5 -44 11.5s-26.667 10.833 -38 17.5v38h126c26.667 0 57.167 1.33301 91.5 4
s65.833 4 94.5 4c35.333 0 69.833 -3.5 103.5 -10.5s63.667 -18.833 90 -35.5s47.5 -38.834 63.5 -66.501s24 -62.167 24 -103.5c0 -39.333 -7.83301 -73.333 -23.5 -102s-36.5 -52.334 -62.5 -71.001s-56 -32.5 -90 -41.5s-69 -13.5 -105 -13.5h-16
c-7.33301 0 -15.166 0.166992 -23.499 0.5l-24 1c-7.66699 0.333008 -13.167 0.833008 -16.5 1.5v-200zM306 643.001c-13.333 0 -23.833 -0.499023 -31.5 -1.49902s-15.167 -2.5 -22.5 -4.5v-304c6 -2 15 -3.16699 27 -3.5s21.667 -0.5 29 -0.5c18 0 35.333 3 52 9
s31.5 15.333 44.5 28s23.5 29 31.5 49s12 44 12 72c0 53.333 -13 92.666 -39 117.999s-60.333 38 -103 38z" />
    <glyph glyph-name="Q" unicode="Q" horiz-adv-x="754" 
d="M774 -112c-12 -12.667 -24.832 -24.8311 -38.499 -36.498s-28 -22.167 -43 -31.5s-30.833 -16.666 -47.5 -21.999s-34 -8 -52 -8c-30.667 0 -61.5 5.5 -92.5 16.5s-63.333 23.667 -97 38s-69 28.166 -106 41.499s-77.167 22.666 -120.5 27.999l25 44
c32 6 63.5 7.5 94.5 4.5s61.667 -8 92 -15s60.666 -14.833 90.999 -23.5s60.833 -15.667 91.5 -21s62 -7.83301 94 -7.5s65 6.16602 99 17.499zM39.001 350.003c0 52 7.33301 100.167 22 144.5s36.334 82.666 65.001 114.999s64 57.5 106 75.5s90.333 27 145 27
s103 -9 145 -27s77.167 -43.167 105.5 -75.5s49.833 -70.666 64.5 -114.999s22 -92.5 22 -144.5s-7.33301 -100.167 -22 -144.5s-36.167 -82.666 -64.5 -114.999s-63.5 -57.5 -105.5 -75.5s-90.333 -27 -145 -27s-103 9 -145 27s-77.333 43.167 -106 75.5
s-50.334 70.666 -65.001 114.999s-22 92.5 -22 144.5zM209.001 350.003c0 -42.667 3.33496 -82.167 10.002 -118.5s17.167 -67.666 31.5 -93.999s32.666 -47 54.999 -62s49.166 -22.5 80.499 -22.5c28.667 0 53 7.5 73 22.5s36.333 35.667 49 62
s21.834 57.666 27.501 93.999s8.5 75.833 8.5 118.5s-3.16699 82.167 -9.5 118.5s-16.333 67.666 -30 93.999s-31.667 47 -54 62s-49.5 22.5 -81.5 22.5c-30.667 0 -56.334 -7.5 -77.001 -22.5s-37.167 -35.667 -49.5 -62s-21 -57.666 -26 -93.999s-7.5 -75.833 -7.5 -118.5
z" />
    <glyph glyph-name="R" unicode="R" horiz-adv-x="697" 
d="M252 67c15.333 -3.33301 29.002 -7.66602 41.002 -12.999l35 -16v-38h-308v38c14.667 8 28.667 14.167 42 18.5s26.666 7.83301 39.999 10.5v566c-33.333 7.33301 -60.666 17 -81.999 29v38h106c13.333 0 28.5 0.333008 45.5 1s34.833 1.5 53.5 2.5l57 3
c19.333 1 38 1.5 56 1.5c36.667 0 70.5 -4.16699 101.5 -12.5s57.667 -20.833 80 -37.5s39.666 -37.5 51.999 -62.5s18.5 -54.167 18.5 -87.5c0 -48 -11.667 -87.333 -35 -118s-55.333 -53.667 -96 -69l85 -128.5c30 -43.667 61.667 -85.834 95 -126.501l48 -32v-34h-167
l-43 33c-30.667 36.667 -57.834 79.167 -81.501 127.5s-44.5 95.833 -62.5 142.5h-81v-236zM302.002 643c-20.667 0 -37.333 -2 -50 -6v-279h59c34 0 63 12.167 87 36.5s36 60.5 36 108.5c0 24.667 -3.33301 45.834 -10 63.501s-16 32.167 -28 43.5s-26 19.666 -42 24.999
s-33.333 8 -52 8z" />
    <glyph glyph-name="S" unicode="S" horiz-adv-x="558" 
d="M157 83c7.33301 -7.33301 17.6699 -14.1729 31.0029 -20.5059s31 -9.5 53 -9.5c36.667 0 67.167 9.5 91.5 28.5s36.5 45.5 36.5 79.5c0 24.667 -7.83301 45.334 -23.5 62.001s-35.5 32 -59.5 46s-49.667 27.833 -77 41.5s-53 29.834 -77 48.501
s-43.833 40.834 -59.5 66.501s-23.5 57.5 -23.5 95.5c0 32.667 6 61 18 85s28.5 43.833 49.5 59.5s45.833 27.334 74.5 35.001s59.667 11.5 93 11.5c40.667 0 78.5 -2.83301 113.5 -8.5s66.5 -14.5 94.5 -26.5c-0.666992 -13.333 -1.83398 -28.666 -3.50098 -45.999
s-3.83398 -34.5 -6.50098 -51.5s-5.5 -33 -8.5 -48s-5.83301 -27.5 -8.5 -37.5h-41l-46 137c-8 4 -19.833 7.66699 -35.5 11s-31.834 5 -48.501 5c-28 0 -51.667 -7.33301 -71 -22s-29 -36 -29 -64c0 -25.333 8 -46.833 24 -64.5s36 -33.834 60 -48.501
s50.167 -29.167 78.5 -43.5s54.5 -30.833 78.5 -49.5s44 -40.5 60 -65.5s24 -55.833 24 -92.5c0 -66.667 -22.5 -118.167 -67.5 -154.5s-111.167 -54.5 -198.5 -54.5c-21.333 0 -42.833 1.33301 -64.5 4s-42.167 6.33398 -61.5 11.001s-36.5 9.66699 -51.5 15
s-26.167 11 -33.5 17c0.666992 15.333 2.33398 31.833 5.00098 49.5s5.5 35.334 8.5 53.001s6.16699 34.5 9.5 50.5s6.66602 30 9.99902 42h41z" />
    <glyph glyph-name="T" unicode="T" horiz-adv-x="667" 
d="M505 0h-343.998v38c13.333 5.33301 28.5 10.833 45.5 16.5s34.167 9.83398 51.5 12.501v568h-116l-64 -171h-41c-2.66699 13.333 -5.33398 30.333 -8.00098 51s-5 42 -7 64s-3.66699 43.833 -5 65.5s-2 40.167 -2 55.5h637c0 -16 -0.666992 -34.667 -2 -56s-3 -43 -5 -65
s-4.33301 -43.167 -7 -63.5s-5.33398 -37.5 -8.00098 -51.5h-42l-64 171h-116v-568c17.333 -3.33301 34.5 -7.33301 51.5 -12s32.167 -10.334 45.5 -17.001v-38z" />
    <glyph glyph-name="U" unicode="U" horiz-adv-x="715" 
d="M7 700l307.998 -0.00195312v-38c-22 -14 -47.333 -23.667 -76 -29v-385c0 -32.667 3.66699 -60 11 -82s18 -39.833 32 -53.5s30.833 -23.5 50.5 -29.5s41.834 -9 66.501 -9c22 0 42.167 3.16699 60.5 9.5s34.333 16.5 48 30.5s24.167 32.333 31.5 55s11 50.667 11 84v375
c-15.333 3.33301 -31.166 8 -47.499 14s-29.833 12.667 -40.5 20v38h248v-38c-12 -8.66699 -25.333 -15.667 -40 -21s-29 -9.66602 -43 -12.999v-376c0 -85.333 -22.5 -150.166 -67.5 -194.499s-108.5 -66.5 -190.5 -66.5c-89.333 0 -158.333 20 -207 60s-73 104 -73 192
v390c-13.333 2 -27.333 5.5 -42 10.5s-28 11.167 -40 18.5v38z" />
    <glyph glyph-name="V" unicode="V" horiz-adv-x="734" 
d="M564 633c-16 3.33301 -31.1689 7.66406 -45.502 12.9971s-27.166 10.666 -38.499 15.999v38h254v-38c-8 -5.33301 -18.5 -10.666 -31.5 -15.999s-26.5 -9.66602 -40.5 -12.999l-230 -633l-99 -12l-258 645c-13.333 3.33301 -26.666 7.5 -39.999 12.5s-25 10.5 -35 16.5
v38h333v-38c-11.333 -5.33301 -24 -10.666 -38 -15.999s-28.667 -9.66602 -44 -12.999l140 -394l23 -94h2l22 96z" />
    <glyph glyph-name="W" unicode="W" horiz-adv-x="1033" 
d="M865 633c-26.667 4 -54.6689 13.668 -84.002 29.001v38h252v-38c-11.333 -7.33301 -23.333 -13.333 -36 -18s-25 -8.33398 -37 -11.001l-177 -633l-104 -12l-155 484l-151 -472l-105 -12l-195 645c-14 2.66699 -27 6.5 -39 11.5s-23.333 10.833 -34 17.5v38h324v-38
c-11.333 -6 -24.166 -11.5 -38.499 -16.5s-29.166 -9.16699 -44.499 -12.5l93 -353l21 -130h2l35 135l133 415h59l142 -410l34 -130h2l23 132z" />
    <glyph glyph-name="X" unicode="X" horiz-adv-x="728" 
d="M435 700l248 -0.000976562v-38l-31.5 -16c-11 -5.33301 -23.167 -9.66602 -36.5 -12.999l-178 -261l207 -305c15.333 -3.33301 29.166 -7.5 41.499 -12.5s24.166 -10.5 35.499 -16.5v-38h-324v38c10.667 6 21.834 11.5 33.501 16.5s24.167 9.16699 37.5 12.5l-142 220
l-132 -221c14 -2 27 -5.33301 39 -10s23.667 -10.667 35 -18v-38h-256v38c22 13.333 44.667 23 68 29l201 285l-188 281c-12.667 3.33301 -24.667 7.66602 -36 12.999l-33 16v38h317v-38c-8 -4.66699 -18 -9.5 -30 -14.5s-26 -9.83301 -42 -14.5l122 -201l120 201
c-13.333 2.66699 -26.666 6.83398 -39.999 12.501s-25.333 11.167 -36 16.5v38z" />
    <glyph glyph-name="Y" unicode="Y" horiz-adv-x="698" 
d="M453 700l245 0.000976562v-38c-10 -6 -21.167 -11.833 -33.5 -17.5s-24.833 -9.5 -37.5 -11.5l-194 -340v-226c13.333 -1.33301 26.5 -4.83301 39.5 -10.5s25.167 -11.834 36.5 -18.501v-38h-308v38c11.333 6 24 11.667 38 17s28.667 9.33301 44 12v225l-202 341
c-15.333 2.66699 -29.833 6.66699 -43.5 12s-26.167 11 -37.5 17v38h328v-38c-9.33301 -5.33301 -20 -10.666 -32 -15.999s-26 -9.66602 -42 -12.999l143 -268l136 268c-15.333 3.33301 -30 7.66602 -44 12.999s-26 10.666 -36 15.999v38z" />
    <glyph glyph-name="Z" unicode="Z" horiz-adv-x="634" 
d="M537 211l42 -0.000976562c2.66699 -14 5.16699 -29.833 7.5 -47.5s4.5 -36 6.5 -55s3.5 -37.833 4.5 -56.5s1.5 -36 1.5 -52h-564v65l388 570h-248l-59 -143h-42c-3.33301 14.667 -6.33301 31.334 -9 50.001s-5 37.5 -7 56.5s-3.33301 37.333 -4 55s-1 33.167 -1 46.5
h534v-65l-386 -570h274z" />
    <glyph glyph-name="bracketleft" unicode="[" horiz-adv-x="324" 
d="M72 700h234v-55h-104v-820h104v-55h-234v930z" />
    <glyph glyph-name="backslash" unicode="\" horiz-adv-x="382" 
d="M416 -104l-57 -30l-415 820l58 29z" />
    <glyph glyph-name="bracketright" unicode="]" horiz-adv-x="324" 
d="M252 -230h-234v55h104v820h-104v55h234v-930z" />
    <glyph glyph-name="asciicircum" unicode="^" horiz-adv-x="498" 
d="M229 711h46l170 -277h-120l-79 135l-18 53l-25 -54l-90 -134h-70z" />
    <glyph glyph-name="underscore" unicode="_" horiz-adv-x="410" 
d="M0 -116h410v-80h-410v80z" />
    <glyph glyph-name="grave" unicode="`" horiz-adv-x="351" 
d="M291 589l-45 -22l-186 145v29c4 4 12.667 7.83301 26 11.5s27.5 6.5 42.5 8.5s29.167 3.16699 42.5 3.5s22.333 -0.166992 27 -1.5z" />
    <glyph glyph-name="a" unicode="a" horiz-adv-x="557" 
d="M470 145c0 -14.667 0.170898 -27.335 0.503906 -38.002s1.16602 -22 2.49902 -34l69 -10v-35c-8 -4 -18.833 -8 -32.5 -12s-28 -7.83301 -43 -11.5s-29.833 -6.66699 -44.5 -9s-27.667 -4.16602 -39 -5.49902h-34c-6.66699 15.333 -10.667 30.666 -12 45.999
s-2.33301 34 -3 56h-5c-3.33301 -13.333 -9 -26.166 -17 -38.499s-18.167 -23.333 -30.5 -33s-26.833 -17.5 -43.5 -23.5s-35.334 -9 -56.001 -9c-22 0 -42.333 3.33301 -61 10s-35 16 -49 28s-25 26.5 -33 43.5s-12 36.167 -12 57.5c0 30 5.66699 54.667 17 74
s29.166 35.166 53.499 47.499s55.666 21.5 93.999 27.5s84.833 10.333 139.5 13c5.33301 57.333 3 99.333 -7 126s-31.667 40 -65 40c-20.667 0 -39.667 -3.33301 -57 -10l-47 -120h-44c-5.33301 8 -10.5 17.167 -15.5 27.5s-9.66699 21.333 -14 33s-8 23.5 -11 35.5
s-5.16699 23.667 -6.5 35c25.333 17.333 58 31 98 41s82.333 15 127 15c38 0 69 -4.16699 93 -12.5s42.833 -19.666 56.5 -33.999s23.167 -31.166 28.5 -50.499s8 -40 8 -62c0 -40 -0.833008 -76.167 -2.5 -108.5s-2.5 -65.5 -2.5 -99.5zM245.004 67.999
c14 0 25.999 2.66895 35.999 8.00195s18.5 11.666 25.5 18.999s12.333 15.333 16 24s6.5 16.334 8.5 23.001v100c-31.333 -0.666992 -57 -2.66699 -77 -6s-35.667 -8.83301 -47 -16.5s-19.166 -17.334 -23.499 -29.001s-6.5 -25.834 -6.5 -42.501c0 -25.333 6 -45 18 -59
s28.667 -21 50 -21z" />
    <glyph glyph-name="b" unicode="b" horiz-adv-x="588" 
d="M67 669l-76.001 8.00195v39c10 4 23.167 8 39.5 12s33.333 7.5 51 10.5s35 5.66699 52 8s31.5 4.16602 43.5 5.49902h34v-346h2c13.333 33.333 33.666 59.333 60.999 78s59.666 28 96.999 28c58.667 0 104.334 -20.333 137.001 -61s49 -102.334 49 -185.001
c0 -91.333 -24.167 -160 -72.5 -206s-119.166 -69 -212.499 -69c-16.667 0 -35.334 1.16699 -56.001 3.5s-40.667 5.16602 -60 8.49902s-37.166 7.33301 -53.499 12s-28.166 9.33398 -35.499 14.001v640zM305.999 432.002c-25.333 0 -45.6689 -9.16699 -61.002 -27.5
s-26.666 -41.5 -33.999 -69.5v-265c9.33301 -6.66699 20.833 -12 34.5 -16s29.167 -6 46.5 -6c38 0 65.833 17 83.5 51s26.5 87.333 26.5 160c0 52.667 -7.16699 94.667 -21.5 126s-39.166 47 -74.499 47z" />
    <glyph glyph-name="c" unicode="c" horiz-adv-x="484" 
d="M456 81c-4.66699 -13.333 -12.3311 -25.5 -22.998 -36.5s-23.5 -20.833 -38.5 -29.5s-32 -15.334 -51 -20.001s-38.833 -7 -59.5 -7c-44 0 -81.833 6.16699 -113.5 18.5s-57.834 30 -78.501 53s-36 50.667 -46 83s-15 68.166 -15 107.499
c0 84.667 23.167 149.5 69.5 194.5s112.166 67.5 197.499 67.5c32.667 0 62.667 -3.5 90 -10.5s50 -15.167 68 -24.5c-1.33301 -11.333 -3.16602 -23.833 -5.49902 -37.5s-5 -27.334 -8 -41.001s-6.5 -27 -10.5 -40s-8 -23.833 -12 -32.5h-49l-42 119
c-4.66699 3.33301 -9.66699 5.83301 -15 7.5s-13.333 2.5 -24 2.5c-17.333 0 -32.333 -3.16699 -45 -9.5s-23.5 -17.166 -32.5 -32.499s-15.667 -35.666 -20 -60.999s-6.5 -56.666 -6.5 -93.999c0 -27.333 3 -52.5 9 -75.5s15.167 -43 27.5 -60s27.833 -30.333 46.5 -40
s40.667 -14.5 66 -14.5c23.333 0 43.666 3.33301 60.999 10s32 14.667 44 24z" />
    <glyph glyph-name="d" unicode="d" horiz-adv-x="599" 
d="M372 99c-3.33301 -14.667 -9.33301 -28.6699 -18 -42.0029s-19 -25.166 -31 -35.499s-25.667 -18.5 -41 -24.5s-31.666 -9 -48.999 -9c-66 0 -116.167 20.833 -150.5 62.5s-51.5 105.5 -51.5 191.5c0 44 6 82.5 18 115.5s28.833 60.833 50.5 83.5
s47.834 39.667 78.501 51s64.667 17 102 17c12 0 22.167 -0.333008 30.5 -1s16 -1.5 23 -2.5s13.667 -2.66699 20 -5s13.5 -4.83301 21.5 -7.5v176l-76 8v39c9.33301 4 22.166 7.66699 38.499 11s33.5 6.5 51.5 9.5l53 8.5c17.333 2.66699 31.666 5 42.999 7h34v-681l66 -8
v-35c-9.33301 -4.66699 -21.333 -9 -36 -13s-30 -7.66699 -46 -11s-31.5 -6.16602 -46.5 -8.49902s-27.5 -4.16602 -37.5 -5.49902h-34l-9 109h-4zM281 67.9971c23.333 0 43.001 7.33398 59.001 22.001s27.667 39.667 35 75v269
c-8.66699 5.33301 -19.5 9.66602 -32.5 12.999s-29.167 5 -48.5 5c-38.667 0 -66.334 -17.5 -83.001 -52.5s-25 -85.833 -25 -152.5c0 -54 7.33301 -97.333 22 -130s39 -49 73 -49z" />
    <glyph glyph-name="e" unicode="e" horiz-adv-x="537" 
d="M486 84c-5.33301 -11.333 -13.834 -22.835 -25.501 -34.502s-26 -22 -43 -31s-36.667 -16.333 -59 -22s-46.5 -8.5 -72.5 -8.5c-41.333 0 -78 6.16699 -110 18.5s-58.667 30 -80 53s-37.5 50.5 -48.5 82.5s-16.5 68 -16.5 108c0 85.333 22.333 150.333 67 195
s106.667 67 186 67c34 0 65.833 -4.66699 95.5 -14s54.334 -24.666 74.001 -45.999s33.334 -49.333 41.001 -84s7.16699 -77 -1.5 -127h-307c0.666992 -52.667 14.167 -94.667 40.5 -126s65.166 -47 116.499 -47c22 0 44.833 3.33301 68.5 10s42.167 15.334 55.5 26.001z
M279.999 454.998c-13.333 0 -25.166 -2.33301 -35.499 -7s-19.333 -13.167 -27 -25.5s-13.834 -29 -18.501 -50s-8 -47.5 -10 -79.5h161c4.66699 52 1.66699 92 -9 120s-31 42 -61 42z" />
    <glyph glyph-name="f" unicode="f" horiz-adv-x="372" 
d="M321 752c27.333 0 51.834 -2.49902 73.501 -7.49902s38.167 -9.83301 49.5 -14.5c-2 -22 -6.33301 -44.667 -13 -68s-12.667 -42.666 -18 -57.999h-34l-44 95c-17.333 0 -31.833 -1.83301 -43.5 -5.5s-21 -10.834 -28 -21.501s-12.167 -25.834 -15.5 -45.501
s-5 -45.167 -5 -76.5v-50h106v-63h-106v-374c34.667 -4 66.667 -12 96 -24v-39h-306v39c20.667 12 42.667 20 66 24v374h-76v39c23.333 14.667 48.666 25.667 75.999 33v35c0 41.333 5.83301 75.5 17.5 102.5s27.5 48.333 47.5 64s43.5 26.5 70.5 32.5s55.833 9 86.5 9z" />
    <glyph glyph-name="g" unicode="g" horiz-adv-x="564" 
d="M264 512c43.333 0 79.3301 -4.50195 107.997 -13.502s50.334 -20.167 65.001 -33.5c31.333 34 67.333 57.667 108 71c4.66699 -3.33301 9.33398 -8.16602 14.001 -14.499s8.66699 -13.166 12 -20.499s6 -14.666 8 -21.999s3 -13.333 3 -18l-13 -24h-105
c7.33301 -9.33301 14.166 -21.5 20.499 -36.5s9.5 -32.833 9.5 -53.5c0 -22 -4.66699 -42.667 -14 -62s-23.5 -36.5 -42.5 -51.5s-43 -26.833 -72 -35.5s-62.833 -13 -101.5 -13c-11.333 0 -21.5 0.166992 -30.5 0.5s-16.833 1.16602 -23.5 2.49902
c-2.66699 -4 -5.5 -8.83301 -8.5 -14.5s-4.5 -11.167 -4.5 -16.5c0 -11.333 8 -20.333 24 -27s36.333 -12.667 61 -18l79.5 -18c28.333 -6.66699 54.833 -15.5 79.5 -26.5s45.334 -25.333 62.001 -43s25.334 -40.5 26.001 -68.5c0.666992 -26.667 -6 -50.334 -20 -71.001
s-33.167 -38.167 -57.5 -52.5s-53 -25.333 -86 -33s-68.167 -11.5 -105.5 -11.5c-44 0 -81.5 3.5 -112.5 10.5s-56.167 16.5 -75.5 28.5s-33.5 25.667 -42.5 41s-13.5 31.333 -13.5 48c0 18.667 3.66699 34.667 11 48s17.666 25 30.999 35s28.833 18.333 46.5 25
s37.167 12.667 58.5 18c-10 2.66699 -19.667 6 -29 10s-17.666 8.83301 -24.999 14.5s-13.333 12.334 -18 20.001s-7 16.5 -7 26.5c0 8.66699 2.66699 17.167 8 25.5s12.333 16 21 23s18 13.333 28 19s20 10.5 30 14.5c-42 9.33301 -75.333 27.5 -100 54.5
s-37 61.5 -37 103.5c0 50 20.667 89 62 117s97.333 42 168 42zM389.997 -76.002c0 18 -5.50098 32.499 -16.501 43.499s-25.167 20 -42.5 27s-36.833 13 -58.5 18s-43.167 10.833 -64.5 17.5c-17.333 -13.333 -29.666 -26.666 -36.999 -39.999s-11 -29.333 -11 -48
c0 -30.667 10.5 -54.5 31.5 -71.5s50.5 -25.5 88.5 -25.5c37.333 0 65 7.83301 83 23.5s27 34.167 27 55.5zM177.996 347.997c0 -34.667 5.83301 -61 17.5 -79s34.5 -27 68.5 -27c32.667 0 55.167 9.16699 67.5 27.5s18.5 44.5 18.5 78.5c0 36 -6.33301 62.833 -19 80.5
s-35 26.5 -67 26.5c-33.333 0 -56 -8.66699 -68 -26s-18 -44.333 -18 -81z" />
    <glyph glyph-name="h" unicode="h" horiz-adv-x="640" 
d="M628 0l-264.995 0.000976562v39c8 4.66699 16.333 9 25 13s18.667 7.66699 30 11v202c0 57.333 -5.5 99.5 -16.5 126.5s-32.5 40.5 -64.5 40.5c-26.667 0 -49.334 -9.16699 -68.001 -27.5s-32 -39.5 -40 -63.5v-278c10.667 -2.66699 20.167 -5.66699 28.5 -9
s17.166 -8.33301 26.499 -15v-39h-265v39c20.667 10.667 42.667 18.667 66 24v606l-76 8v39c10 4 22.833 8 38.5 12s32.167 7.5 49.5 10.5s34.666 5.66699 51.999 8s32.666 4.16602 45.999 5.49902h34v-353h1c6.66699 15.333 15.667 29.833 27 43.5s24.166 25.667 38.499 36
s29.833 18.5 46.5 24.5s34.334 9 53.001 9c26.667 0 50.5 -3.16699 71.5 -9.5s38.5 -17.5 52.5 -33.5s24.667 -37.5 32 -64.5s11 -61.167 11 -102.5v-239c11.333 -2.66699 22.666 -5.66699 33.999 -9s22 -8.33301 32 -15v-39z" />
    <glyph glyph-name="i" unicode="i" horiz-adv-x="332" 
d="M307 0l-276.001 0.000976562v39c10 5.33301 20.333 9.83301 31 13.5s22.334 7.16699 35.001 10.5v366l-66 8v39c10 4 22.5 8 37.5 12s30.833 7.5 47.5 10.5s33 5.66699 49 8s30 4.16602 42 5.49902h34v-449c13.333 -3.33301 25.333 -6.83301 36 -10.5
s20.667 -8.16699 30 -13.5v-39zM79.999 664.001c0 23.333 8 41.666 24 54.999s36.667 20 62 20s46 -6.66699 62 -20s24 -31.666 24 -54.999c0 -22.667 -8 -40.667 -24 -54s-36.667 -20 -62 -20s-46 6.66699 -62 20s-24 31.333 -24 54z" />
    <glyph glyph-name="j" unicode="j" horiz-adv-x="320" 
d="M97 429l-66.001 8v39c10 4.66699 22.333 9 37 13s30.334 7.5 47.001 10.5s33.167 5.5 49.5 7.5s30.5 3.66699 42.5 5h34v-469c0 -31.333 -3.83301 -59.333 -11.5 -84s-17.667 -46 -30 -64s-26 -33.333 -41 -46s-29.667 -23.167 -44 -31.5s-27.5 -14.833 -39.5 -19.5
s-21.333 -8 -28 -10l-20 30c8 4 16 10.5 24 19.5s15.5 21.5 22.5 37.5s12.667 36.167 17 60.5s6.5 53.833 6.5 88.5v405zM79.999 664c0 23.333 8 41.666 24 54.999s36.667 20 62 20s46 -6.66699 62 -20s24 -31.666 24 -54.999c0 -22.667 -8 -40.667 -24 -54
s-36.667 -20 -62 -20s-46 6.66699 -62 20s-24 31.333 -24 54z" />
    <glyph glyph-name="k" unicode="k" horiz-adv-x="583" 
d="M322 500l234.001 0.000976562v-39c-12.667 -5.33301 -24.5 -10 -35.5 -14s-23.167 -7.33301 -36.5 -10c-10 -13.333 -20.833 -26.5 -32.5 -39.5l-35 -37.5l-33.5 -34.5l-29 -29.5l35 -48l43 -59.5l48.5 -64c17 -21.667 34.167 -42.167 51.5 -61.5l51 -24v-39h-169l-27 24
c-15.333 20.667 -28.833 40 -40.5 58s-22.167 35.333 -31.5 52l-27 48.5l-26 46.5l-33 10v-176c11.333 -2 21.666 -5 30.999 -9s19.333 -9 30 -15v-39h-271v39c22 10.667 44 18.667 66 24v606l-76 8v39c9.33301 4 22 8 38 12s33 7.5 51 10.5s35.667 5.66699 53 8
s32 4.16602 44 5.49902h34v-469h26c22 23.333 42.5 49 61.5 77l50.5 77c-8.66699 2.66699 -16.5 6 -23.5 10s-14.167 8.66699 -21.5 14v39z" />
    <glyph glyph-name="l" unicode="l" horiz-adv-x="332" 
d="M307 0l-276.001 0.000976562v39c22 10.667 44 18.667 66 24v606l-76 8v39c8.66699 4 20.667 8 36 12s31.833 7.5 49.5 10.5s35.334 5.66699 53.001 8s33.5 4.16602 47.5 5.49902h34v-689c22 -5.33301 44 -13.333 66 -24v-39z" />
    <glyph glyph-name="m" unicode="m" horiz-adv-x="924" 
d="M594 0h-250.002v39c6.66699 4 14.167 8.16699 22.5 12.5s17.5 8.16602 27.5 11.499v199c0 30.667 -0.833008 56.667 -2.5 78s-5.16699 38.833 -10.5 52.5s-12.666 23.667 -21.999 30s-21.333 9.5 -36 9.5c-21.333 0 -39.833 -8.16699 -55.5 -24.5
s-27.167 -37.833 -34.5 -64.5v-280c18 -5.33301 34.667 -13.333 50 -24v-39h-260v39c9.33301 4.66699 19.666 9 30.999 13s23 7.66699 35 11v366l-66 8v39c10.667 4.66699 23.834 9 39.501 13s31.834 7.5 48.501 10.5s32.834 5.5 48.501 7.5l39.5 5h34v-113h1
c10.667 31.333 29.5 58 56.5 80s59.5 33 97.5 33c16 0 31.667 -1.66699 47 -5s29.5 -9.5 42.5 -18.5s24.167 -21.5 33.5 -37.5s16 -36.667 20 -62c12 36.667 32 66.334 60 89.001s62 34 102 34c24.667 0 46.5 -3.16699 65.5 -9.5s35 -17.5 48 -33.5s22.833 -37.667 29.5 -65
s10 -62 10 -104v-237c22.667 -4 44.667 -12 66 -24v-39h-260v39c15.333 10 32 18 50 24v217c0 52 -4.83301 90.333 -14.5 115s-30.5 37 -62.5 37c-24 0 -42.833 -9 -56.5 -27s-23.834 -42 -30.501 -72v-270c11.333 -3.33301 21.5 -7 30.5 -11s17.5 -8.33301 25.5 -13v-39z
" />
    <glyph glyph-name="n" unicode="n" horiz-adv-x="644" 
d="M632 0l-265 0.00195312v39c8.66699 4.66699 17.167 8.83398 25.5 12.501s18.166 7.5 29.499 11.5v235c0 42 -6 74.833 -18 98.5s-33.333 35.5 -64 35.5c-25.333 0 -47.166 -8.16699 -65.499 -24.5s-32.166 -38.5 -41.499 -66.5v-278
c10.667 -2.66699 20.167 -5.83398 28.5 -9.50098s17.166 -8.5 26.499 -14.5v-39h-265v39c16.667 8.66699 38.667 16.667 66 24v366l-66 8v39c8.66699 4 20 7.83301 34 11.5s29.167 7.16699 45.5 10.5s33 6.16602 50 8.49902s32.5 4.16602 46.5 5.49902h34v-103h1
c14 28 35 52.167 63 72.5s62 30.5 102 30.5c26 0 49.333 -3.16699 70 -9.5s38.167 -17.5 52.5 -33.5s25.333 -37.5 33 -64.5s11.5 -61.167 11.5 -102.5v-239c26.667 -4.66699 48.667 -12.667 66 -24v-39z" />
    <glyph glyph-name="o" unicode="o" horiz-adv-x="594" 
d="M31 250c0 40.667 6.16406 77.167 18.4971 109.5s30 59.833 53 82.5s50.833 40 83.5 52s69.667 18 111 18c46.667 0 86.834 -6.5 120.501 -19.5s61.334 -31 83.001 -54s37.5 -50.667 47.5 -83s15 -67.5 15 -105.5c0 -40.667 -6 -77.167 -18 -109.5
s-29.5 -59.833 -52.5 -82.5s-51 -40 -84 -52s-70.167 -18 -111.5 -18c-45.333 0 -84.666 6.5 -117.999 19.5s-61 31 -83 54s-38.333 50.667 -49 83s-16 67.5 -16 105.5zM185.997 250c0 -30 1.83301 -57.501 5.5 -82.501s10.167 -46.167 19.5 -63.5s22 -30.833 38 -40.5
s36.667 -14.5 62 -14.5c14.667 0 28 3.5 40 10.5s22.333 18.333 31 34s15.167 36.334 19.5 62.001s6.5 57.167 6.5 94.5c0 30.667 -1.83301 58.334 -5.5 83.001s-10 45.667 -19 63s-21.167 30.833 -36.5 40.5s-34.666 14.5 -57.999 14.5c-17.333 0 -32.333 -3.5 -45 -10.5
s-23.334 -18.333 -32.001 -34s-15.167 -36.334 -19.5 -62.001s-6.5 -57.167 -6.5 -94.5z" />
    <glyph glyph-name="p" unicode="p" horiz-adv-x="609" 
d="M297 -200h-276.001v39c22.667 10.667 44.667 18.667 66 24v566l-66 8v39c10.667 4.66699 23.834 9 39.501 13s31.834 7.5 48.501 10.5s32.834 5.5 48.501 7.5l39.5 5h34v-112h1c11.333 32 29.166 58.667 53.499 80s58.166 32 101.499 32
c29.333 0 55.833 -4.83301 79.5 -14.5s43.667 -24.667 60 -45s29 -46.333 38 -78s13.5 -69.5 13.5 -113.5c0 -42 -5.83301 -80 -17.5 -114s-28.334 -62.667 -50.001 -86s-48 -41.333 -79 -54s-66.167 -19 -105.5 -19c-22.667 0 -40.5 1.5 -53.5 4.5
s-26.833 8.16699 -41.5 15.5v-145c10.667 -1.33301 21.334 -3.83301 32.001 -7.5s22 -9.16699 34 -16.5v-39zM328.999 432c-22.667 0 -42.833 -8.00195 -60.5 -24.002s-30.167 -40.667 -37.5 -74v-266c10.667 -8 22 -13.833 34 -17.5s27.667 -5.5 47 -5.5
c38 0 66 18.333 84 55s27 90.334 27 161.001c0 54.667 -6.83301 96.834 -20.5 126.501s-38.167 44.5 -73.5 44.5z" />
    <glyph glyph-name="q" unicode="q" horiz-adv-x="589" 
d="M367 89c-4.66699 -13.333 -11.335 -25.999 -20.002 -37.999s-19 -22.667 -31 -32s-25.833 -16.833 -41.5 -22.5s-33.167 -8.5 -52.5 -8.5c-60.667 0 -107.667 20.667 -141 62s-50 103.666 -50 186.999c0 91.333 24.5 159.5 73.5 204.5s118.5 67.5 208.5 67.5
c18.667 0 38.334 -1 59.001 -3s40.334 -4.5 59.001 -7.5s35.5 -6.33301 50.5 -10s26.167 -7.16699 33.5 -10.5v-615c22 -4 44 -12 66 -24v-39h-276v39c20.667 10.667 42.667 18.667 66 24v226h-4zM271.999 68.001c50 0 83 32 99 96v274c-11.333 3.33301 -23.333 6.5 -36 9.5
s-26.667 4.5 -42 4.5c-38.667 0 -66.167 -15.333 -82.5 -46s-24.5 -83 -24.5 -157c0 -58 6 -102.667 18 -134s34.667 -47 68 -47z" />
    <glyph glyph-name="r" unicode="r" horiz-adv-x="431" 
d="M290 385c-8 -4 -17.3311 -10.668 -27.998 -20.001s-20.334 -24.666 -29.001 -45.999v-256c13.333 -1.33301 26.666 -3.83301 39.999 -7.5s26.666 -9.16699 39.999 -16.5v-39h-290v39c12 6.66699 23.333 11.667 34 15s21.334 6.33301 32.001 9v366l-66 8v39
c10.667 4.66699 23.834 9 39.501 13s31.834 7.5 48.501 10.5s32.834 5.5 48.501 7.5l39.5 5h34v-133h4c5.33301 14.667 13.166 30 23.499 46s22.5 30.667 36.5 44s29.333 24 46 32s34 11.667 52 11c7.33301 -9.33301 13.666 -22.5 18.999 -39.5
s9.66602 -33.167 12.999 -48.5v-39h-137z" />
    <glyph glyph-name="s" unicode="s" horiz-adv-x="452" 
d="M288 109c0 17.333 -6.16602 32.3369 -18.499 45.0039s-27.666 24.334 -45.999 35.001s-38.333 21.334 -60 32.001s-41.667 23.167 -60 37.5s-33.666 31.166 -45.999 50.499s-18.5 43 -18.5 71c0 20 4.66699 38.167 14 54.5s22 30.166 38 41.499
s35.167 20.166 57.5 26.499s46.5 9.5 72.5 9.5c36 0 69.5 -2.83301 100.5 -8.5s58.167 -13.5 81.5 -23.5c-2.66699 -21.333 -8 -44.166 -16 -68.499s-15.667 -46.5 -23 -66.5h-34l-42 102c-8 3.33301 -16.333 5.5 -25 6.5s-18.334 1.5 -29.001 1.5
c-20 0 -35.167 -5.83301 -45.5 -17.5s-15.5 -24.834 -15.5 -39.501c0 -16.667 6.16699 -31.167 18.5 -43.5s27.666 -23.833 45.999 -34.5s38.333 -21.334 60 -32.001s41.667 -22.834 60 -36.501s33.666 -29.834 45.999 -48.501s18.5 -41 18.5 -67
c0 -46 -18.667 -82.167 -56 -108.5s-87.333 -39.5 -150 -39.5c-32 0 -65 3.33301 -99 10s-63.333 16 -88 28c1.33301 24 7 48.333 17 73s20.667 46.667 32 66h34l49 -109c7.33301 -5.33301 15.5 -8.5 24.5 -9.5s17.5 -1.5 25.5 -1.5c19.333 0 37 5.66699 53 17s24 27 24 47z
" />
    <glyph glyph-name="t" unicode="t" horiz-adv-x="399" 
d="M8 476c25.333 16 51.998 27.3311 79.998 33.998v81c4 4 10.833 7.83301 20.5 11.5s20 7 31 10l32.5 8.5c10.667 2.66699 19.334 4.66699 26.001 6h34v-127h132v-63h-132v-259c0 -41.333 5.16699 -70 15.5 -86s27.5 -24 51.5 -24c12 0 25.5 0.833008 40.5 2.5
s28.833 4.83398 41.5 9.50098l7 -33c-6 -6 -14.833 -12.333 -26.5 -19s-25 -13 -40 -19s-31.333 -11 -49 -15s-36.167 -6 -55.5 -6c-43.333 0 -75.666 11.333 -96.999 34s-32 59.334 -32 110.001v305h-80v39z" />
    <glyph glyph-name="u" unicode="u" horiz-adv-x="622" 
d="M71 198c0 42 0.998047 81 2.99805 117s3 74 3 114l-66 8v39c10.667 4 23.834 8 39.501 12s31.834 7.5 48.501 10.5s32.834 5.66699 48.501 8s28.834 4.16602 39.501 5.49902h34c0 -50 -1 -99.167 -3 -147.5s-3 -95.833 -3 -142.5c0 -54.667 5.5 -94 16.5 -118
s31.5 -36 61.5 -36c20.667 0 39.834 7.83301 57.501 23.5s32.167 40.834 43.5 75.501v262l-65 8v39c10 4 22.5 8 37.5 12s30.667 7.5 47 10.5s32.5 5.66699 48.5 8s30 4.16602 42 5.49902h34v-441l66 -8v-35c-9.33301 -4 -21 -8 -35 -12s-28.667 -7.83301 -44 -11.5
s-30.5 -6.66699 -45.5 -9s-28.5 -4.16602 -40.5 -5.49902h-34l-7 119h-4c-3.33301 -14 -9.33301 -28.167 -18 -42.5s-19.834 -27.333 -33.501 -39s-29.834 -21.167 -48.501 -28.5s-39.334 -11 -62.001 -11c-25.333 0 -47.833 3.16699 -67.5 9.5s-36.5 17.5 -50.5 33.5
s-24.667 37.5 -32 64.5s-11 61.167 -11 102.5z" />
    <glyph glyph-name="v" unicode="v" horiz-adv-x="539" 
d="M243 -12l-199.999 448.999c-19.333 6.66699 -37 14.667 -53 24v39h263v-38c-8.66699 -4.66699 -17.5 -9.16699 -26.5 -13.5s-19.167 -8.16602 -30.5 -11.499l93 -256l19 -67h2l16 68l85 255c-10.667 2.66699 -20.5 6 -29.5 10s-17.5 8.66699 -25.5 14v39h193v-39
c-6.66699 -4.66699 -14.834 -9 -24.501 -13s-20.5 -7.66699 -32.5 -11l-175 -437z" />
    <glyph glyph-name="w" unicode="w" horiz-adv-x="784" 
d="M200 -12l-157.001 448.999c-9.33301 3.33301 -18.5 6.83301 -27.5 10.5s-17.5 8.16699 -25.5 13.5v39h253v-38c-9.33301 -5.33301 -18.666 -10.166 -27.999 -14.499s-19 -7.83301 -29 -10.5l69 -256l13 -77h2l18 80l106 310l49 6l114 -317l21 -79h2l16 78l60 255
c-7.33301 1.33301 -15.833 4 -25.5 8s-19.5 9.33301 -29.5 16v39h193v-39c-14 -9.33301 -33 -17.333 -57 -24l-139 -437l-94 -12l-86 247l-19 83h-3l-23 -83l-80 -235z" />
    <glyph glyph-name="x" unicode="x" horiz-adv-x="560" 
d="M343 268l157.999 -204.999c17.333 -5.33301 33.666 -13.333 48.999 -24v-39h-255v38c7.33301 5.33301 14.833 10.166 22.5 14.499s15.5 7.83301 23.5 10.5l-95 136l-92 -136c9.33301 -3.33301 17.5 -7 24.5 -11s13.833 -8.33301 20.5 -13v-39h-189v39l25.5 14
c7.66699 4 16.5 7.33301 26.5 10l148 184l-149 190c-9.33301 3.33301 -17.666 6.83301 -24.999 10.5s-14 8.16699 -20 13.5v39h251v-38l-21.5 -14.5c-6.33301 -4.33301 -14.166 -7.83301 -23.499 -10.5l87 -124l83 124c-11.333 3.33301 -20.333 7 -27 11
s-12.667 8.33301 -18 13v39h185v-39c-6.66699 -4.66699 -14 -9 -22 -13s-18 -7.66699 -30 -11z" />
    <glyph glyph-name="y" unicode="y" horiz-adv-x="528" 
d="M38 437c-10 2.66699 -19.166 5.99902 -27.499 9.99902s-16.833 8.66699 -25.5 14v39h263v-38c-14 -9.33301 -33 -17.666 -57 -24.999l101 -251l17 -64h2l16 65l78 250c-20 4 -38.333 12 -55 24v39h193v-39c-14 -9.33301 -33 -17.333 -57 -24l-163 -437
c-16 -42.667 -32 -77.5 -48 -104.5s-32 -48.5 -48 -64.5s-32 -27.167 -48 -33.5s-32 -10.5 -48 -12.5c-6.66699 6 -12.667 13.5 -18 22.5s-10 18.667 -14 29s-7.33301 20.833 -10 31.5s-4.33398 20.667 -5.00098 30l13 24h122c6 9.33301 11.167 19.333 15.5 30
s9.5 26.667 15.5 48z" />
    <glyph glyph-name="z" unicode="z" horiz-adv-x="516" 
d="M453 185c7.33301 -27.333 13.667 -57.668 19 -91.001s7.33301 -64.666 6 -93.999h-446v39l285 404h-166l-44 -118h-34c-7.33301 28.667 -13.333 59 -18 91s-7 60 -7 84h430v-39l-286 -404h173l54 128h34z" />
    <glyph glyph-name="braceleft" unicode="{" horiz-adv-x="354" 
d="M123 102c0 34 -7 60.667 -21 80s-33.667 29 -59 29v48c25.333 0 45 10.167 59 30.5s21 45.166 21 74.499v230c0 32 8 57.667 24 77s40 29 72 29h121v-55h-35c-18 0 -31.167 -4.66699 -39.5 -14s-12.5 -24.666 -12.5 -45.999v-220c0 -22 -3.5 -40.667 -10.5 -56
s-16 -27.833 -27 -37.5s-22.833 -17 -35.5 -22s-25 -8.16699 -37 -9.5v-6c11.333 -1.33301 23.5 -4.66602 36.5 -9.99902s25 -13.333 36 -24s20 -23.834 27 -39.501s10.5 -34.167 10.5 -55.5v-220c0 -20.667 4 -35.834 12 -45.501s21.667 -14.5 41 -14.5h34v-55h-121
c-30 0 -53.5 8.83301 -70.5 26.5s-25.5 43.834 -25.5 78.501v227z" />
    <glyph glyph-name="bar" unicode="|" horiz-adv-x="235" 
d="M83 700h70v-830h-70v830z" />
    <glyph glyph-name="braceright" unicode="}" horiz-adv-x="354" 
d="M244 369c0 -34 6.99902 -60.667 20.999 -80s33.667 -29 59 -29v-48c-25.333 0 -45 -10.167 -59 -30.5s-21 -45.166 -21 -74.499v-231c0 -32 -8 -57.667 -24 -77s-40 -29 -72 -29h-121v55h35c18 0 31.167 4.66699 39.5 14s12.5 24.666 12.5 45.999v221c0 22 3 40.667 9 56
s13.833 27.833 23.5 37.5s20.334 17 32.001 22s23.5 8.16699 35.5 9.5v6c-11.333 1.33301 -23 4.66602 -35 9.99902s-22.833 13.333 -32.5 24s-17.5 23.834 -23.5 39.501s-9 34.167 -9 55.5v219c0 20.667 -4 35.834 -12 45.501s-21.667 14.5 -41 14.5h-34v55h122
c30 0 53.333 -8.83301 70 -26.5s25 -43.834 25 -78.501v-226z" />
    <glyph glyph-name="asciitilde" unicode="~" horiz-adv-x="530" 
d="M46 312c18 38.667 40.3301 68.167 66.9971 88.5s52.334 30.5 77.001 30.5c16.667 0 33 -3.5 49 -10.5s31.667 -14.833 47 -23.5s30.833 -16.5 46.5 -23.5s31.834 -10.5 48.501 -10.5c12 0 24.5 2.5 37.5 7.5s26.167 13.833 39.5 26.5l23 -30
c-15.333 -32 -34 -55.833 -56 -71.5s-44.333 -23.5 -67 -23.5c-17.333 0 -34.166 3.5 -50.499 10.5s-32.5 14.833 -48.5 23.5s-32 16.5 -48 23.5s-32 10.5 -48 10.5c-14.667 0 -29.5 -4 -44.5 -12s-30.167 -22.333 -45.5 -43z" />
    <glyph glyph-name="uni00A0" unicode="&#xa0;" horiz-adv-x="270" 
 />
    <glyph glyph-name="cent" unicode="&#xa2;" 
d="M521 81c-8.66699 -23.333 -26 -43.3369 -52 -60.0039s-57 -26.667 -93 -30v-161h-77v161c-80.667 8.66699 -141.334 35.834 -182.001 81.501s-61 104.834 -61 177.501c0 74.667 20.833 133.834 62.5 177.501s101.834 70.5 180.501 80.5v152h77v-149
c30 -1.33301 57.333 -5.16602 82 -11.499s45.667 -13.833 63 -22.5c-1.33301 -11.333 -3.16602 -23.833 -5.49902 -37.5s-5 -27.334 -8 -41.001s-6.5 -27 -10.5 -40s-8 -23.833 -12 -32.5h-34l-36 119c-3.33301 1.33301 -6.83301 2.83301 -10.5 4.5
s-10.167 2.83398 -19.5 3.50098l-16 1v-384c5.33301 -1.33301 10.5 -2 15.5 -2h15.5c23.333 0 43.666 3.33301 60.999 10s32 14.667 44 24zM211 257.996c0 -39.333 7.5 -74.168 22.5 -104.501s39.167 -53.166 72.5 -68.499v361c-27.333 -10 -50 -29.667 -68 -59
s-27 -72.333 -27 -129z" />
    <glyph glyph-name="sterling" unicode="&#xa3;" 
d="M40 375l76.999 -0.00195312c-13.333 20.667 -25.333 43.5 -36 68.5s-16 55.167 -16 90.5c0 28 5.66699 53 17 75s27 40.667 47 56s43.833 27 71.5 35s58.167 12 91.5 12c20 0 40.667 -1.16699 62 -3.5s41.5 -5.16602 60.5 -8.49902s36.5 -7.33301 52.5 -12
s28.667 -9.33398 38 -14.001c-0.666992 -10.667 -2.16699 -24 -4.5 -40s-5 -32.5 -8 -49.5s-6.5 -33.5 -10.5 -49.5s-7.66699 -29.667 -11 -41h-34l-40 137c-24 10.667 -53.667 16 -89 16c-25.333 0 -46 -6.16699 -62 -18.5s-26 -30.5 -30 -54.5
c-2.66699 -12.667 -3 -26.667 -1 -42c2 -14.667 5 -28.667 9 -42s8.83301 -26.333 14.5 -39l17 -38l16.5 -38h125v-61h-108c2.66699 -20.667 1.5 -39 -3.5 -55s-11.5 -31.667 -19.5 -47c-2.66699 -13.333 -7.5 -26.333 -14.5 -39s-16.5 -23.667 -28.5 -33l-33 -24v-4l51 6
h177l49 112h34c2 -15.333 4.16699 -33.666 6.5 -54.999s4.5 -43 6.5 -65s3.66699 -42.833 5 -62.5s2 -35.5 2 -47.5h-478v54c38.667 16.667 68.334 36.5 89.001 59.5s32.667 51.833 36 86.5c1.33301 7.33301 2 14.5 2 21.5v21.5c-1.33301 13.333 -3.5 25.833 -6.5 37.5
s-6.5 22.834 -10.5 33.501h-113v61z" />
    <glyph glyph-name="yen" unicode="&#xa5;" 
d="M379 700l240.001 0.000976562v-38c-9.33301 -6 -21.166 -11.833 -35.499 -17.5s-27.833 -9.5 -40.5 -11.5l-151 -291h117v-65h-142v-57h142v-65h-142v-88c12.667 -1.33301 25.667 -4.83301 39 -10.5s25.666 -11.834 36.999 -18.501v-38h-308v38c11.333 6 24 11.667 38 17
s28.667 9.33301 44 12v88h-143v65h143v57h-143v65h115l-163 291c-15.333 2.66699 -29.833 6.66699 -43.5 12s-26.167 11 -37.5 17v38h328v-38c-8.66699 -5.33301 -19.167 -10.666 -31.5 -15.999s-26.5 -9.66602 -42.5 -12.999l132 -282l128 282
c-15.333 3.33301 -29.833 7.66602 -43.5 12.999s-25.834 10.666 -36.501 15.999v38z" />
    <glyph glyph-name="dieresis" unicode="&#xa8;" horiz-adv-x="505" 
d="M60 659c0 21.333 6.66699 38.333 20 51s31 19 53 19c21.333 0 38.833 -6.33301 52.5 -19s20.5 -29.667 20.5 -51c0 -20 -6.83301 -36.333 -20.5 -49s-31.167 -19 -52.5 -19c-22 0 -39.667 6.33301 -53 19s-20 29 -20 49zM299 659c0 21.333 6.66699 38.333 20 51
s30.666 19 51.999 19c22 0 39.833 -6.33301 53.5 -19s20.5 -29.667 20.5 -51c0 -20 -6.83301 -36.333 -20.5 -49s-31.5 -19 -53.5 -19c-21.333 0 -38.666 6.33301 -51.999 19s-20 29 -20 49z" />
    <glyph glyph-name="copyright" unicode="&#xa9;" horiz-adv-x="819" 
d="M55 290c0 55.333 9.83301 104.833 29.5 148.5s46 80.5 79 110.5s70.667 53 113 69s86.5 24 132.5 24s90.167 -8 132.5 -24s80 -39 113 -69s59.333 -66.833 79 -110.5s29.5 -93.167 29.5 -148.5s-9.83301 -104.833 -29.5 -148.5s-46 -80.5 -79 -110.5
s-70.667 -53 -113 -69s-86.5 -24 -132.5 -24c-48 0 -93.5 8 -136.5 24s-80.667 39 -113 69s-57.833 66.833 -76.5 110.5s-28 93.167 -28 148.5zM122 290c0 -44.667 7.66504 -85 22.998 -121s36 -66.5 62 -91.5s56.333 -44.333 91 -58s71.667 -20.5 111 -20.5
c40.667 0 78.5 6.83301 113.5 20.5s65.333 33 91 58s45.834 55.5 60.501 91.5s22 76.333 22 121c0 46 -8 87 -24 123s-37.167 66.5 -63.5 91.5s-56.833 44 -91.5 57s-70.667 19.5 -108 19.5c-42 0 -80.5 -6.83301 -115.5 -20.5s-65.167 -33 -90.5 -58
s-45.166 -55.5 -59.499 -91.5s-21.5 -76.333 -21.5 -121zM514.998 220l34.001 0.000976562c1.33301 -5.33301 2.83301 -12.166 4.5 -20.499s3 -17.5 4 -27.5s1.66699 -20 2 -30s0.166016 -19 -0.500977 -27c-11.333 -9.33301 -28.833 -17.166 -52.5 -23.499
s-49.167 -9.5 -76.5 -9.5c-32.667 0 -62.5 4.5 -89.5 13.5s-50.333 22.333 -70 40s-35 39.5 -46 65.5s-16.5 56 -16.5 90c0 34.667 6.16699 65 18.5 91s28.333 47.667 48 65s42 30.5 67 39.5s50.167 13.5 75.5 13.5c32 0 59.667 -2.83301 83 -8.5s42 -12.834 56 -21.501
c0.666992 -6 0.666992 -14 0 -24s-1.66699 -20.5 -3 -31.5s-2.83301 -21.833 -4.5 -32.5s-3.5 -19.334 -5.5 -26.001h-34l-30 83c-4.66699 3.33301 -11 5.16602 -19 5.49902s-16 0.5 -24 0.5c-30 0 -53 -12.667 -69 -38s-24 -64 -24 -116c0 -22 1.83301 -42.5 5.5 -61.5
s9.5 -35.333 17.5 -49s18.333 -24.334 31 -32.001s28 -11.5 46 -11.5c10.667 0 20 0.833008 28 2.5s13.333 3.83398 16 6.50098z" />
    <glyph glyph-name="guillemotleft" unicode="&#xab;" horiz-adv-x="505" 
d="M236 259l178 222l43 -36l-106 -179l112 -189l-42 -36zM20 259l240 223l39 -36l-144 -181l150 -189l-39 -37z" />
    <glyph glyph-name="uni00AD" unicode="&#xad;" horiz-adv-x="414" 
d="M66 327h282v-90h-282v90z" />
    <glyph glyph-name="registered" unicode="&#xae;" horiz-adv-x="703" 
d="M69 451c0 44 7.66699 83.333 23 118s36 64 62 88s56 42.333 90 55s69.667 19 107 19c38 0 74.167 -6.33301 108.5 -19s64.333 -31 90 -55s46 -53.333 61 -88s22.5 -74 22.5 -118s-7.66699 -83.333 -23 -118s-36 -64 -62 -88s-56 -42.333 -90 -55s-69.667 -19 -107 -19
c-38 0 -74.167 6.33301 -108.5 19s-64.333 31 -90 55s-46 53.333 -61 88s-22.5 74 -22.5 118zM131 451c0 -34.667 5.83398 -65.8311 17.501 -93.498s27.5 -51.334 47.5 -71.001s43.333 -34.667 70 -45s55 -15.5 85 -15.5c31.333 0 60.5 5.16699 87.5 15.5
s50.333 25.166 70 44.499s35 42.833 46 70.5s16.5 59.167 16.5 94.5c0 34.667 -5.83301 65.834 -17.5 93.501s-27.5 51.167 -47.5 70.5s-43.333 34.333 -70 45s-55 16 -85 16c-32 0 -61.333 -5.33301 -88 -16s-49.834 -25.667 -69.501 -45s-35 -42.833 -46 -70.5
s-16.5 -58.834 -16.5 -93.501zM320.001 351.003c8.66699 -0.666992 15.3291 -1.83203 19.9961 -3.49902s9.33398 -3.5 14.001 -5.5v-33h-138v33c11.333 4 23 7 35 9v215c-7.33301 0.666992 -13.666 1.83398 -18.999 3.50098s-10.666 4.16699 -15.999 7.5v31h52
c12 0 26.333 0.666992 43 2s30.334 2 41.001 2c36 0 65.333 -6.5 88 -19.5s34 -34.5 34 -64.5c0 -20.667 -6.33301 -37.5 -19 -50.5s-28.334 -22.5 -47.001 -28.5l16.5 -27c5 -8 10.167 -15.833 15.5 -23.5s11.5 -15.334 18.5 -23.001s15.167 -15.834 24.5 -24.501l23 -12
v-30h-64l-28 11c-16.667 20 -29.167 40 -37.5 60s-16.166 39.667 -23.499 59h-33v-88zM346.996 571.005c-7.33301 0 -12.667 -0.167969 -16 -0.500977s-7 -1.16602 -11 -2.49902v-91h29c16 0 28.333 4 37 12s12.667 21 12 39c-0.666992 15.333 -5.5 26.333 -14.5 33
s-21.167 10 -36.5 10z" />
    <glyph glyph-name="macron" unicode="&#xaf;" horiz-adv-x="414" 
d="M60 619v70h294v-70h-294z" />
    <glyph glyph-name="acute" unicode="&#xb4;" horiz-adv-x="351" 
d="M168 763c5.33301 1.33301 14.168 1.83301 26.501 1.5s25.166 -1.5 38.499 -3.5s25.5 -4.83301 36.5 -8.5s18.167 -7.5 21.5 -11.5v-24l-191 -155l-40 22z" />
    <glyph glyph-name="cedilla" unicode="&#xb8;" horiz-adv-x="318" 
d="M134 -68c40 -2 70.498 -9.16797 91.498 -21.501s31.833 -30.5 32.5 -54.5c0 -19.333 -5.66699 -36 -17 -50s-26.333 -25.667 -45 -35s-39.667 -16.333 -63 -21s-46.666 -7 -69.999 -7v39c46.667 7.33301 70 26.333 70 57c-0.666992 15.333 -7.16699 26.333 -19.5 33
s-30.166 11.334 -53.499 14.001l41 115h59z" />
    <glyph glyph-name="ordmasculine" unicode="&#xba;" horiz-adv-x="458" 
d="M37 542c0 26 4.66699 49.333 14 70s22.5 38.5 39.5 53.5s37.167 26.5 60.5 34.5s49.333 12 78 12s54.834 -3.5 78.501 -10.5s43.834 -17.5 60.501 -31.5s29.667 -31.667 39 -53s14 -46.333 14 -75c0 -26 -4.66699 -49.5 -14 -70.5s-22.333 -38.833 -39 -53.5
s-36.834 -26 -60.501 -34s-49.834 -12 -78.501 -12s-54.667 3.5 -78 10.5s-43.5 17.5 -60.5 31.5s-30.167 31.667 -39.5 53s-14 46.333 -14 75zM157 542c0 -79.333 24.001 -119 72.001 -119c23.333 0 41.166 8.83301 53.499 26.5s18.5 48.5 18.5 92.5
s-6.16699 74.833 -18.5 92.5s-30.166 26.5 -53.499 26.5c-24.667 0 -42.834 -8.83301 -54.501 -26.5s-17.5 -48.5 -17.5 -92.5z" />
    <glyph glyph-name="guillemotright" unicode="&#xbb;" horiz-adv-x="505" 
d="M87 41l-42 36l109 182l-109 186l42 36l182 -220zM242 40l-39 37l147 182l-147 187l39 36l243 -221z" />
    <glyph glyph-name="circumflex" unicode="&#x2c6;" horiz-adv-x="396" 
d="M102 577l-42 25.001l110 186c4 3.33301 12.167 5.16602 24.5 5.49902s21.5 -1.5 27.5 -5.5l114 -185l-41 -26l-103 98z" />
    <glyph glyph-name="ring" unicode="&#x2da;" horiz-adv-x="350" 
d="M60 679c0 27.333 10.168 51 30.501 71s49.5 30 87.5 30c35.333 0 62.833 -9 82.5 -27s29.5 -41.667 29.5 -71c0 -28 -10.333 -51.333 -31 -70s-48 -28 -82 -28c-38.667 0 -67.834 8.83301 -87.501 26.5s-29.5 40.5 -29.5 68.5zM135.001 681
c0 -15.333 3.66797 -27 11.001 -35s16.666 -12 27.999 -12c27.333 0 41 14.667 41 44c0 18 -3.83301 31.167 -11.5 39.5s-17.167 12.5 -28.5 12.5c-26.667 0 -40 -16.333 -40 -49z" />
    <glyph glyph-name="tilde" unicode="&#x2dc;" horiz-adv-x="445" 
d="M385 667c-20 -22.667 -40.668 -39.168 -62.001 -49.501s-39.666 -15.5 -54.999 -15.5c-12 0 -23.333 1.83301 -34 5.5s-21 7.5 -31 11.5l-29.5 11.5c-9.66699 3.66699 -19.5 5.5 -29.5 5.5c-8.66699 0 -17.5 -1.5 -26.5 -4.5s-18.833 -8.16699 -29.5 -15.5l-28 42
c24.667 25.333 48.167 43 70.5 53s41.166 15 56.499 15c12 0 23.167 -1.66699 33.5 -5s20.166 -7 29.499 -11s18.833 -7.66699 28.5 -11s19.5 -5 29.5 -5c8.66699 0 17.334 0.833008 26.001 2.5s18.334 5.83398 29.001 12.501z" />
    <glyph glyph-name="hungarumlaut" unicode="&#x2dd;" horiz-adv-x="496" 
d="M128 768c4 1.33301 11.6689 1.66699 23.002 1s23.166 -2 35.499 -4s23.666 -4.5 33.999 -7.5s16.5 -6.5 18.5 -10.5v-24l-138 -138l-41 20zM324.002 768.001c4.66699 1.33301 12.333 1.66797 23 1.00098s22 -2.33398 34 -5.00098s23.167 -6 33.5 -10
s17.5 -8.66699 21.5 -14v-22l-208 -133l-37 22z" />
    <glyph glyph-name="afii10023" unicode="&#x401;" horiz-adv-x="604" 
d="M546 700c-1.33301 -30 -3.66992 -61 -7.00293 -93s-7.66602 -62 -12.999 -90h-41l-46 118h-187v-245h122l44 77h32c3.33301 -32.667 5 -69 5 -109s-1.66699 -77.333 -5 -112h-32l-44 79h-122v-260h195l53 127h41c2.66699 -12.667 5.33398 -27 8.00098 -43
s4.83398 -32.5 6.50098 -49.5s3 -34.167 4 -51.5s1.5 -33.333 1.5 -48h-541v38c11.333 6 24 11.667 38 17s28.667 9.33301 44 12v566c-13.333 2.66699 -27.5 6.5 -42.5 11.5s-28.167 10.833 -39.5 17.5v38h526zM94.9961 793c0 21.333 7.66699 37.333 23 48
s34.666 16 57.999 16s42.666 -5.33301 57.999 -16s23 -26.667 23 -48c0 -18.667 -7.66699 -33.167 -23 -43.5s-34.666 -15.5 -57.999 -15.5s-42.666 5.16699 -57.999 15.5s-23 24.833 -23 43.5zM339.996 793c0 21.333 7.83301 37.333 23.5 48s35.167 16 58.5 16
s42.666 -5.33301 57.999 -16s23 -26.667 23 -48c0 -18.667 -7.66699 -33.167 -23 -43.5s-34.666 -15.5 -57.999 -15.5s-42.833 5.16699 -58.5 15.5s-23.5 24.833 -23.5 43.5z" />
    <glyph glyph-name="afii10051" unicode="&#x402;" horiz-adv-x="803" 
d="M776 234c0 -48 -5.66406 -87.499 -16.9971 -118.499s-27.833 -55.5 -49.5 -73.5s-48 -30.333 -79 -37s-66.167 -9.33398 -105.5 -8.00098l-6 45c18.667 4 34.667 9.5 48 16.5s24.333 16.667 33 29s15.167 28.166 19.5 47.499s6.5 43.666 6.5 72.999
c0 23.333 -1.5 44.333 -4.5 63s-8.33301 34.667 -16 48s-18.334 23.666 -32.001 30.999s-31.5 11 -53.5 11s-42.833 -3.16699 -62.5 -9.5s-37.834 -14.5 -54.501 -24.5v-260c11.333 -3.33301 22 -7.66602 32 -12.999s19.333 -10.666 28 -15.999v-38h-307v38
c13.333 5.33301 28.5 10.833 45.5 16.5s34.167 9.83398 51.5 12.501v568h-116l-64 -171h-41c-2.66699 13.333 -5.33398 30.333 -8.00098 51s-5 42 -7 64s-3.66699 43.833 -5 65.5s-2 40.167 -2 55.5h637c0 -16 -0.666992 -33.167 -2 -51.5s-3 -36.666 -5 -54.999
s-4.33301 -36 -7 -53s-5.33398 -32.5 -8.00098 -46.5h-42l-64 141h-116v-248c18.667 10.667 43.667 20.667 75 30s65.666 14 102.999 14c26.667 0 51.834 -2.83301 75.501 -8.5s44.334 -15.834 62.001 -30.501s31.667 -34.667 42 -60s15.5 -58 15.5 -98z" />
    <glyph glyph-name="afii10052" unicode="&#x403;" horiz-adv-x="543" 
d="M252 67c16.667 -2.66699 33.168 -6.66895 49.501 -12.002s31.833 -11 46.5 -17v-38h-328v38c29.333 14.667 56.666 24.334 81.999 29.001v566c-13.333 2.66699 -27.166 6.33398 -41.499 11.001s-27.833 10.667 -40.5 18v38h512c0 -16 -0.333008 -34.333 -1 -55
s-1.66699 -42 -3 -64s-3.33301 -43.5 -6 -64.5s-5.33398 -39.833 -8.00098 -56.5h-41l-63 175h-158v-568zM366.001 897.998c10.667 0.666992 22.833 0.00195312 36.5 -1.99805s27 -4.83301 40 -8.5s24.667 -7.83398 35 -12.501s17.5 -9.33398 21.5 -14.001v-20l-247 -96
l-28 24z" />
    <glyph glyph-name="afii10053" unicode="&#x404;" horiz-adv-x="645" 
d="M540 210l40.998 0.000976562c2.66699 -10.667 5.16699 -23.5 7.5 -38.5s4.33301 -31 6 -48s2.83398 -33.833 3.50098 -50.5s1 -31.667 1 -45c-23.333 -14.667 -52.5 -25 -87.5 -31s-70.833 -9 -107.5 -9c-55.333 0 -105.5 6.83301 -150.5 20.5
s-83.333 35.334 -115 65.001s-56.167 67.334 -73.5 113.001s-26 100.5 -26 164.5c0 63.333 9.5 117.833 28.5 163.5s44.5 83.167 76.5 112.5s69.167 50.833 111.5 64.5s86.833 20.5 133.5 20.5c44 0 83.833 -3.16699 119.5 -9.5s64.834 -14.833 87.501 -25.5
c0 -10.667 -0.5 -24.334 -1.5 -41.001s-2.66699 -34.167 -5 -52.5s-5 -36.333 -8 -54s-5.83301 -32.5 -8.5 -44.5h-42l-55 151c-6 3.33301 -15.667 6 -29 8s-27 3 -41 3c-26 0 -50.667 -5 -74 -15s-44 -25.833 -62 -47.5s-32.667 -49.334 -44 -83.001
s-18 -73.834 -20 -120.501l269 16c6 -16 9.16699 -34 9.5 -54s-1.16699 -36.667 -4.5 -50c-41.333 6 -86.333 10.5 -135 13.5s-95 5.16699 -139 6.5c4.66699 -83.333 25.5 -147.5 62.5 -192.5s86.5 -67.5 148.5 -67.5c18.667 0 34.5 1.5 47.5 4.5s21.833 7.16699 26.5 12.5z
" />
    <glyph glyph-name="afii10054" unicode="&#x405;" horiz-adv-x="558" 
d="M157 83c7.33301 -7.33301 17.6699 -14.1729 31.0029 -20.5059s31 -9.5 53 -9.5c36.667 0 67.167 9.5 91.5 28.5s36.5 45.5 36.5 79.5c0 24.667 -7.83301 45.334 -23.5 62.001s-35.5 32 -59.5 46s-49.667 27.833 -77 41.5s-53 29.834 -77 48.501
s-43.833 40.834 -59.5 66.501s-23.5 57.5 -23.5 95.5c0 32.667 6 61 18 85s28.5 43.833 49.5 59.5s45.833 27.334 74.5 35.001s59.667 11.5 93 11.5c40.667 0 78.5 -2.83301 113.5 -8.5s66.5 -14.5 94.5 -26.5c-0.666992 -13.333 -1.83398 -28.666 -3.50098 -45.999
s-3.83398 -34.5 -6.50098 -51.5s-5.5 -33 -8.5 -48s-5.83301 -27.5 -8.5 -37.5h-41l-46 137c-8 4 -19.833 7.66699 -35.5 11s-31.834 5 -48.501 5c-28 0 -51.667 -7.33301 -71 -22s-29 -36 -29 -64c0 -25.333 8 -46.833 24 -64.5s36 -33.834 60 -48.501
s50.167 -29.167 78.5 -43.5s54.5 -30.833 78.5 -49.5s44 -40.5 60 -65.5s24 -55.833 24 -92.5c0 -66.667 -22.5 -118.167 -67.5 -154.5s-111.167 -54.5 -198.5 -54.5c-21.333 0 -42.833 1.33301 -64.5 4s-42.167 6.33398 -61.5 11.001s-36.5 9.66699 -51.5 15
s-26.167 11 -33.5 17c0.666992 15.333 2.33398 31.833 5.00098 49.5s5.5 35.334 8.5 53.001s6.16699 34.5 9.5 50.5s6.66602 30 9.99902 42h41z" />
    <glyph glyph-name="afii10055" unicode="&#x406;" horiz-adv-x="372" 
d="M342 0h-312v38c26.667 14.667 53.667 24.334 81 29.001v566c-13.333 2 -27.333 5.66699 -42 11s-27.667 11.333 -39 18v38h312v-38c-12 -7.33301 -25.167 -13.5 -39.5 -18.5s-28.166 -8.5 -41.499 -10.5v-566c13.333 -2.66699 27.166 -6.33398 41.499 -11.001
s27.5 -10.667 39.5 -18v-38z" />
    <glyph glyph-name="afii10056" unicode="&#x407;" horiz-adv-x="372" 
d="M12 793c0 21.333 6.5 37.333 19.5 48s31.167 16 54.5 16s41.5 -5.33301 54.5 -16s19.5 -26.667 19.5 -48c0 -18.667 -6.5 -33.167 -19.5 -43.5s-31.167 -15.5 -54.5 -15.5s-41.5 5.16699 -54.5 15.5s-19.5 24.833 -19.5 43.5zM211 793c0 21.333 6.66699 37.333 20 48
s31.666 16 54.999 16c48.667 0 73 -21.333 73 -64c0 -18.667 -6.33301 -33.167 -19 -43.5s-30.667 -15.5 -54 -15.5s-41.666 5.16699 -54.999 15.5s-20 24.833 -20 43.5zM342 0h-312v38c26.667 14.667 53.667 24.334 81 29.001v566c-13.333 2 -27.333 5.66699 -42 11
s-27.667 11.333 -39 18v38h312v-38c-12 -7.33301 -25.167 -13.5 -39.5 -18.5s-28.166 -8.5 -41.499 -10.5v-566c13.333 -2.66699 27.166 -6.33398 41.499 -11.001s27.5 -10.667 39.5 -18v-38z" />
    <glyph glyph-name="afii10057" unicode="&#x408;" horiz-adv-x="365" 
d="M27 700l307.996 0.000976562v-38c-10.667 -6.66699 -22.667 -12.667 -36 -18s-26.666 -9 -39.999 -11v-512c0 -54.667 -8.16699 -99.5 -24.5 -134.5s-35.666 -62.667 -57.999 -83s-45.166 -35.166 -68.499 -44.499s-42.333 -15.666 -57 -18.999l-19 26
c10 8 19.667 18.167 29 30.5s17.5 28.166 24.5 47.499s12.667 42.833 17 70.5s6.5 61.167 6.5 100.5v518c-14.667 3.33301 -29.167 7.16602 -43.5 11.499s-27.166 10.166 -38.499 17.499v38z" />
    <glyph glyph-name="afii10058" unicode="&#x409;" horiz-adv-x="969" 
d="M373 0l-0.00195312 38.002c12 6.66699 24.333 12.5 37 17.5s25.667 8.83301 39 11.5v568h-163c-2 -101.333 -6.66699 -185.833 -14 -253.5s-16.333 -123.5 -27 -167.5s-22.5 -78.833 -35.5 -104.5s-26.5 -47.834 -40.5 -66.501
c-12.667 -17.333 -28.667 -30.833 -48 -40.5s-38 -14.5 -56 -14.5c-8.66699 3.33301 -17 10.166 -25 20.499s-15.333 22.166 -22 35.499s-12.167 27.333 -16.5 42s-6.83301 28.334 -7.5 41.001l27 38l119 -29c8.66699 18.667 17.167 41.167 25.5 67.5
s15.833 58.833 22.5 97.5s12 84.334 16 137.001s6 114.334 6 185.001c-20.667 3.33301 -40.167 8.66602 -58.5 15.999s-34.166 15 -47.499 23v38h583v-38c-12.667 -6.66699 -26.5 -12.5 -41.5 -17.5s-30.5 -8.83301 -46.5 -11.5v-214c12 2 26.333 3.66699 43 5
s31.667 2 45 2c34.667 0 67.5 -3.33301 98.5 -10s58 -18 81 -34s41.333 -37.333 55 -64s20.5 -60 20.5 -100c0 -37.333 -7.33301 -69.833 -22 -97.5s-34.667 -50.667 -60 -69s-55 -32 -89 -41s-70.333 -13.5 -109 -13.5c-3.33301 0 -10.166 0.166992 -20.499 0.5
s-22.333 0.666016 -36 0.999023l-41.5 1c-14 0.333008 -26 0.5 -36 0.5h-155zM650.998 361.002c-22 0 -39.333 -2.00098 -52 -6.00098v-289c5.33301 -1.33301 14 -2.33301 26 -3s21 -1 27 -1c38 0 68.333 12.333 91 37s34 64.334 34 119.001c0 95.333 -42 143 -126 143z" />
    <glyph glyph-name="afii10059" unicode="&#x40a;" horiz-adv-x="1037" 
d="M446 0l-0.000976562 38.0029c11.333 7.33301 22.5 13.333 33.5 18s23.5 8.33398 37.5 11.001v272h-265v-272c13.333 -2.66699 25.666 -6.33398 36.999 -11.001s22.666 -10.667 33.999 -18v-38h-303v38c11.333 6 24.5 11.667 39.5 17s29.167 9.33301 42.5 12v566
c-16 2.66699 -31.333 6.66699 -46 12s-26.667 11 -36 17v38h303v-38c-10 -6.66699 -21.167 -12.667 -33.5 -18s-24.833 -9 -37.5 -11v-229h265v229c-13.333 2.66699 -25.166 6.16699 -35.499 10.5s-22.166 10.5 -35.499 18.5v38h309v-38
c-12.667 -6.66699 -26.5 -12.5 -41.5 -17.5s-30.5 -8.83301 -46.5 -11.5v-230c12 2 26.333 3.66699 43 5s31.667 2 45 2c34.667 0 67.5 -3.16699 98.5 -9.5s58 -17.333 81 -33s41.333 -36.334 55 -62.001s20.5 -57.834 20.5 -96.501c0 -37.333 -7.33301 -69.333 -22 -96
s-34.667 -48.5 -60 -65.5s-55 -29.667 -89 -38s-70.333 -12.5 -109 -12.5c-3.33301 0 -10.166 0.166992 -20.499 0.5s-22.333 0.666016 -36 0.999023l-41.5 1c-14 0.333008 -26 0.5 -36 0.5h-150zM718.999 345.003c-22 0 -39.333 -1.99902 -52 -5.99902v-273
c5.33301 -1.33301 14 -2.33301 26 -3s21 -1 27 -1c37.333 0 67.5 11.167 90.5 33.5s34.5 60.166 34.5 113.499c0 46.667 -10.5 81 -31.5 103s-52.5 33 -94.5 33z" />
    <glyph glyph-name="afii10060" unicode="&#x40b;" horiz-adv-x="843" 
d="M403 635l-0.00292969 -250.002c18.667 11.333 42.834 21.666 72.501 30.999s63.167 14 100.5 14c26.667 0 51.667 -2.83301 75 -8.5s43.5 -15.5 60.5 -29.5s30.333 -33.167 40 -57.5s14.5 -55.166 14.5 -92.499v-175c12.667 -2 25.334 -5.66699 38.001 -11
s24 -11.333 34 -18v-38h-222v207c0 23.333 -1.16699 44.333 -3.5 63s-7 34.667 -14 48s-17.167 23.666 -30.5 30.999s-31 11 -53 11s-42 -3.16699 -60 -9.5s-35.333 -14.833 -52 -25.5v-258c11.333 -3.33301 22.333 -7.66602 33 -12.999s20.334 -10.666 29.001 -15.999v-38
h-309v38c13.333 5.33301 28.5 10.833 45.5 16.5s34.167 9.83398 51.5 12.501v568h-116l-64 -171h-41c-2.66699 13.333 -5.33398 30.333 -8.00098 51s-5 42 -7 64s-3.66699 43.833 -5 65.5s-2 40.167 -2 55.5h637c-0.666992 -32.667 -3.16699 -67.667 -7.5 -105
s-9.16602 -70.333 -14.499 -99h-42l-64 139h-116z" />
    <glyph glyph-name="afii10061" unicode="&#x40c;" horiz-adv-x="710" 
d="M399 700l267.999 -0.00292969v-38c-11.333 -7.33301 -24.333 -13.5 -39 -18.5s-28 -8.5 -40 -10.5l-190 -241l54 -72.5l66 -84l72 -88l72 -84.5l48 -29v-34h-174l-40 28c-16 20 -32.833 42.167 -50.5 66.5l-52.5 76l-51 79.5l-47 78h-43v-261
c14.667 -2.66699 28 -6.66699 40 -12s22.333 -11 31 -17v-38h-303v38c13.333 6.66699 27 12.5 41 17.5s27.667 8.83301 41 11.5v566c-15.333 2 -30.166 5.66699 -44.499 11s-26.833 11.333 -37.5 18v38h303v-38c-8.66699 -5.33301 -19.167 -10.666 -31.5 -15.999
s-25.5 -9.66602 -39.5 -12.999v-254l59 14l161 240c-13.333 2.66699 -26.5 6.83398 -39.5 12.501s-24.167 11.167 -33.5 16.5v38zM408.999 897.997c10.667 0.666992 22.833 0.00195312 36.5 -1.99805s27 -4.83301 40 -8.5s24.667 -7.83398 35 -12.501
s17.5 -9.33398 21.5 -14.001v-20l-247 -96l-28 24z" />
    <glyph glyph-name="afii10062" unicode="&#x40e;" horiz-adv-x="684" 
d="M519 633c-16 3.33301 -30.001 7.5 -42.001 12.5s-23.667 10.5 -35 16.5v38h242v-38c-7.33301 -5.33301 -17.166 -10.5 -29.499 -15.5s-26.166 -9.5 -41.499 -13.5l-191 -432c-32 -73.333 -65.333 -127.833 -100 -163.5s-71.667 -49.834 -111 -42.501
c-5.33301 5.33301 -10.833 13.5 -16.5 24.5s-11 22.667 -16 35s-9.16699 24.333 -12.5 36s-5.33301 21.5 -6 29.5l28 40l119 -37c5.33301 6 10.333 13.333 15 22s9 18.334 13 29.001l-266 459c-12.667 3.33301 -24.834 7.5 -36.501 12.5s-22.5 10.5 -32.5 16.5v38h312v-38
c-20 -12 -45.333 -21.667 -76 -29l141 -271l21 -64h2l20 66zM371.999 741c-30.667 0 -58.5 2.83594 -83.5 8.50293s-46.5 14 -64.5 25s-31.833 24.833 -41.5 41.5s-14.5 35.667 -14.5 57c12 8.66699 27.833 14.334 47.5 17.001s37.834 4.33398 54.501 5.00098l34 -18v-78
c9.33301 -4.66699 20.166 -7.83398 32.499 -9.50098s24.5 -2.5 36.5 -2.5c9.33301 0 20.833 0.666992 34.5 2s25.167 3.66602 34.5 6.99902v81l34 18c12 1.33301 27.667 0.166016 47 -3.50098s36.333 -9.83398 51 -18.501c0 -42.667 -18 -75.334 -54 -98.001
s-85.333 -34 -148 -34z" />
    <glyph glyph-name="afii10145" unicode="&#x40f;" horiz-adv-x="758" 
d="M320 662c-10.667 -6.66699 -21.332 -12.498 -31.999 -17.498s-22.667 -8.83301 -36 -11.5v-568h254v568c-17.333 3.33301 -31.333 7.66602 -42 12.999s-19.334 10.666 -26.001 15.999v38h300v-38c-14.667 -8.66699 -28.667 -15.334 -42 -20.001
s-26.666 -7.66699 -39.999 -9v-566c14 -2.66699 28 -6.16699 42 -10.5s27.333 -10.5 40 -18.5v-38h-285c-4.66699 -32 -12.167 -65.667 -22.5 -101l-29.5 -99h-44c-11.333 33.333 -21.5 67 -30.5 101s-16.167 67 -21.5 99h-285v38c12.667 7.33301 26.167 13.333 40.5 18
s28.166 8.33398 41.499 11.001v566c-18 2.66699 -33.667 6.66699 -47 12s-25 11 -35 17v38h300v-38z" />
    <glyph glyph-name="afii10017" unicode="&#x410;" horiz-adv-x="729" 
d="M247 0h-247v38c10.667 6.66699 22.167 12.5 34.5 17.5s24.5 8.83301 36.5 11.5l258 645h74l251 -645c13.333 -2.66699 26.666 -6.5 39.999 -11.5s25 -10.833 35 -17.5v-38h-313v38c12.667 6 26.334 11.667 41.001 17s28.667 9.33301 42 12l-58 159h-222l-59 -159
c30.667 -4 59.667 -13.667 87 -29v-38zM243 291h177l-65 191l-19 86h-2l-22 -88z" />
    <glyph glyph-name="afii10018" unicode="&#x411;" horiz-adv-x="641" 
d="M102 633c-31.333 5.33301 -58.6689 15.002 -82.002 29.002v38h537c0 -15.333 -0.666992 -32.333 -2 -51s-3 -37.334 -5 -56.001s-4.33301 -36.667 -7 -54s-5.33398 -33 -8.00098 -47h-41l-62 143h-180v-228l22 2.5c8.66699 1 17.5 1.83301 26.5 2.5s18 1.16699 27 1.5
s16.833 0.5 23.5 0.5c34 0 66.333 -3.66699 97 -11s57.5 -19.166 80.5 -35.499s41.333 -37.5 55 -63.5s20.5 -57.333 20.5 -94c0 -35.333 -7.16699 -66.333 -21.5 -93s-34 -48.834 -59 -66.501s-54.667 -31 -89 -40s-71.5 -13.5 -111.5 -13.5
c-3.33301 0 -11.666 0.166992 -24.999 0.5s-28.333 0.666016 -45 0.999023l-50 1c-16.667 0.333008 -30 0.5 -40 0.5h-143v38c12.667 7.33301 25.834 13.5 39.501 18.5s27.834 8.5 42.501 10.5v566zM307.997 349.002c-10.667 0 -21 -0.499023 -31 -1.49902
s-18.333 -2.5 -25 -4.5v-277c2.66699 -0.666992 6.83398 -1.33398 12.501 -2.00098s11.5 -1.16699 17.5 -1.5s11.833 -0.5 17.5 -0.5h13.5c39.333 0 70.166 12.667 92.499 38s33.5 61 33.5 107c0 44 -10.333 78.667 -31 104s-54 38 -100 38z" />
    <glyph glyph-name="afii10019" unicode="&#x412;" horiz-adv-x="649" 
d="M20 0l0.00195312 38.002c12.667 7.33301 26.167 13.666 40.5 18.999s28.166 8.66602 41.499 9.99902v566c-13.333 2.66699 -27.333 6.5 -42 11.5s-28 10.833 -40 17.5v38h161c25.333 0 49.333 1 72 3s48.667 3 78 3c32 0 63 -2.33301 93 -7s56.667 -13 80 -25
s42 -28.833 56 -50.5s21 -49.5 21 -83.5c0 -21.333 -3.83301 -41.166 -11.5 -59.499s-18.334 -34.5 -32.001 -48.5s-29.667 -25.667 -48 -35s-38.166 -16 -59.499 -20v-4c21.333 -2.66699 42.833 -7.66699 64.5 -15s41.167 -18 58.5 -32s31.5 -31.5 42.5 -52.5
s16.5 -45.833 16.5 -74.5c0 -36 -8 -67 -24 -93s-37.5 -47.333 -64.5 -64s-57.833 -28.834 -92.5 -36.501s-70.667 -11.5 -108 -11.5c-14 0 -29.333 0.333008 -46 1l-50 2l-48.5 2c-15.667 0.666992 -28.834 1 -39.501 1h-119zM322.002 59.002c42 0 75.001 12.5 99.001 37.5
s36 58.167 36 99.5c0 25.333 -4 46.166 -12 62.499s-19 29.333 -33 39s-30.667 16.334 -50 20.001s-40.333 5.5 -63 5.5h-53v-257c9.33301 -2 19.166 -3.66699 29.499 -5s25.833 -2 46.5 -2zM278.003 388.002c11.333 0 22.6689 0.5 34.002 1.5s22 2.16699 32 3.5
c26 10.667 47 27.167 63 49.5s24 47.833 24 76.5c0 42 -11 72.833 -33 92.5s-50.333 29.5 -85 29.5c-14.667 0 -27.334 -0.333008 -38.001 -1s-20.334 -1.66699 -29.001 -3v-249h32z" />
    <glyph glyph-name="afii10020" unicode="&#x413;" horiz-adv-x="543" 
d="M252 67c16.667 -2.66699 33.168 -6.66895 49.501 -12.002s31.833 -11 46.5 -17v-38h-328v38c29.333 14.667 56.666 24.334 81.999 29.001v566c-13.333 2.66699 -27.166 6.33398 -41.499 11.001s-27.833 10.667 -40.5 18v38h512c0 -16 -0.333008 -34.333 -1 -55
s-1.66699 -42 -3 -64s-3.33301 -43.5 -6 -64.5s-5.33398 -39.833 -8.00098 -56.5h-41l-63 175h-158v-568z" />
    <glyph glyph-name="afii10021" unicode="&#x414;" horiz-adv-x="727" 
d="M716 65c0 -15.333 -0.670898 -32.8311 -2.00391 -52.498s-3.16602 -39.834 -5.49902 -60.501s-5 -41 -8 -61s-6.5 -38 -10.5 -54h-39l-54 163h-478l-54 -163h-39c-4 16.667 -7.66699 35.334 -11 56.001s-6.16602 41.5 -8.49902 62.5s-4 41.167 -5 60.5
s-1.5 35.666 -1.5 48.999h87c18.667 28 35.834 62.667 51.501 104s29 86.5 40 135.5s19.333 100.667 25 155s8.5 108.833 8.5 163.5c-17.333 3.33301 -35.333 8.33301 -54 15s-36 14.667 -52 24v38h575v-38c-23.333 -12.667 -50.666 -22.334 -81.999 -29.001v-568h117z
M448.996 65.002v569.999h-161c-3.33301 -77.333 -9 -146.666 -17 -207.999s-17.5 -115.333 -28.5 -162s-22.833 -86.5 -35.5 -119.5s-25 -59.833 -37 -80.5h279z" />
    <glyph glyph-name="afii10022" unicode="&#x415;" horiz-adv-x="604" 
d="M546 700c-1.33301 -30 -3.66992 -61 -7.00293 -93s-7.66602 -62 -12.999 -90h-41l-46 118h-187v-245h122l44 77h32c3.33301 -32.667 5 -69 5 -109s-1.66699 -77.333 -5 -112h-32l-44 79h-122v-260h195l53 127h41c2.66699 -12.667 5.33398 -27 8.00098 -43
s4.83398 -32.5 6.50098 -49.5s3 -34.167 4 -51.5s1.5 -33.333 1.5 -48h-541v38c11.333 6 24 11.667 38 17s28.667 9.33301 44 12v566c-13.333 2.66699 -27.5 6.5 -42.5 11.5s-28.167 10.833 -39.5 17.5v38h526z" />
    <glyph glyph-name="afii10024" unicode="&#x416;" horiz-adv-x="1023" 
d="M441 633c-13.333 3.33301 -25.502 7.66602 -36.502 12.999s-20.5 10.666 -28.5 15.999v38h260v-38c-6.66699 -4.66699 -14.834 -9.5 -24.501 -14.5s-21.167 -9.83301 -34.5 -14.5v-255l68 15l144 240c-13.333 3.33301 -26.166 7.66602 -38.499 12.999
s-23.833 10.666 -34.5 15.999v38h265v-38c-10 -5.33301 -21.167 -10.666 -33.5 -15.999s-25.166 -9.66602 -38.499 -12.999l-180 -245l55.5 -75l61 -84.5l66 -87c23 -29 46.5 -56.833 70.5 -83.5l41 -24v-34h-169l-43 34c-19.333 22.667 -37 46 -53 70s-31 48.333 -45 73
s-27.5 49.834 -40.5 75.501s-26.833 51.5 -41.5 77.5h-54v-263c11.333 -3.33301 22.333 -7.5 33 -12.5s21 -10.5 31 -16.5v-38h-270v38c9.33301 6 19.833 11.5 31.5 16.5s24.5 9.16699 38.5 12.5v272l-57 -15l-80.5 -152c-25.667 -47.333 -56.167 -93.333 -91.5 -138
l-43 -34h-169v34l41 24c24 26.667 47.333 54.334 70 83.001l65 85l58 81l50 71l-179 255c-13.333 3.33301 -25.666 7.66602 -36.999 12.999s-21.333 10.666 -30 15.999v38h264v-38c-8.66699 -5.33301 -19 -10.666 -31 -15.999s-24.667 -9.66602 -38 -12.999l144 -246h64v246
z" />
    <glyph glyph-name="afii10025" unicode="&#x417;" horiz-adv-x="580" 
d="M252 -12c-18.667 0 -38.167 1.00488 -58.5 3.00488s-40.166 4.66699 -59.499 8s-37.333 7.5 -54 12.5s-30.667 10.167 -42 15.5c0 10.667 1.16699 23.667 3.5 39s5.16602 31.166 8.49902 47.499s7.16602 32.666 11.499 48.999s8.5 31.166 12.5 44.499h42l40 -142
c7.33301 -3.33301 19.166 -6.16602 35.499 -8.49902s31.5 -3.5 45.5 -3.5c44 0 79.333 12.667 106 38s40 59.666 40 102.999c0 47.333 -11.667 80.833 -35 100.5s-54.666 29.5 -93.999 29.5l-77 -13c-3.33301 12 -5.33301 25.667 -6 41s1 29.333 5 42h32
c11.333 -0.666992 24.5 -0.5 39.5 0.5s27.833 2.16699 38.5 3.5c25.333 10.667 44.833 26.167 58.5 46.5s20.5 46.166 20.5 77.499c0 39.333 -10.167 70 -30.5 92s-49.166 33 -86.499 33c-16 0 -30.5 -1.83301 -43.5 -5.5s-21.833 -8.16699 -26.5 -13.5l-49 -127h-42
c-2.66699 10 -5.33398 21.5 -8.00098 34.5s-5 27 -7 42s-3.83301 30.333 -5.5 46s-2.5 30.834 -2.5 45.501c12.667 8.66699 27.5 15.667 44.5 21s34.333 9.66602 52 12.999s35.167 5.66602 52.5 6.99902s33 2 47 2c32 0 63.667 -2.33301 95 -7s59.166 -13.5 83.499 -26.5
s44 -30.667 59 -53s22.5 -50.833 22.5 -85.5c0 -34 -11.167 -66.5 -33.5 -97.5s-56.166 -53.5 -101.499 -67.5v-4c20.667 -3.33301 40.5 -9.33301 59.5 -18s35.833 -20 50.5 -34s26.334 -31 35.001 -51s13 -43 13 -69c0 -35.333 -7 -66.333 -21 -93s-33.667 -48.667 -59 -66
s-55.833 -30.333 -91.5 -39s-75.5 -13 -119.5 -13z" />
    <glyph glyph-name="afii10026" unicode="&#x418;" horiz-adv-x="779" 
d="M321 0l-301 -0.00292969v38c12.667 6.66699 26 12.667 40 18s28 9 42 11v566c-13.333 3.33301 -27.333 7.16602 -42 11.499s-28 10.166 -40 17.499v38h301v-38c-10 -6 -21.333 -11.667 -34 -17s-26.334 -9.33301 -41.001 -12v-380l-10 -78l49 82l252 352v24
c-31.333 7.33301 -57.666 17 -78.999 29v38h301v-38c-11.333 -7.33301 -24.166 -13.166 -38.499 -17.499s-28.833 -8.16602 -43.5 -11.499v-566c15.333 -2.66699 29.833 -6.5 43.5 -11.5s26.5 -10.833 38.5 -17.5v-38h-301v38c9.33301 4.66699 20.5 9.83398 33.5 15.501
s26.833 10.167 41.5 13.5v379l10 79l-45 -79l-256 -357v-22c15.333 -3.33301 29.666 -7.66602 42.999 -12.999s25.333 -10.666 36 -15.999v-38z" />
    <glyph glyph-name="afii10027" unicode="&#x419;" horiz-adv-x="779" 
d="M321 0l-301 -0.00292969v38c12.667 6.66699 26 12.667 40 18s28 9 42 11v566c-13.333 3.33301 -27.333 7.16602 -42 11.499s-28 10.166 -40 17.499v38h301v-38c-10 -6 -21.333 -11.667 -34 -17s-26.334 -9.33301 -41.001 -12v-380l-10 -78l49 82l252 352v24
c-31.333 7.33301 -57.666 17 -78.999 29v38h301v-38c-11.333 -7.33301 -24.166 -13.166 -38.499 -17.499s-28.833 -8.16602 -43.5 -11.499v-566c15.333 -2.66699 29.833 -6.5 43.5 -11.5s26.5 -10.833 38.5 -17.5v-38h-301v38c9.33301 4.66699 20.5 9.83398 33.5 15.501
s26.833 10.167 41.5 13.5v379l10 79l-45 -79l-256 -357v-22c15.333 -3.33301 29.666 -7.66602 42.999 -12.999s25.333 -10.666 36 -15.999v-38zM394 740.997c-30.667 0 -58.5 2.83594 -83.5 8.50293s-46.5 14 -64.5 25s-31.833 24.833 -41.5 41.5s-14.5 35.667 -14.5 57
c12 8.66699 27.833 14.334 47.5 17.001s37.834 4.33398 54.501 5.00098l34 -18v-78c9.33301 -4.66699 20.166 -7.83398 32.499 -9.50098s24.5 -2.5 36.5 -2.5c9.33301 0 20.833 0.666992 34.5 2s25.167 3.66602 34.5 6.99902v81l34 18
c12 1.33301 27.667 0.166016 47 -3.50098s36.333 -9.83398 51 -18.501c0 -42.667 -18 -75.334 -54 -98.001s-85.333 -34 -148 -34z" />
    <glyph glyph-name="afii10028" unicode="&#x41a;" horiz-adv-x="710" 
d="M399 700l267.999 -0.00292969v-38c-11.333 -7.33301 -24.333 -13.5 -39 -18.5s-28 -8.5 -40 -10.5l-190 -241l54 -72.5l66 -84l72 -88l72 -84.5l48 -29v-34h-174l-40 28c-16 20 -32.833 42.167 -50.5 66.5l-52.5 76l-51 79.5l-47 78h-43v-261
c14.667 -2.66699 28 -6.66699 40 -12s22.333 -11 31 -17v-38h-303v38c13.333 6.66699 27 12.5 41 17.5s27.667 8.83301 41 11.5v566c-15.333 2 -30.166 5.66699 -44.499 11s-26.833 11.333 -37.5 18v38h303v-38c-8.66699 -5.33301 -19.167 -10.666 -31.5 -15.999
s-25.5 -9.66602 -39.5 -12.999v-254l59 14l161 240c-13.333 2.66699 -26.5 6.83398 -39.5 12.501s-24.167 11.167 -33.5 16.5v38z" />
    <glyph glyph-name="afii10029" unicode="&#x41b;" horiz-adv-x="701" 
d="M210 623c-20.667 3.33301 -40.168 8.66699 -58.501 16s-34.166 15 -47.499 23v38h577v-38c-10 -6 -22.167 -11.667 -36.5 -17s-29.5 -9.33301 -45.5 -12v-566c15.333 -2.66699 29.833 -6.66699 43.5 -12s26.5 -11 38.5 -17v-38h-308v38c11.333 6 23.5 11.5 36.5 16.5
s26.167 9.16699 39.5 12.5v568h-163c-2 -101.333 -6.66699 -185.833 -14 -253.5s-16.333 -123.5 -27 -167.5s-22.5 -78.833 -35.5 -104.5s-26.5 -47.834 -40.5 -66.501c-12.667 -17.333 -28.667 -30.833 -48 -40.5s-38 -14.5 -56 -14.5
c-8.66699 3.33301 -17 10.166 -25 20.499s-15.333 22.166 -22 35.499s-12.167 27.333 -16.5 42s-6.83301 28.334 -7.5 41.001l27 38l119 -29c8.66699 18.667 17.167 41.167 25.5 67.5s15.833 58.833 22.5 97.5s12 84.334 16 137.001s6 114.334 6 185.001z" />
    <glyph glyph-name="afii10030" unicode="&#x41c;" horiz-adv-x="930" 
d="M909 0l-299 -0.00292969v38c13.333 6.66699 26.333 12.334 39 17.001s26.334 8.66699 41.001 12v418l5 117h-8l-33 -107l-193 -495h-46l-192 491l-36 117h-9l1 -127v-410c12.667 -2.66699 26.667 -7 42 -13s29.666 -12.667 42.999 -20v-38h-244v38l39.5 19
c15.667 7.33301 30.5 12.333 44.5 15v561c-13.333 2.66699 -27.5 6.33398 -42.5 11.001s-28.167 10.667 -39.5 18v38h271l153 -407l29 -96h1l30 98l156 405h248v-38c-11.333 -6.66699 -23.5 -12.5 -36.5 -17.5s-26.167 -8.83301 -39.5 -11.5v-567
c14 -2.66699 27.5 -6.66699 40.5 -12s24.5 -10.666 34.5 -15.999v-38z" />
    <glyph glyph-name="afii10031" unicode="&#x41d;" horiz-adv-x="769" 
d="M323 0l-302.996 0.00195312v38c11.333 6 24.5 11.667 39.5 17s29.167 9.33301 42.5 12v566c-16 2.66699 -31.333 6.66699 -46 12s-26.667 11 -36 17v38h303v-38c-10 -6.66699 -21.167 -12.667 -33.5 -18s-24.833 -9 -37.5 -11v-242h265v242
c-14.667 2.66699 -27.834 6.66699 -39.501 12s-22.167 11 -31.5 17v38h303v-38c-11.333 -7.33301 -24.333 -13.333 -39 -18s-29 -8.33398 -43 -11.001v-566c15.333 -2.66699 30.166 -6.66699 44.499 -12s26.833 -11 37.5 -17v-38h-303v38c10 6 21 11.667 33 17
s24.667 9.33301 38 12v259h-265v-259c13.333 -2.66699 25.666 -6.33398 36.999 -11.001s22.666 -10.667 33.999 -18v-38z" />
    <glyph glyph-name="afii10032" unicode="&#x41e;" horiz-adv-x="754" 
d="M39 350c0 52 7.33301 100.167 22 144.5s36.334 82.666 65.001 114.999s64 57.5 106 75.5s90.333 27 145 27s103 -9 145 -27s77.167 -43.167 105.5 -75.5s49.833 -70.666 64.5 -114.999s22 -92.5 22 -144.5s-7.33301 -100.167 -22 -144.5s-36.167 -82.666 -64.5 -114.999
s-63.5 -57.5 -105.5 -75.5s-90.333 -27 -145 -27s-103 9 -145 27s-77.333 43.167 -106 75.5s-50.334 70.666 -65.001 114.999s-22 92.5 -22 144.5zM209 350c0 -42.667 3.33496 -82.167 10.002 -118.5s17.167 -67.666 31.5 -93.999s32.666 -47 54.999 -62
s49.166 -22.5 80.499 -22.5c28.667 0 53 7.5 73 22.5s36.333 35.667 49 62s21.834 57.666 27.501 93.999s8.5 75.833 8.5 118.5s-3.16699 82.167 -9.5 118.5s-16.333 67.666 -30 93.999s-31.667 47 -54 62s-49.5 22.5 -81.5 22.5c-30.667 0 -56.334 -7.5 -77.001 -22.5
s-37.167 -35.667 -49.5 -62s-21 -57.666 -26 -93.999s-7.5 -75.833 -7.5 -118.5z" />
    <glyph glyph-name="afii10033" unicode="&#x41f;" horiz-adv-x="758" 
d="M320 0h-300.003v38c10 5.33301 21.667 10.833 35 16.5s29 9.83398 47 12.501v566c-13.333 2.66699 -27.166 6.33398 -41.499 11.001s-27.833 10.667 -40.5 18v38h718v-38c-12.667 -8 -26 -14.167 -40 -18.5s-28 -7.83301 -42 -10.5v-566
c24.667 -2.66699 52 -12.334 82 -29.001v-38h-300v38c6.66699 5.33301 15.334 10.5 26.001 15.5s24.667 9.5 42 13.5v568h-254v-568c13.333 -3.33301 25.333 -7.33301 36 -12s21.334 -10.334 32.001 -17.001v-38z" />
    <glyph glyph-name="afii10034" unicode="&#x420;" horiz-adv-x="640" 
d="M252 67c18 -2.66699 35.833 -6.49902 53.5 -11.499s33.5 -10.833 47.5 -17.5v-38h-333v38c12.667 7.33301 26.167 13.333 40.5 18s28.166 8.33398 41.499 11.001v566c-15.333 2.66699 -30 6.5 -44 11.5s-26.667 10.833 -38 17.5v38h126c26.667 0 57.167 1.33301 91.5 4
s65.833 4 94.5 4c35.333 0 69.833 -3.5 103.5 -10.5s63.667 -18.833 90 -35.5s47.5 -38.834 63.5 -66.501s24 -62.167 24 -103.5c0 -39.333 -7.83301 -73.333 -23.5 -102s-36.5 -52.334 -62.5 -71.001s-56 -32.5 -90 -41.5s-69 -13.5 -105 -13.5h-16
c-7.33301 0 -15.166 0.166992 -23.499 0.5l-24 1c-7.66699 0.333008 -13.167 0.833008 -16.5 1.5v-200zM306 643.001c-13.333 0 -23.833 -0.499023 -31.5 -1.49902s-15.167 -2.5 -22.5 -4.5v-304c6 -2 15 -3.16699 27 -3.5s21.667 -0.5 29 -0.5c18 0 35.333 3 52 9
s31.5 15.333 44.5 28s23.5 29 31.5 49s12 44 12 72c0 53.333 -13 92.666 -39 117.999s-60.333 38 -103 38z" />
    <glyph glyph-name="afii10035" unicode="&#x421;" horiz-adv-x="652" 
d="M540 210l40.999 -0.000976562c2.66699 -10.667 5.16699 -23.5 7.5 -38.5s4.33301 -31 6 -48s2.83398 -33.833 3.50098 -50.5s1 -31.667 1 -45c-23.333 -14.667 -52.5 -25 -87.5 -31s-70.833 -9 -107.5 -9c-55.333 0 -105.5 6.83301 -150.5 20.5
s-83.333 35.334 -115 65.001s-56.167 67.334 -73.5 113.001s-26 100.5 -26 164.5c0 63.333 9.5 117.833 28.5 163.5s44.5 83.167 76.5 112.5s69.167 50.833 111.5 64.5s86.833 20.5 133.5 20.5c44 0 83.833 -3.16699 119.5 -9.5s64.834 -14.833 87.501 -25.5
c0 -10.667 -0.5 -24.334 -1.5 -41.001s-2.66699 -34.167 -5 -52.5s-5 -36.333 -8 -54s-5.83301 -32.5 -8.5 -44.5h-42l-55 151c-6 3.33301 -15.667 6 -29 8s-27 3 -41 3c-27.333 0 -53 -5.5 -77 -16.5s-45.333 -28.5 -64 -52.5s-33.334 -54.833 -44.001 -92.5
s-16 -82.834 -16 -135.501c0 -95.333 19 -168.666 57 -219.999s89.667 -77 155 -77c18.667 0 34.5 1.5 47.5 4.5s21.833 7.16699 26.5 12.5z" />
    <glyph glyph-name="afii10036" unicode="&#x422;" horiz-adv-x="667" 
d="M505 0h-343.998v38c13.333 5.33301 28.5 10.833 45.5 16.5s34.167 9.83398 51.5 12.501v568h-116l-64 -171h-41c-2.66699 13.333 -5.33398 30.333 -8.00098 51s-5 42 -7 64s-3.66699 43.833 -5 65.5s-2 40.167 -2 55.5h637c0 -16 -0.666992 -34.667 -2 -56s-3 -43 -5 -65
s-4.33301 -43.167 -7 -63.5s-5.33398 -37.5 -8.00098 -51.5h-42l-64 171h-116v-568c17.333 -3.33301 34.5 -7.33301 51.5 -12s32.167 -10.334 45.5 -17.001v-38z" />
    <glyph glyph-name="afii10037" unicode="&#x423;" horiz-adv-x="684" 
d="M519 633c-16 3.33301 -30.001 7.5 -42.001 12.5s-23.667 10.5 -35 16.5v38h242v-38c-7.33301 -5.33301 -17.166 -10.5 -29.499 -15.5s-26.166 -9.5 -41.499 -13.5l-191 -432c-32 -73.333 -65.333 -127.833 -100 -163.5s-71.667 -49.834 -111 -42.501
c-5.33301 5.33301 -10.833 13.5 -16.5 24.5s-11 22.667 -16 35s-9.16699 24.333 -12.5 36s-5.33301 21.5 -6 29.5l28 40l119 -37c5.33301 6 10.333 13.333 15 22s9 18.334 13 29.001l-266 459c-12.667 3.33301 -24.834 7.5 -36.501 12.5s-22.5 10.5 -32.5 16.5v38h312v-38
c-20 -12 -45.333 -21.667 -76 -29l141 -271l21 -64h2l20 66z" />
    <glyph glyph-name="afii10038" unicode="&#x424;" horiz-adv-x="847" 
d="M284 700l274.003 0.00390625v-37c-7.33301 -4.66699 -16.333 -9.66699 -27 -15s-23.667 -10 -39 -14v-43c6.66699 1.33301 14.5 2.5 23.5 3.5s17.833 1.66699 26.5 2s17 0.5 25 0.5h20c34.667 0 66.167 -5.33301 94.5 -16s52.833 -26.334 73.5 -47.001
s36.667 -45.667 48 -75s17 -62.333 17 -99c0 -42 -7 -78.333 -21 -109s-32.667 -56.334 -56 -77.001s-50 -36 -80 -46s-61 -15 -93 -15c-3.33301 0 -8.33301 0.166992 -15 0.5s-13.834 0.666016 -21.501 0.999023s-15.334 0.833008 -23.001 1.5s-13.834 1.66699 -18.501 3
v-53c13.333 -3.33301 25.5 -7.66602 36.5 -12.999s20.833 -10.666 29.5 -15.999v-37h-274v37c9.33301 5.33301 20.166 10.666 32.499 15.999s25.166 9.33301 38.499 12v52c-14.667 -1.33301 -30.834 -2.33301 -48.501 -3s-33.167 -1 -46.5 -1c-29.333 0 -58 4.33301 -86 13
s-52.833 22.5 -74.5 41.5s-39.167 43.5 -52.5 73.5s-20 66.333 -20 109c0 39.333 6.66699 74.333 20 105s31.5 56.5 54.5 77.5s49.833 37 80.5 48s63.334 16.5 98.001 16.5h16c6.66699 0 13.5 -0.166992 20.5 -0.5l21 -1c7 -0.333008 12.833 -0.833008 17.5 -1.5v40
c-15.333 3.33301 -29.166 7.66602 -41.499 12.999s-22.166 10.666 -29.499 15.999v37zM538.003 536.004c-8.66699 0 -16.667 -0.333984 -24 -1.00098s-15 -2 -23 -4v-354c6.66699 -1.33301 13.834 -2.16602 21.501 -2.49902s14.167 -0.5 19.5 -0.5
c17.333 0 34 3.33301 50 10s30.167 17.5 42.5 32.5s22.166 34.167 29.499 57.5s11 52 11 86c0 56.667 -10.667 100.167 -32 130.5s-53 45.5 -95 45.5zM315.003 174.003c7.33301 0 14.168 0.333008 20.501 1s13.166 2 20.499 4v355c-8 1.33301 -14.833 2 -20.5 2h-20.5
c-16.667 0 -33 -3.33301 -49 -10s-30.167 -17.5 -42.5 -32.5s-22.333 -34.333 -30 -58s-11.5 -52.167 -11.5 -85.5c0 -58.667 12.167 -102.667 36.5 -132s56.5 -44 96.5 -44z" />
    <glyph glyph-name="afii10039" unicode="&#x425;" horiz-adv-x="728" 
d="M435 700l248 -0.000976562v-38l-31.5 -16c-11 -5.33301 -23.167 -9.66602 -36.5 -12.999l-178 -261l207 -305c15.333 -3.33301 29.166 -7.5 41.499 -12.5s24.166 -10.5 35.499 -16.5v-38h-324v38c10.667 6 21.834 11.5 33.501 16.5s24.167 9.16699 37.5 12.5l-142 220
l-132 -221c14 -2 27 -5.33301 39 -10s23.667 -10.667 35 -18v-38h-256v38c22 13.333 44.667 23 68 29l201 285l-188 281c-12.667 3.33301 -24.667 7.66602 -36 12.999l-33 16v38h317v-38c-8 -4.66699 -18 -9.5 -30 -14.5s-26 -9.83301 -42 -14.5l122 -201l120 201
c-13.333 2.66699 -26.666 6.83398 -39.999 12.501s-25.333 11.167 -36 16.5v38z" />
    <glyph glyph-name="afii10040" unicode="&#x426;" horiz-adv-x="780" 
d="M20 0l-0.000976562 38.001c9.33301 5.33301 21 10.666 35 15.999s29.667 9.66602 47 12.999v566c-13.333 2 -27.166 5.5 -41.499 10.5s-27.833 11.167 -40.5 18.5v38h298v-38c-8 -5.33301 -17.333 -10.5 -28 -15.5s-23.334 -9.5 -38.001 -13.5v-568h250v568
c-12 2.66699 -23.833 6.66699 -35.5 12s-22.167 11 -31.5 17v38h299v-38c-13.333 -8 -26.833 -14.167 -40.5 -18.5s-27.5 -7.83301 -41.5 -10.5v-568h117c-0.666992 -17.333 -1.66699 -36.166 -3 -56.499s-3.16602 -40.833 -5.49902 -61.5s-5 -40.5 -8 -59.5
s-6.16699 -35.833 -9.5 -50.5h-39l-54 163h-630z" />
    <glyph glyph-name="afii10041" unicode="&#x427;" horiz-adv-x="686" 
d="M666 0h-307.996v38c15.333 7.33301 30.666 13.666 45.999 18.999s30.666 8.66602 45.999 9.99902v236c-18.667 -11.333 -43.667 -21.666 -75 -30.999s-65.666 -14 -102.999 -14c-26.667 0 -51.834 2.83301 -75.501 8.5s-44.334 15.5 -62.001 29.5
s-31.667 33.167 -42 57.5s-15.5 55.166 -15.5 92.499v187c-12.667 2 -25.334 5.66699 -38.001 11s-24 11.333 -34 18v38h283v-38c-7.33301 -5.33301 -16.166 -10.666 -26.499 -15.999s-21.833 -9.66602 -34.5 -12.999v-152c0 -23.333 1.33301 -44.333 4 -63
s8 -34.667 16 -48s18.833 -23.666 32.5 -30.999s31.5 -11 53.5 -11s42.833 3.16699 62.5 9.5s37.834 14.833 54.501 25.5v270c-11.333 3.33301 -22.333 7.5 -33 12.5s-20.334 10.5 -29.001 16.5v38h278v-38c-8.66699 -6 -18.667 -11.5 -30 -16.5s-23.333 -9.16699 -36 -12.5
v-566c13.333 -2.66699 25.666 -6.83398 36.999 -12.501s21 -11.167 29 -16.5v-38z" />
    <glyph glyph-name="afii10042" unicode="&#x428;" horiz-adv-x="1006" 
d="M374 700l258.999 -0.00292969v-38c-7.33301 -5.33301 -15.5 -10.666 -24.5 -15.999s-18.833 -9.66602 -29.5 -12.999v-568h187v568c-19.333 4.66699 -38.333 14.334 -57 29.001v38h277v-38c-20.667 -13.333 -44 -23 -70 -29v-566c13.333 -3.33301 25.833 -7.5 37.5 -12.5
s22.5 -10.5 32.5 -16.5v-38h-966v38c10.667 6 22.334 11.667 35.001 17s25 9.33301 37 12v566c-26.667 5.33301 -50.667 15 -72 29v38h276v-38c-5.33301 -4 -12.833 -8.83301 -22.5 -14.5s-20.167 -10.5 -31.5 -14.5v-568h187v568c-22.667 7.33301 -41 17 -55 29v38z" />
    <glyph glyph-name="afii10043" unicode="&#x429;" horiz-adv-x="1044" 
d="M20 0l-0.000976562 37.9951c10 5.33301 21 10.833 33 16.5s25 9.83398 39 12.501v566c-12.667 2 -25.5 5.66699 -38.5 11s-24.167 11.333 -33.5 18v38h276v-38c-6 -5.33301 -13.833 -10.666 -23.5 -15.999s-19.834 -9.66602 -30.501 -12.999v-568h187v568
c-22.667 8 -41 17.667 -55 29v38h259v-38c-6 -5.33301 -13.667 -10.666 -23 -15.999s-19.666 -9.66602 -30.999 -12.999v-568h187v568c-22 6.66699 -41 16.334 -57 29.001v38h277v-38c-9.33301 -6.66699 -19.833 -12.5 -31.5 -17.5s-24.5 -8.83301 -38.5 -11.5v-568h117
c0 -15.333 -0.666992 -33 -2 -53s-3.16602 -40.333 -5.49902 -61s-5 -40.834 -8 -60.501s-6.5 -37.5 -10.5 -53.5h-39l-54 163h-894z" />
    <glyph glyph-name="afii10044" unicode="&#x42a;" horiz-adv-x="774" 
d="M478 700l0.00292969 -37.999c-11.333 -6.66699 -25.333 -12.334 -42 -17.001s-33.334 -8.66699 -50.001 -12v-214c12 2 27.167 3.66699 45.5 5s34.166 2 47.499 2c34 0 67 -3.16699 99 -9.5s60.5 -17.166 85.5 -32.499s45.167 -36.333 60.5 -63s23 -60.334 23 -101.001
c0 -40 -7.66699 -74.167 -23 -102.5s-36.333 -51.333 -63 -69s-58.5 -30.667 -95.5 -39s-76.833 -12.5 -119.5 -12.5c-3.33301 0 -10.333 0.166992 -21 0.5s-23 0.666016 -37 0.999023l-42.5 1c-14.333 0.333008 -26.5 0.5 -36.5 0.5h-155v38
c12 6.66699 24.833 12.5 38.5 17.5s28.167 8.83301 43.5 11.5v568h-104l-53 -171h-42c-4 16.667 -7.33301 35.834 -10 57.501s-4.83398 43.5 -6.50098 65.5s-3 43 -4 63s-1.5 36.667 -1.5 50h463zM442.003 361.001c-12.667 0 -23.335 -0.5 -32.002 -1.5
s-16.667 -2.5 -24 -4.5v-289c6 -1.33301 15.333 -2.33301 28 -3s22.667 -1 30 -1c18.667 0 36.334 2.83301 53.001 8.5s31.334 14.667 44.001 27s22.667 28.5 30 48.5s11 44.667 11 74c0 48 -12.833 83.5 -38.5 106.5s-59.5 34.5 -101.5 34.5z" />
    <glyph glyph-name="afii10045" unicode="&#x42b;" horiz-adv-x="930" 
d="M910 0l-302.997 0.000976562v38c10.667 6 22.167 11.5 34.5 16.5s25.166 9.16699 38.499 12.5v566c-12.667 2.66699 -25.834 6.33398 -39.501 11.001s-26.5 10.667 -38.5 18v38h308v-38c-22.667 -14.667 -49.334 -24.334 -80.001 -29.001v-566
c16.667 -2.66699 31.667 -6.83398 45 -12.501s25 -11.167 35 -16.5v-38zM20.0029 0.000976562l-0.000976562 38.001c12 6.66699 25.167 12.5 39.5 17.5s28.5 8.83301 42.5 11.5v566c-13.333 2.66699 -27 6.16699 -41 10.5s-27.667 10.5 -41 18.5v38h320v-38
c-12.667 -6.66699 -26.5 -12.5 -41.5 -17.5s-30.5 -8.83301 -46.5 -11.5v-214c12 2 26.333 3.66699 43 5s31.667 2 45 2c34.667 0 67.5 -3.33301 98.5 -10s58 -18 81 -34s41.333 -37.333 55 -64s20.5 -60 20.5 -100c0 -37.333 -7.33301 -69.833 -22 -97.5
s-34.667 -50.667 -60 -69s-55 -32 -89 -41s-70.333 -13.5 -109 -13.5c-3.33301 0 -10.166 0.166992 -20.499 0.5s-22.333 0.666016 -36 0.999023l-41.5 1c-14 0.333008 -26 0.5 -36 0.5h-161zM304.002 361.002c-22 0 -39.333 -2.00098 -52 -6.00098v-289
c5.33301 -1.33301 14 -2.33301 26 -3s21 -1 27 -1c38 0 68.333 12.333 91 37s34 64.334 34 119.001c0 95.333 -42 143 -126 143z" />
    <glyph glyph-name="afii10046" unicode="&#x42c;" horiz-adv-x="640" 
d="M20 0l0.00195312 37.9971c12 6.66699 25.167 12.667 39.5 18s28.5 9 42.5 11v566c-13.333 2.66699 -27.333 6.33398 -42 11.001s-28 10.667 -40 18v38h324v-38c-11.333 -6.66699 -25.333 -12.5 -42 -17.5s-33.334 -8.83301 -50.001 -11.5v-214
c12 2 27.167 3.66699 45.5 5s34.166 2 47.499 2c38 0 73.333 -3.66699 106 -11s61 -19.166 85 -35.499s42.833 -37.666 56.5 -63.999s20.5 -58.166 20.5 -95.499c0 -38 -7.16699 -71 -21.5 -99s-34.5 -51.167 -60.5 -69.5s-57.333 -32 -94 -41s-77.334 -13.5 -122.001 -13.5
c-3.33301 0 -10.666 0.166992 -21.999 0.5s-24 0.666016 -38 0.999023l-43.5 1c-15 0.333008 -27.5 0.5 -37.5 0.5h-154zM308.002 360.997c-23.333 0 -42.002 -2 -56.002 -6v-289c6 -1.33301 15.333 -2.33301 28 -3s22.667 -1 30 -1c18 0 35.333 2.83301 52 8.5
s31.334 14.667 44.001 27s22.834 28.5 30.501 48.5s11.5 44.667 11.5 74c0 48 -12.833 83.5 -38.5 106.5s-59.5 34.5 -101.5 34.5z" />
    <glyph glyph-name="afii10047" unicode="&#x42d;" horiz-adv-x="650" 
d="M191 303c-4 13.333 -6.33105 29.834 -6.99805 49.501s1.66602 37.5 6.99902 53.5l253 -4c-3.33301 80.667 -23 141.667 -59 183s-85 62 -147 62c-18 0 -33.333 -1.83301 -46 -5.5s-22.334 -8.16699 -29.001 -13.5l-52 -130h-41c-2 7.33301 -4 18 -6 32
s-3.83301 29 -5.5 45s-2.83398 32.333 -3.50098 49s-0.666992 31.667 0 45c12 8 26 14.833 42 20.5s32.833 10.167 50.5 13.5s35.334 5.66602 53.001 6.99902s33.5 2 47.5 2c57.333 0 108.5 -7.5 153.5 -22.5s83 -37.5 114 -67.5s54.667 -67.167 71 -111.5
s24.5 -95.833 24.5 -154.5c0 -67.333 -10 -124.5 -30 -171.5s-46.667 -85 -80 -114s-71.833 -50 -115.5 -63s-89.167 -19.5 -136.5 -19.5c-40.667 0 -79 3.16699 -115 9.5s-65.667 16.166 -89 29.499c0 11.333 0.666992 25 2 41s3 32.833 5 50.5s4.16699 35.334 6.5 53.001
s4.83301 33.5 7.5 47.5h42l54 -156c7.33301 -4 18.666 -6.66699 33.999 -8s29.333 -2 42 -2c26 0 51.333 5.83301 76 17.5s46.5 29.167 65.5 52.5s34.333 52.5 46 87.5s17.834 76.167 18.501 123.5z" />
    <glyph glyph-name="afii10048" unicode="&#x42e;" horiz-adv-x="1028" 
d="M328 0l-307.998 -0.00195312v38c12 6.66699 24.833 12.5 38.5 17.5s28.167 8.83301 43.5 11.5v566c-13.333 2 -27.166 5.5 -41.499 10.5s-27.833 11.167 -40.5 18.5v38h308v-38c-8 -5.33301 -18 -10.666 -30 -15.999s-27.333 -9.66602 -46 -12.999v-242h110
c3.33301 46 12.666 88.667 27.999 128s36.333 73.166 63 101.499s58.334 50.666 95.001 66.999s78.334 24.5 125.001 24.5c51.333 0 96.666 -9 135.999 -27s72.166 -43.167 98.499 -75.5s46.333 -70.666 60 -114.999s20.5 -92.5 20.5 -144.5s-6.5 -100.167 -19.5 -144.5
s-32.5 -82.5 -58.5 -114.5s-58.833 -57.167 -98.5 -75.5s-85.834 -27.5 -138.501 -27.5c-51.333 0 -96 8.33301 -134 25s-70 40 -96 70s-45.667 65.667 -59 107s-21 86.666 -23 135.999h-109v-259c16.667 -3.33301 31.167 -7.66602 43.5 -12.999
s23.166 -10.666 32.499 -15.999v-38zM523.002 349.998c0 -93.333 12.168 -166.166 36.501 -218.499s64.166 -78.5 119.499 -78.5c27.333 0 50 7.5 68 22.5s32.167 35.667 42.5 62s17.666 57.666 21.999 93.999s6.5 75.833 6.5 118.5s-2.33301 82.167 -7 118.5
s-12.667 67.666 -24 93.999s-26.666 47 -45.999 62s-44 22.5 -74 22.5c-28.667 0 -52.167 -7.5 -70.5 -22.5s-33 -35.667 -44 -62s-18.667 -57.666 -23 -93.999s-6.5 -75.833 -6.5 -118.5z" />
    <glyph glyph-name="afii10049" unicode="&#x42f;" horiz-adv-x="690" 
d="M670 700l0.000976562 -38.0059c-8.66699 -5.33301 -20.334 -10.666 -35.001 -15.999s-30.334 -9.66602 -47.001 -12.999v-566c17.333 -3.33301 32.666 -7.66602 45.999 -12.999s25.333 -10.666 36 -15.999v-38h-310v38c11.333 6 23.5 11.5 36.5 16.5
s26.833 9.16699 41.5 12.5v220h-84l-60.5 -134c-20.333 -43.333 -45.166 -83.666 -74.499 -120.999l-41 -32h-173v34l44 24c42.667 46 77.167 88.333 103.5 127l73.5 108c-17.333 6 -34.666 14.167 -51.999 24.5s-32.833 23.5 -46.5 39.5s-24.667 35 -33 57
s-12.5 47.667 -12.5 77c0 38.667 8.33301 71.5 25 98.5s38.667 49 66 66s59 29.167 95 36.5s73 11 111 11c6.66699 0 15.5 -0.166992 26.5 -0.5s22.667 -0.666016 35 -0.999023l37.5 -1c12.667 -0.333008 24 -0.5 34 -0.5h158zM377.001 345.994c9.33301 0 20.5 0.5 33.5 1.5
s22.167 2.16699 27.5 3.5v282c-5.33301 1.33301 -13.666 2.5 -24.999 3.5s-21 1.5 -29 1.5c-19.333 0 -37.5 -2.5 -54.5 -7.5s-32 -13.167 -45 -24.5s-23.333 -26 -31 -44s-11.5 -40 -11.5 -66c0 -50 12.167 -87.5 36.5 -112.5s57.166 -37.5 98.499 -37.5z" />
    <glyph glyph-name="afii10065" unicode="&#x430;" horiz-adv-x="557" 
d="M470 145c0 -14.667 0.170898 -27.335 0.503906 -38.002s1.16602 -22 2.49902 -34l69 -10v-35c-8 -4 -18.833 -8 -32.5 -12s-28 -7.83301 -43 -11.5s-29.833 -6.66699 -44.5 -9s-27.667 -4.16602 -39 -5.49902h-34c-6.66699 15.333 -10.667 30.666 -12 45.999
s-2.33301 34 -3 56h-5c-3.33301 -13.333 -9 -26.166 -17 -38.499s-18.167 -23.333 -30.5 -33s-26.833 -17.5 -43.5 -23.5s-35.334 -9 -56.001 -9c-22 0 -42.333 3.33301 -61 10s-35 16 -49 28s-25 26.5 -33 43.5s-12 36.167 -12 57.5c0 30 5.66699 54.667 17 74
s29.166 35.166 53.499 47.499s55.666 21.5 93.999 27.5s84.833 10.333 139.5 13c5.33301 57.333 3 99.333 -7 126s-31.667 40 -65 40c-20.667 0 -39.667 -3.33301 -57 -10l-47 -120h-44c-5.33301 8 -10.5 17.167 -15.5 27.5s-9.66699 21.333 -14 33s-8 23.5 -11 35.5
s-5.16699 23.667 -6.5 35c25.333 17.333 58 31 98 41s82.333 15 127 15c38 0 69 -4.16699 93 -12.5s42.833 -19.666 56.5 -33.999s23.167 -31.166 28.5 -50.499s8 -40 8 -62c0 -40 -0.833008 -76.167 -2.5 -108.5s-2.5 -65.5 -2.5 -99.5zM245.004 67.999
c14 0 25.999 2.66895 35.999 8.00195s18.5 11.666 25.5 18.999s12.333 15.333 16 24s6.5 16.334 8.5 23.001v100c-31.333 -0.666992 -57 -2.66699 -77 -6s-35.667 -8.83301 -47 -16.5s-19.166 -17.334 -23.499 -29.001s-6.5 -25.834 -6.5 -42.501c0 -25.333 6 -45 18 -59
s28.667 -21 50 -21z" />
    <glyph glyph-name="afii10066" unicode="&#x431;" horiz-adv-x="584" 
d="M31 271c0 83.333 7.83203 153.167 23.499 209.5s39.5 101.666 71.5 135.999s72.167 58.833 120.5 73.5s105.166 22 170.499 22l65 50h39c0 -12.667 -0.833008 -27.167 -2.5 -43.5s-4 -32.5 -7 -48.5s-6.16699 -30.667 -9.5 -44s-6.33301 -23.333 -9 -30
c-70 0 -129.167 -2.33301 -177.5 -7s-88 -15 -119 -31s-54.5 -39.167 -70.5 -69.5s-27 -71.5 -33 -123.5h5c10 17.333 22.833 33.833 38.5 49.5s33.334 29.334 53.001 41.001s40.667 20.834 63 27.501s45.5 10 69.5 10c72.667 0 129.334 -19.833 170.001 -59.5
s61 -101.834 61 -186.501c0 -37.333 -6 -71.833 -18 -103.5s-29.5 -59 -52.5 -82s-51.5 -41 -85.5 -54s-72.667 -19.5 -116 -19.5c-38 0 -72.333 6.33301 -103 19s-57 31 -79 55s-38.833 53.5 -50.5 88.5s-17.5 75.167 -17.5 120.5zM185.999 262.001
c0 -42 2.50098 -76.832 7.50098 -104.499s12.333 -49.834 22 -66.501s21.334 -28.5 35.001 -35.5s29.5 -10.5 47.5 -10.5c33.333 0 58.166 15.5 74.499 46.5s24.5 80.5 24.5 148.5c0 67.333 -10.333 114.666 -31 141.999s-49.334 41 -86.001 41
c-16 0 -31.5 -4.33301 -46.5 -13s-27.167 -18.667 -36.5 -30c-7.33301 -31.333 -11 -70.666 -11 -117.999z" />
    <glyph glyph-name="afii10067" unicode="&#x432;" horiz-adv-x="573" 
d="M539 146c0 -26.667 -5.67188 -49.5 -17.0049 -68.5s-27 -34.5 -47 -46.5s-43.5 -20.833 -70.5 -26.5s-55.833 -8.5 -86.5 -8.5c-21.333 0 -39.666 0.166992 -54.999 0.5s-28.666 0.833008 -39.999 1.5s-21.166 1.16699 -29.499 1.5s-16.166 0.5 -23.499 0.5h-141v39
c20.667 10.667 42.667 18.667 66 24v374c-25.333 4.66699 -47.333 12.667 -66 24v39h135c32 0 60.333 0.666992 85 2s49.334 2 74.001 2c63.333 0 111.5 -8.83301 144.5 -26.5s49.5 -48.5 49.5 -92.5c0 -16 -3.5 -30.333 -10.5 -43s-16.333 -23.667 -28 -33
s-24.5 -17 -38.5 -23s-28 -10.333 -42 -13c18.667 -1.33301 36.5 -5 53.5 -11s32 -14.333 45 -25s23.333 -23.5 31 -38.5s11.5 -32.5 11.5 -52.5zM238.995 57c9.33301 -2 19.501 -3.16602 30.501 -3.49902s20.5 -0.5 28.5 -0.5c30 0 52.667 7.66699 68 23
s23 37.666 23 66.999c0 28.667 -8.83301 50.167 -26.5 64.5s-40.834 21.5 -69.501 21.5h-54v-172zM238.996 272.001l89 10c10.667 6.66699 21 17.5 31 32.5s15 33.5 15 55.5c0 51.333 -29.667 77 -89 77c-7.33301 0 -15 -0.166992 -23 -0.5s-15.667 -1.5 -23 -3.5v-171z" />
    <glyph glyph-name="afii10068" unicode="&#x433;" horiz-adv-x="466" 
d="M456 500c-0.666992 -12.667 -1.83496 -27.334 -3.50195 -44.001s-3.66699 -34 -6 -52s-5.16602 -35.667 -8.49902 -53s-6.66602 -32.666 -9.99902 -45.999h-41l-44 138h-104v-380c38 -7.33301 68 -15.333 90 -24v-39h-300v39c11.333 6.66699 22.333 11.667 33 15
s21.667 6.33301 33 9v375c-24.667 4 -46.667 11.667 -66 23v39h427z" />
    <glyph glyph-name="afii10069" unicode="&#x434;" horiz-adv-x="605" 
d="M108 0l-54 -148.001h-39c-4 32.667 -7.5 67.834 -10.5 105.501s-4.5 72.834 -4.5 105.501h73c8 9.33301 17 23.333 27 42s19.5 42.834 28.5 72.501s16.667 65 23 106s9.5 88.833 9.5 143.5c-14 3.33301 -27.5 8 -40.5 14s-24.167 12.667 -33.5 20v39h475v-39
c-18 -12 -40 -20 -66 -24v-374h93c0.666992 -32.667 -0.5 -67.834 -3.5 -105.501s-6.83301 -72.834 -11.5 -105.501h-39l-54 148h-373zM234 436.999c0 -56 -3 -104.667 -9 -146s-13.333 -77 -22 -107s-17.667 -54.833 -27 -74.5s-17.333 -35.167 -24 -46.5h200v374h-118z
" />
    <glyph glyph-name="afii10070" unicode="&#x435;" horiz-adv-x="537" 
d="M486 84c-5.33301 -11.333 -13.834 -22.835 -25.501 -34.502s-26 -22 -43 -31s-36.667 -16.333 -59 -22s-46.5 -8.5 -72.5 -8.5c-41.333 0 -78 6.16699 -110 18.5s-58.667 30 -80 53s-37.5 50.5 -48.5 82.5s-16.5 68 -16.5 108c0 85.333 22.333 150.333 67 195
s106.667 67 186 67c34 0 65.833 -4.66699 95.5 -14s54.334 -24.666 74.001 -45.999s33.334 -49.333 41.001 -84s7.16699 -77 -1.5 -127h-307c0.666992 -52.667 14.167 -94.667 40.5 -126s65.166 -47 116.499 -47c22 0 44.833 3.33301 68.5 10s42.167 15.334 55.5 26.001z
M279.999 454.998c-13.333 0 -25.166 -2.33301 -35.499 -7s-19.333 -13.167 -27 -25.5s-13.834 -29 -18.501 -50s-8 -47.5 -10 -79.5h161c4.66699 52 1.66699 92 -9 120s-31 42 -61 42z" />
    <glyph glyph-name="afii10072" unicode="&#x436;" horiz-adv-x="803" 
d="M570 500l209.002 0.00195312v-39c-11.333 -8 -30.333 -16 -57 -24l-61.5 -77.5l-61.5 -73.5l32 -44l41 -56l46.5 -61.5l48.5 -61.5l36 -24v-39h-142l-28 23c-11.333 14 -23 30.5 -35 49.5l-35 57.5c-11.333 19.333 -21.5 37.666 -30.5 54.999
s-16.167 31.666 -21.5 42.999h-44v-165c20.667 -5.33301 40.667 -13.333 60 -24v-39h-246v39c9.33301 4.66699 18.5 9 27.5 13s18.5 7.66699 28.5 11v171l-50 -10c-5.33301 -9.33301 -12 -22.5 -20 -39.5s-17.333 -35.167 -28 -54.5l-33.5 -58
c-11.667 -19.333 -23.5 -35.666 -35.5 -48.999l-30 -23h-140v39l42 24c16.667 19.333 32.667 39.333 48 60l43 60l37 54c11.333 16.667 21.666 31 30.999 43c-24 25.333 -45.833 50.333 -65.5 75s-40.167 52 -61.5 82c-17.333 4 -34 12 -50 24v39h209v-39
c-12.667 -9.33301 -29.334 -17.333 -50.001 -24c8.66699 -16 17 -30.333 25 -43l24.5 -37l26 -36.5l31.5 -42.5h47v159c-11.333 2.66699 -20.833 6 -28.5 10s-15.167 8.66699 -22.5 14v39h230v-39c-6.66699 -5.33301 -13.5 -10 -20.5 -14s-16.5 -7.33301 -28.5 -10v-165
l51 10l30.5 42l24 35.5l22.5 35.5l25 42c-9.33301 3.33301 -18 6.66602 -26 9.99902s-16 8 -24 14v39z" />
    <glyph glyph-name="afii10073" unicode="&#x437;" horiz-adv-x="498" 
d="M201 53c36 0 62.667 9.33789 80 28.0049s26 41.334 26 68.001c0 28.667 -6.33301 48.167 -19 58.5s-30.667 17.166 -54 20.499l-89 -15c-3.33301 8 -5.33301 19.167 -6 33.5s1.33301 26.166 6 35.499h97c11.333 5.33301 22.833 15.333 34.5 30s17.5 35 17.5 61
c0 25.333 -7.16699 45.333 -21.5 60s-34.833 22 -61.5 22c-11.333 0 -22.166 -0.833008 -32.499 -2.5s-17.166 -3.16699 -20.499 -4.5l-45 -113h-34c-9.33301 18.667 -18.166 40.5 -26.499 65.5s-12.833 48.167 -13.5 69.5c15.333 10 39.666 19.5 72.999 28.5
s74.333 13.5 123 13.5c66 0 117 -9.83301 153 -29.5s54 -48.834 54 -87.501c0 -17.333 -3.66699 -33 -11 -47s-17.166 -26 -29.499 -36s-26.333 -18.5 -42 -25.5s-31.834 -12.167 -48.501 -15.5c19.333 -2 38.166 -5.5 56.499 -10.5s34.5 -12.333 48.5 -22
s25.167 -21.834 33.5 -36.501s12.5 -32.334 12.5 -53.001c0 -53.333 -20.833 -93.5 -62.5 -120.5s-99.834 -40.5 -174.501 -40.5c-45.333 0 -84.5 5.66699 -117.5 17s-59.167 25.666 -78.5 42.999l27 94h29c10 -9.33301 21 -22 33 -38l32 -43
c6.66699 -2.66699 14 -4.66699 22 -6s17.667 -2 29 -2z" />
    <glyph glyph-name="afii10074" unicode="&#x438;" horiz-adv-x="669" 
d="M29 500h266v-39c-7.33301 -4 -15.833 -8 -25.5 -12s-21.167 -8 -34.5 -12v-225l-11 -93h5l39 75l183 306h189v-39c-21.333 -12 -43.333 -20 -66 -24v-374c12.667 -3.33301 24.667 -6.83301 36 -10.5s21.333 -8.16699 30 -13.5v-39h-266v39
c18.667 10.667 38.667 18.667 60 24v236l10 79h-5l-38 -75l-181 -303h-191v39c11.333 5.33301 22.333 9.83301 33 13.5s21.667 7.16699 33 10.5v374c-26 4 -48 12 -66 24v39z" />
    <glyph glyph-name="afii10075" unicode="&#x439;" horiz-adv-x="669" 
d="M29 500h266v-39c-7.33301 -4 -15.833 -8 -25.5 -12s-21.167 -8 -34.5 -12v-225l-11 -93h5l39 75l183 306h189v-39c-21.333 -12 -43.333 -20 -66 -24v-374c12.667 -3.33301 24.667 -6.83301 36 -10.5s21.333 -8.16699 30 -13.5v-39h-266v39
c18.667 10.667 38.667 18.667 60 24v236l10 79h-5l-38 -75l-181 -303h-191v39c11.333 5.33301 22.333 9.83301 33 13.5s21.667 7.16699 33 10.5v374c-26 4 -48 12 -66 24v39zM347 556c-66 0 -114.001 12.001 -144.001 36.001s-45 56 -45 96c9.33301 8 23 14.167 41 18.5
s36.667 7.16602 56 8.49902l34 -13v-89c16.667 -7.33301 36.334 -11 59.001 -11c6.66699 0 15.834 0.666992 27.501 2s22.167 3.33301 31.5 6v92l34 13c18 -1.33301 35.667 -4 53 -8s30.666 -10.333 39.999 -19c0 -40 -15.167 -72 -45.5 -96s-77.5 -36 -141.5 -36z" />
    <glyph glyph-name="afii10076" unicode="&#x43a;" horiz-adv-x="594" 
d="M342 500l229.002 -0.000976562v-39c-6.66699 -5.33301 -14.834 -9.83301 -24.501 -13.5s-22.5 -8.16699 -38.5 -13.5c-22.667 -27.333 -46 -53.5 -70 -78.5s-47.333 -48.167 -70 -69.5c14.667 -16 29.667 -33.333 45 -52l45.5 -57.5l46 -58.5
c15.667 -19.333 31.5 -37.666 47.5 -54.999l42 -24v-39h-157l-32 23c-28.667 34.667 -52.167 69.334 -70.5 104.001l-55.5 103h-40v-167c21.333 -6 40 -14 56 -24v-39h-266v39c18 10.667 40 18.667 66 24v374c-23.333 4.66699 -45.333 12.667 -66 24v39h255v-39
c-6.66699 -4.66699 -13.167 -9 -19.5 -13s-14.833 -7.66699 -25.5 -11v-163l46 10c19.333 22 38.666 45.667 57.999 71s37 51.666 53 78.999c-11.333 4.66699 -21 9 -29 13s-16.333 8.66699 -25 14v39z" />
    <glyph glyph-name="afii10077" unicode="&#x43b;" horiz-adv-x="590" 
d="M119 113c16.667 31.333 28.9951 75.1689 36.9951 131.502s12.333 117.166 13 182.499c-13.333 4 -26.166 9 -38.499 15s-23.166 12.333 -32.499 19v39h463v-39c-21.333 -12 -43.333 -20 -66 -24v-374c14 -3.33301 26.333 -7 37 -11s20.334 -8.33301 29.001 -13v-39h-265
v39c8 5.33301 16.167 10 24.5 14s18.5 7.33301 30.5 10v380h-110c-0.666992 -35.333 -2.66699 -72.166 -6 -110.499s-8.5 -75.833 -15.5 -112.5s-16.167 -71.167 -27.5 -103.5s-25 -59.833 -41 -82.5c-13.333 -18.667 -28 -32 -44 -40s-30.333 -10.667 -43 -8
c-8.66699 4.66699 -16.667 12.167 -24 22.5s-13.666 21.166 -18.999 32.499s-9.66602 22.666 -12.999 33.999s-5.33301 21 -6 29l23 34z" />
    <glyph glyph-name="afii10078" unicode="&#x43c;" horiz-adv-x="800" 
d="M220 0h-198.999v39c22 10.667 44 18.667 66 24l20 364c-14 5.33301 -26.333 11 -37 17l-29 17v39h249l86 -242l19 -69h3l21 70l88 241h252v-39c-8.66699 -5.33301 -18.334 -10 -29.001 -14s-23 -7.33301 -37 -10l20 -374c22 -4 44 -12 66 -24v-39h-266v39
c6.66699 3.33301 14.667 7 24 11s21.333 8.33301 36 13l-20 360h-8l-152 -423h-50l-160 423h-8l-15 -360c24 -7.33301 44 -15.333 60 -24v-39z" />
    <glyph glyph-name="afii10079" unicode="&#x43d;" horiz-adv-x="664" 
d="M294 0h-265v39c9.33301 5.33301 19.666 9.83301 30.999 13.5s23 7.16699 35 10.5v374c-12 3.33301 -23.667 6.83301 -35 10.5s-21.666 8.16699 -30.999 13.5v39h265v-39c-15.333 -9.33301 -33.666 -17.333 -54.999 -24v-156h186v156c-19.333 4 -37.666 12 -54.999 24v39
h265v-39c-18 -11.333 -40 -19.333 -66 -24v-374c12 -2.66699 23.667 -5.66699 35 -9s21.666 -8.33301 30.999 -15v-39h-265v39c17.333 12.667 35.666 20.667 54.999 24v161h-186v-161c11.333 -2.66699 21.5 -6 30.5 -10s17.167 -8.66699 24.5 -14v-39z" />
    <glyph glyph-name="afii10080" unicode="&#x43e;" horiz-adv-x="594" 
d="M31 250c0 40.667 6.16406 77.167 18.4971 109.5s30 59.833 53 82.5s50.833 40 83.5 52s69.667 18 111 18c46.667 0 86.834 -6.5 120.501 -19.5s61.334 -31 83.001 -54s37.5 -50.667 47.5 -83s15 -67.5 15 -105.5c0 -40.667 -6 -77.167 -18 -109.5
s-29.5 -59.833 -52.5 -82.5s-51 -40 -84 -52s-70.167 -18 -111.5 -18c-45.333 0 -84.666 6.5 -117.999 19.5s-61 31 -83 54s-38.333 50.667 -49 83s-16 67.5 -16 105.5zM185.997 250c0 -30 1.83301 -57.501 5.5 -82.501s10.167 -46.167 19.5 -63.5s22 -30.833 38 -40.5
s36.667 -14.5 62 -14.5c14.667 0 28 3.5 40 10.5s22.333 18.333 31 34s15.167 36.334 19.5 62.001s6.5 57.167 6.5 94.5c0 30.667 -1.83301 58.334 -5.5 83.001s-10 45.667 -19 63s-21.167 30.833 -36.5 40.5s-34.666 14.5 -57.999 14.5c-17.333 0 -32.333 -3.5 -45 -10.5
s-23.334 -18.333 -32.001 -34s-15.167 -36.334 -19.5 -62.001s-6.5 -57.167 -6.5 -94.5z" />
    <glyph glyph-name="afii10081" unicode="&#x43f;" horiz-adv-x="659" 
d="M294 0h-265.003v39c12.667 7.33301 24.334 12.833 35.001 16.5s21 6.16699 31 7.5v374c-14 3.33301 -26.667 7 -38 11s-20.666 8.33301 -27.999 13v39h601v-39c-8.66699 -5.33301 -18.334 -10.333 -29.001 -15s-23 -7.66699 -37 -9v-374c22.667 -4 44.667 -12 66 -24v-39
h-265v39c6.66699 4.66699 13.834 9 21.501 13s18.834 7.66699 33.501 11v380h-181v-380c13.333 -4 24 -8 32 -12l23 -12v-39z" />
    <glyph glyph-name="afii10082" unicode="&#x440;" horiz-adv-x="609" 
d="M297 -200h-276.001v39c22.667 10.667 44.667 18.667 66 24v566l-66 8v39c10.667 4.66699 23.834 9 39.501 13s31.834 7.5 48.501 10.5s32.834 5.5 48.501 7.5l39.5 5h34v-112h1c11.333 32 29.166 58.667 53.499 80s58.166 32 101.499 32
c29.333 0 55.833 -4.83301 79.5 -14.5s43.667 -24.667 60 -45s29 -46.333 38 -78s13.5 -69.5 13.5 -113.5c0 -42 -5.83301 -80 -17.5 -114s-28.334 -62.667 -50.001 -86s-48 -41.333 -79 -54s-66.167 -19 -105.5 -19c-22.667 0 -40.5 1.5 -53.5 4.5
s-26.833 8.16699 -41.5 15.5v-145c10.667 -1.33301 21.334 -3.83301 32.001 -7.5s22 -9.16699 34 -16.5v-39zM328.999 432c-22.667 0 -42.833 -8.00195 -60.5 -24.002s-30.167 -40.667 -37.5 -74v-266c10.667 -8 22 -13.833 34 -17.5s27.667 -5.5 47 -5.5
c38 0 66 18.333 84 55s27 90.334 27 161.001c0 54.667 -6.83301 96.834 -20.5 126.501s-38.167 44.5 -73.5 44.5z" />
    <glyph glyph-name="afii10083" unicode="&#x441;" horiz-adv-x="484" 
d="M456 81c-4.66699 -13.333 -12.3311 -25.5 -22.998 -36.5s-23.5 -20.833 -38.5 -29.5s-32 -15.334 -51 -20.001s-38.833 -7 -59.5 -7c-44 0 -81.833 6.16699 -113.5 18.5s-57.834 30 -78.501 53s-36 50.667 -46 83s-15 68.166 -15 107.499
c0 84.667 23.167 149.5 69.5 194.5s112.166 67.5 197.499 67.5c32.667 0 62.667 -3.5 90 -10.5s50 -15.167 68 -24.5c-1.33301 -11.333 -3.16602 -23.833 -5.49902 -37.5s-5 -27.334 -8 -41.001s-6.5 -27 -10.5 -40s-8 -23.833 -12 -32.5h-49l-42 119
c-4.66699 3.33301 -9.66699 5.83301 -15 7.5s-13.333 2.5 -24 2.5c-17.333 0 -32.333 -3.16699 -45 -9.5s-23.5 -17.166 -32.5 -32.499s-15.667 -35.666 -20 -60.999s-6.5 -56.666 -6.5 -93.999c0 -27.333 3 -52.5 9 -75.5s15.167 -43 27.5 -60s27.833 -30.333 46.5 -40
s40.667 -14.5 66 -14.5c23.333 0 43.666 3.33301 60.999 10s32 14.667 44 24z" />
    <glyph glyph-name="afii10084" unicode="&#x442;" horiz-adv-x="542" 
d="M413 0l-284.001 -0.000976562v39c10 5.33301 21.333 10 34 14s24.667 7.33301 36 10v380h-73l-44 -138h-42c-3.33301 14 -6.5 29.667 -9.5 47s-5.5 34.833 -7.5 52.5s-3.83301 34.834 -5.5 51.501s-2.5 31.334 -2.5 44.001h512c0 -12 -0.666992 -26.333 -2 -43
s-3.16602 -33.834 -5.49902 -51.501s-5 -35.334 -8 -53.001s-6.16699 -33.5 -9.5 -47.5h-42l-44 138h-73v-380c15.333 -4 28.333 -7.66699 39 -11s21 -7.66602 31 -12.999v-39z" />
    <glyph glyph-name="afii10085" unicode="&#x443;" horiz-adv-x="528" 
d="M38 437c-10 2.66699 -19.166 5.99902 -27.499 9.99902s-16.833 8.66699 -25.5 14v39h263v-38c-14 -9.33301 -33 -17.666 -57 -24.999l101 -251l17 -64h2l16 65l78 250c-20 4 -38.333 12 -55 24v39h193v-39c-14 -9.33301 -33 -17.333 -57 -24l-163 -437
c-16 -42.667 -32 -77.5 -48 -104.5s-32 -48.5 -48 -64.5s-32 -27.167 -48 -33.5s-32 -10.5 -48 -12.5c-6.66699 6 -12.667 13.5 -18 22.5s-10 18.667 -14 29s-7.33301 20.833 -10 31.5s-4.33398 20.667 -5.00098 30l13 24h122c6 9.33301 11.167 19.333 15.5 30
s9.5 26.667 15.5 48z" />
    <glyph glyph-name="afii10086" unicode="&#x444;" horiz-adv-x="791" 
d="M531 -200l-271.997 0.000976562v39c18.667 10.667 40.667 18.667 66 24v158c-8 -10 -20.333 -18 -37 -24s-33.334 -9 -50.001 -9c-30.667 0 -58.834 4.83301 -84.501 14.5s-47.834 24.5 -66.501 44.5s-33.167 45.333 -43.5 76s-15.5 67 -15.5 109
c0 48 5.33301 89.5 16 124.5s25.667 64 45 87s42.5 40.167 69.5 51.5s57.167 17 90.5 17c16.667 0 32 -2.5 46 -7.5s24 -11.5 30 -19.5v184l-76 8v39c9.33301 4 22 8 38 12s32.833 7.66699 50.5 11s34.834 6.16602 51.501 8.49902s30.667 3.83301 42 4.5h34v-273
c9.33301 10 22.5 18 39.5 24s34.833 9 53.5 9c30 0 57.5 -4.66699 82.5 -14s46.5 -23.666 64.5 -42.999s32 -43.5 42 -72.5s15 -63.167 15 -102.5c0 -50.667 -5.5 -94.334 -16.5 -131.001s-26.167 -67 -45.5 -91s-42.333 -41.667 -69 -53s-55.334 -17 -86.001 -17
c-14.667 0 -29.667 2.16699 -45 6.5s-27 10.833 -35 19.5v-151c24.667 -4 46.667 -12 66 -24v-39zM273.003 51.001c11.333 0 21.333 1.49902 30 4.49902s17.667 9.16699 27 18.5v358c-8 5.33301 -16.333 9.5 -25 12.5s-19.667 4.5 -33 4.5s-25.666 -3 -36.999 -9
s-21.333 -15.833 -30 -29.5s-15.334 -31.834 -20.001 -54.501s-7 -51 -7 -85c0 -45.333 2.33301 -82.166 7 -110.499s11.167 -50.666 19.5 -66.999s18.333 -27.5 30 -33.5s24.5 -9 38.5 -9zM516.003 449c-11.333 0 -21.168 -1.5 -29.501 -4.5s-17.166 -8.5 -26.499 -16.5
v-359c8 -6.66699 16.333 -11.334 25 -14.001s19.667 -4 33 -4c12 0 23.667 3 35 9s21.333 16.5 30 31.5s15.667 34.833 21 59.5s8 56 8 94c0 40.667 -2.16699 74.334 -6.5 101.001s-10.5 47.5 -18.5 62.5s-18 25.5 -30 31.5s-25.667 9 -41 9z" />
    <glyph glyph-name="afii10087" unicode="&#x445;" horiz-adv-x="560" 
d="M343 268l157.999 -204.999c17.333 -5.33301 33.666 -13.333 48.999 -24v-39h-255v38c7.33301 5.33301 14.833 10.166 22.5 14.499s15.5 7.83301 23.5 10.5l-95 136l-92 -136c9.33301 -3.33301 17.5 -7 24.5 -11s13.833 -8.33301 20.5 -13v-39h-189v39l25.5 14
c7.66699 4 16.5 7.33301 26.5 10l148 184l-149 190c-9.33301 3.33301 -17.666 6.83301 -24.999 10.5s-14 8.16699 -20 13.5v39h251v-38l-21.5 -14.5c-6.33301 -4.33301 -14.166 -7.83301 -23.499 -10.5l87 -124l83 124c-11.333 3.33301 -20.333 7 -27 11
s-12.667 8.33301 -18 13v39h185v-39c-6.66699 -4.66699 -14 -9 -22 -13s-18 -7.66699 -30 -11z" />
    <glyph glyph-name="afii10088" unicode="&#x446;" horiz-adv-x="667" 
d="M29 0l-0.00292969 39c18 10.667 40 18.667 66 24v374c-25.333 4 -47.333 12 -66 24v39h265v-39c-7.33301 -4.66699 -15.166 -9 -23.499 -13s-18.833 -7.66699 -31.5 -11v-380h171v380c-9.33301 2 -18.166 5 -26.499 9s-17.833 9 -28.5 15v39h265v-39
c-8.66699 -4.66699 -18.334 -9 -29.001 -13s-23 -7.66699 -37 -11v-380h98c-1.33301 -32 -4.16602 -66.333 -8.49902 -103s-8.16602 -70.667 -11.499 -102h-39l-54 148h-510z" />
    <glyph glyph-name="afii10089" unicode="&#x447;" horiz-adv-x="604" 
d="M3 500l261.999 0.00195312v-39c-13.333 -10.667 -30.666 -18.667 -51.999 -24v-111c0 -28 4.83301 -50.167 14.5 -66.5s26.5 -24.5 50.5 -24.5c17.333 0 33.333 2.66699 48 8s27.667 11.666 39 18.999v175c-10.667 2 -20 5 -28 9s-16.333 9 -25 15v39h263v-39
c-18 -11.333 -40 -19.333 -66 -24v-374c13.333 -3.33301 25.333 -6.83301 36 -10.5s20.667 -8.16699 30 -13.5v-39h-290v39c27.333 11.333 54 19.333 80 24v156c-16 -17.333 -37 -31.5 -63 -42.5s-54 -16.5 -84 -16.5c-46.667 0 -83.167 12.667 -109.5 38
s-39.5 59.666 -39.5 102.999v136c-25.333 4.66699 -47.333 12.667 -66 24v39z" />
    <glyph glyph-name="afii10090" unicode="&#x448;" horiz-adv-x="902" 
d="M663 57v380c-16.667 4.66699 -31.667 12.667 -45 24v39h255v-39c-9.33301 -5.33301 -19.333 -10 -30 -14s-22.667 -7.33301 -36 -10v-374c24.667 -5.33301 46.667 -13.333 66 -24v-39h-844v39c18.667 10.667 40.667 18.667 66 24v374
c-11.333 1.33301 -22.333 3.83301 -33 7.5s-21.667 9.16699 -33 16.5v39h255v-39c-12.667 -10.667 -27.667 -18.667 -45 -24v-380h140v380c-9.33301 3.33301 -18.333 6.83301 -27 10.5s-16.667 8.16699 -24 13.5v39h240v-39c-4.66699 -4.66699 -10.667 -9 -18 -13
s-16.333 -7.66699 -27 -11v-380h140z" />
    <glyph glyph-name="afii10091" unicode="&#x449;" horiz-adv-x="920" 
d="M29 0v39c18.667 10.667 40.667 18.667 66 24v374c-13.333 2.66699 -25.333 6 -36 10s-20.667 8.66699 -30 14v39h255v-39c-5.33301 -4.66699 -11.833 -9 -19.5 -13s-16.167 -7.66699 -25.5 -11v-380h140v380c-8.66699 2.66699 -17.5 6 -26.5 10s-17.167 8.66699 -24.5 14
v39h240v-39c-12 -10.667 -27 -18.667 -45 -24v-380h140v380c-17.333 5.33301 -32.333 13.333 -45 24v39h255v-39c-9.33301 -5.33301 -19.333 -9.83301 -30 -13.5s-22.667 -7.16699 -36 -10.5v-380h98c-0.666992 -32 -3 -66.333 -7 -103s-8.33301 -70.667 -13 -102h-39
l-54 148h-763z" />
    <glyph glyph-name="afii10092" unicode="&#x44a;" horiz-adv-x="635" 
d="M320 57c6 -1.33301 12.5 -2.33301 19.5 -3s14.5 -1 22.5 -1c28.667 0 51.5 7.5 68.5 22.5s25.5 43.167 25.5 84.5c0 18.667 -2.33301 34 -7 46s-10.834 21.5 -18.501 28.5s-16.667 11.667 -27 14s-21.166 3.5 -32.499 3.5c-8.66699 0 -17.167 -0.333008 -25.5 -1
s-16.833 -2 -25.5 -4v-190zM380 500v-39c-8 -5.33301 -17 -9.83301 -27 -13.5s-21 -7.16699 -33 -10.5v-136c11.333 1.33301 26.333 3 45 5s41.334 3 68.001 3c54.667 0 98.334 -12.5 131.001 -37.5s49 -62.5 49 -112.5c0 -26.667 -5.33301 -50.167 -16 -70.5
s-25.334 -37.333 -44.001 -51s-40.834 -24 -66.501 -31s-53.5 -10.5 -83.5 -10.5c-9.33301 0 -22 0.166992 -38 0.5s-33.167 0.833008 -51.5 1.5s-36.5 1.16699 -54.5 1.5s-33.333 0.5 -46 0.5h-103v39c18.667 10.667 40.667 18.667 66 24v380h-60l-49 -138h-39
c-2.66699 12.667 -5.5 27.5 -8.5 44.5s-5.66699 34.667 -8 53s-4.33301 36 -6 53s-2.5 31.833 -2.5 44.5h377z" />
    <glyph glyph-name="afii10093" unicode="&#x44b;" horiz-adv-x="830" 
d="M239 301l42.5 5.00098c17 2 38.833 3 65.5 3c52 0 94.167 -12.5 126.5 -37.5s48.5 -62.5 48.5 -112.5c0 -26.667 -5.16699 -50.167 -15.5 -70.5s-24.666 -37.333 -42.999 -51s-40 -24 -65 -31s-52.167 -10.5 -81.5 -10.5c-9.33301 0 -22.166 0.166992 -38.499 0.5
s-34 0.833008 -53 1.5s-37.833 1.16699 -56.5 1.5s-34.334 0.5 -47.001 0.5h-93v39c10.667 6 21.5 10.667 32.5 14l33.5 10v374c-12.667 2 -24.334 5.16699 -35.001 9.5s-21 9.16602 -31 14.499v39h270v-39c-16 -9.33301 -36 -17.333 -60 -24v-136zM239 57.001
c6.66699 -1.33301 13.833 -2.33301 21.5 -3s15.167 -1 22.5 -1c26.667 0 47 8.16699 61 24.5s21 43.833 21 82.5c0 36 -7.5 60.333 -22.5 73s-33.167 19 -54.5 19c-7.33301 0 -15.333 -0.333008 -24 -1s-17 -2 -25 -4v-190zM800.999 0.000976562h-265.001v39
c8 4.66699 16.333 9 25 13s18.667 7.66699 30 11v374c-25.333 4.66699 -45.333 12.667 -60 24v39h270v-39c-8 -5.33301 -17.667 -9.83301 -29 -13.5s-23.666 -7.16699 -36.999 -10.5v-374c11.333 -3.33301 22.333 -6.83301 33 -10.5s21.667 -8.16699 33 -13.5v-39z" />
    <glyph glyph-name="afii10094" unicode="&#x44c;" horiz-adv-x="554" 
d="M239 301c11.333 1.33301 26.334 3 45.001 5s41.334 3 68.001 3c54.667 0 98.334 -12.5 131.001 -37.5s49 -62.5 49 -112.5c0 -26.667 -5.33301 -50.167 -16 -70.5s-25.334 -37.333 -44.001 -51s-40.834 -24 -66.501 -31s-53.5 -10.5 -83.5 -10.5
c-9.33301 0 -22.5 0.166992 -39.5 0.5s-35.333 0.833008 -55 1.5s-39 1.16699 -58 1.5s-34.833 0.5 -47.5 0.5h-93v39c10 5.33301 20.667 9.83301 32 13.5l34 10.5v374c-12.667 2.66699 -24.334 6 -35.001 10s-21 8.66699 -31 14v39h270v-39
c-16 -9.33301 -36 -17.333 -60 -24v-136zM239.001 57c6.66699 -1.33301 13.833 -2.33301 21.5 -3s15.167 -1 22.5 -1c14 0 26.667 1.66699 38 5s21 9.16602 29 17.499s14.167 19.333 18.5 33s6.5 30.834 6.5 51.501c0 18 -2.16699 32.833 -6.5 44.5s-10.333 21 -18 28
s-16.667 12 -27 15s-21.5 4.5 -33.5 4.5c-8 0 -16.5 -0.333008 -25.5 -1s-17.5 -2 -25.5 -4v-190z" />
    <glyph glyph-name="afii10095" unicode="&#x44d;" horiz-adv-x="513" 
d="M224 -12c-43.333 0 -81.833 5.66602 -115.5 16.999s-60.167 25.666 -79.5 42.999l27 94h29c10 -9.33301 21 -22 33 -38s22.333 -30.333 31 -43c14 -5.33301 31.667 -8 53 -8c42.667 0 74 15.833 94 47.5s30.333 74.167 31 127.5l-175 -20c-2 4 -3.66699 9.66699 -5 17
s-2 14.833 -2 22.5s0.666992 15.167 2 22.5s3 13 5 17h174c-0.666992 30.667 -4 56.834 -10 78.501s-14.167 39 -24.5 52s-22.666 22.5 -36.999 28.5s-30.166 9 -47.499 9c-10.667 0 -20.667 -0.5 -30 -1.5s-15.666 -2.83301 -18.999 -5.5l-45 -118h-34
c-8.66699 19.333 -17.167 41 -25.5 65s-13.833 47.667 -16.5 71c18.667 11.333 43.167 21.833 73.5 31.5s70.166 14.5 119.499 14.5c32 0 63.167 -4.33301 93.5 -13s57.166 -23 80.499 -43s42.166 -46 56.499 -78s21.5 -71.333 21.5 -118
c0 -47.333 -7.5 -88.166 -22.5 -122.499s-34.667 -62.5 -59 -84.5s-51.833 -38.333 -82.5 -49s-62 -16 -94 -16z" />
    <glyph glyph-name="afii10096" unicode="&#x44e;" horiz-adv-x="865" 
d="M294 0h-265v39c9.33301 5.33301 19.666 9.83301 30.999 13.5s23 7.16699 35 10.5v374c-11.333 3.33301 -22.333 6.83301 -33 10.5s-21.667 8.16699 -33 13.5v39h265v-39c-7.33301 -4.66699 -15 -9 -23 -13s-18.667 -7.66699 -32 -11v-156h86c2 36 9.33301 68.333 22 97
s29.834 53 51.501 73s47.5 35.167 77.5 45.5s63.667 15.5 101 15.5c82.667 0 146.167 -22.333 190.5 -67s66.5 -110.667 66.5 -198c0 -40 -5.66699 -76 -17 -108s-28 -59.167 -50 -81.5s-49 -39.5 -81 -51.5s-68.333 -18 -109 -18c-76.667 0 -137 20.167 -181 60.5
s-67.667 98.833 -71 175.5h-86v-161c13.333 -2.66699 24 -6 32 -10s15.667 -8.66699 23 -14v-39zM473 250c0 -72 9.16699 -124.167 27.5 -156.5s45.5 -48.5 81.5 -48.5c35.333 0 60.333 17 75 51s22 85.333 22 154c0 72.667 -8 125 -24 157s-43.333 48 -82 48
c-66.667 0 -100 -68.333 -100 -205z" />
    <glyph glyph-name="afii10097" unicode="&#x44f;" horiz-adv-x="584" 
d="M56 348c0 22.667 4.00195 43.6689 12.002 63.002s20.5 36 37.5 50s38.5 25 64.5 33s57 12 93 12c8 0 19.5 -0.333008 34.5 -1s30.833 -1.33398 47.5 -2.00098l48 -2c15.333 -0.666992 27.333 -1 36 -1h126v-39c-5.33301 -4.66699 -12.833 -9 -22.5 -13
s-24.167 -7.66699 -43.5 -11v-374c24.667 -7.33301 46.667 -15.333 66 -24v-39h-265v39c16 10.667 34.333 18.667 55 24v143l-66 -10l-39.5 -80c-15.667 -30.667 -35.834 -61.667 -60.501 -93l-31 -23h-148v39l47 24c22.667 22.667 44.167 47.834 64.5 75.501l51.5 69.5
c-14.667 4.66699 -28.5 10.667 -41.5 18s-24.333 16.666 -34 27.999s-17.334 24.666 -23.001 39.999s-8.5 33.333 -8.5 54zM345.002 443.002c-6.66699 1.33301 -15.168 2.66699 -25.501 4s-19.5 2 -27.5 2c-58.667 0.666992 -88 -32 -88 -98c0 -30 9.33301 -54.333 28 -73
s47.334 -28 86.001 -28h27v193z" />
    <glyph glyph-name="afii10071" unicode="&#x451;" horiz-adv-x="537" 
d="M486 84c-5.33301 -11.333 -13.834 -22.835 -25.501 -34.502s-26 -22 -43 -31s-36.667 -16.333 -59 -22s-46.5 -8.5 -72.5 -8.5c-41.333 0 -78 6.16699 -110 18.5s-58.667 30 -80 53s-37.5 50.5 -48.5 82.5s-16.5 68 -16.5 108c0 85.333 22.333 150.333 67 195
s106.667 67 186 67c34 0 65.833 -4.66699 95.5 -14s54.334 -24.666 74.001 -45.999s33.334 -49.333 41.001 -84s7.16699 -77 -1.5 -127h-307c0.666992 -52.667 14.167 -94.667 40.5 -126s65.166 -47 116.499 -47c22 0 44.833 3.33301 68.5 10s42.167 15.334 55.5 26.001z
M279.999 454.998c-13.333 0 -25.166 -2.33301 -35.499 -7s-19.333 -13.167 -27 -25.5s-13.834 -29 -18.501 -50s-8 -47.5 -10 -79.5h161c4.66699 52 1.66699 92 -9 120s-31 42 -61 42zM84.999 658.998c0 21.333 6.66699 38.333 20 51s31 19 53 19
c21.333 0 38.833 -6.33301 52.5 -19s20.5 -29.667 20.5 -51c0 -20 -6.83301 -36.333 -20.5 -49s-31.167 -19 -52.5 -19c-22 0 -39.667 6.33301 -53 19s-20 29 -20 49zM323.999 658.998c0 21.333 6.66699 38.333 20 51s30.666 19 51.999 19c22 0 39.833 -6.33301 53.5 -19
s20.5 -29.667 20.5 -51c0 -20 -6.83301 -36.333 -20.5 -49s-31.5 -19 -53.5 -19c-21.333 0 -38.666 6.33301 -51.999 19s-20 29 -20 49z" />
    <glyph glyph-name="afii10099" unicode="&#x452;" horiz-adv-x="623" 
d="M17 597l68.0029 -0.000976562v72l-76 8v39c10 4 22.833 8 38.5 12s32.167 7.5 49.5 10.5s34.666 5.66699 51.999 8s32.666 4.16602 45.999 5.49902h34v-155h190v-61h-190v-171h1c6.66699 15.333 15.667 29.833 27 43.5s24.166 25.667 38.499 36s29.833 18.5 46.5 24.5
s34.334 9 53.001 9c26.667 0 50.5 -3.16699 71.5 -9.5s38.5 -17.5 52.5 -33.5s24.667 -37.5 32 -64.5s11 -61.167 11 -102.5v-267c0 -41.333 -4.66699 -75.666 -14 -102.999s-23.666 -49.166 -42.999 -65.499s-43.5 -27.833 -72.5 -34.5s-63.5 -10 -103.5 -10l-5 46
c18 4.66699 33 10.667 45 18s21.667 17.5 29 30.5s12.5 29 15.5 48s4.5 42.167 4.5 69.5v231c0 58 -5.5 100.333 -16.5 127s-32.5 40 -64.5 40c-26.667 0 -49.334 -9.16699 -68.001 -27.5s-32 -39.5 -40 -63.5v-244c10.667 -2.66699 20.167 -5.66699 28.5 -9
s17.166 -8.33301 26.499 -15v-39h-265v39c20.667 10.667 42.667 18.667 66 24v473h-68v61z" />
    <glyph glyph-name="afii10100" unicode="&#x453;" horiz-adv-x="466" 
d="M456 500c-0.666992 -12.667 -1.83496 -27.334 -3.50195 -44.001s-3.66699 -34 -6 -52s-5.16602 -35.667 -8.49902 -53s-6.66602 -32.666 -9.99902 -45.999h-41l-44 138h-104v-380c38 -7.33301 68 -15.333 90 -24v-39h-300v39c11.333 6.66699 22.333 11.667 33 15
s21.667 6.33301 33 9v375c-24.667 4 -46.667 11.667 -66 23v39h427zM292.999 763c5.33301 1.33301 14.168 1.83301 26.501 1.5s25.166 -1.5 38.499 -3.5s25.5 -4.83301 36.5 -8.5s18.167 -7.5 21.5 -11.5v-24l-191 -155l-40 22z" />
    <glyph glyph-name="afii10101" unicode="&#x454;" horiz-adv-x="504" 
d="M476 81c-4.66699 -13.333 -12.333 -25.4961 -23 -36.4961s-23.5 -20.833 -38.5 -29.5s-32 -15.334 -51 -20.001s-38.833 -7 -59.5 -7c-45.333 0 -85 6.16699 -119 18.5s-62.5 30 -85.5 53s-40.167 50.667 -51.5 83s-17 68.166 -17 107.499c0 42 6.66699 79.333 20 112
s31.833 60 55.5 82s51.834 38.833 84.501 50.5s68.667 17.5 108 17.5c42 0 77.833 -4.5 107.5 -13.5s53.5 -18.167 71.5 -27.5c-1.33301 -11.333 -3.5 -23.5 -6.5 -36.5s-6.83301 -25.833 -11.5 -38.5l-14 -36.5c-4.66699 -11.667 -9 -21.5 -13 -29.5h-34l-44 116
c-9.33301 6 -24.333 9 -45 9c-16 0 -31.333 -3 -46 -9s-27.667 -16 -39 -30s-20.5 -32.5 -27.5 -55.5s-10.833 -51.5 -11.5 -85.5l168 13c4.66699 -8.66699 7 -20.834 7 -36.501s-2.33301 -27.834 -7 -36.501l-164 2c7.33301 -43.333 25.333 -79 54 -107s65.667 -42 111 -42
c23.333 0 43.666 3.33301 60.999 10s32 14.667 44 24z" />
    <glyph glyph-name="afii10102" unicode="&#x455;" horiz-adv-x="452" 
d="M288 109c0 17.333 -6.16602 32.3369 -18.499 45.0039s-27.666 24.334 -45.999 35.001s-38.333 21.334 -60 32.001s-41.667 23.167 -60 37.5s-33.666 31.166 -45.999 50.499s-18.5 43 -18.5 71c0 20 4.66699 38.167 14 54.5s22 30.166 38 41.499
s35.167 20.166 57.5 26.499s46.5 9.5 72.5 9.5c36 0 69.5 -2.83301 100.5 -8.5s58.167 -13.5 81.5 -23.5c-2.66699 -21.333 -8 -44.166 -16 -68.499s-15.667 -46.5 -23 -66.5h-34l-42 102c-8 3.33301 -16.333 5.5 -25 6.5s-18.334 1.5 -29.001 1.5
c-20 0 -35.167 -5.83301 -45.5 -17.5s-15.5 -24.834 -15.5 -39.501c0 -16.667 6.16699 -31.167 18.5 -43.5s27.666 -23.833 45.999 -34.5s38.333 -21.334 60 -32.001s41.667 -22.834 60 -36.501s33.666 -29.834 45.999 -48.501s18.5 -41 18.5 -67
c0 -46 -18.667 -82.167 -56 -108.5s-87.333 -39.5 -150 -39.5c-32 0 -65 3.33301 -99 10s-63.333 16 -88 28c1.33301 24 7 48.333 17 73s20.667 46.667 32 66h34l49 -109c7.33301 -5.33301 15.5 -8.5 24.5 -9.5s17.5 -1.5 25.5 -1.5c19.333 0 37 5.66699 53 17s24 27 24 47z
" />
    <glyph glyph-name="afii10103" unicode="&#x456;" horiz-adv-x="332" 
d="M307 0l-276.001 0.000976562v39c10 5.33301 20.333 9.83301 31 13.5s22.334 7.16699 35.001 10.5v366l-66 8v39c10 4 22.5 8 37.5 12s30.833 7.5 47.5 10.5s33 5.66699 49 8s30 4.16602 42 5.49902h34v-449c13.333 -3.33301 25.333 -6.83301 36 -10.5
s20.667 -8.16699 30 -13.5v-39zM79.999 664.001c0 23.333 8 41.666 24 54.999s36.667 20 62 20s46 -6.66699 62 -20s24 -31.666 24 -54.999c0 -22.667 -8 -40.667 -24 -54s-36.667 -20 -62 -20s-46 6.66699 -62 20s-24 31.333 -24 54z" />
    <glyph glyph-name="afii10104" unicode="&#x457;" horiz-adv-x="380" 
d="M32 663c0 22.667 6 40.5 18 53.5s29 19.5 51 19.5c21.333 0 37.833 -6.5 49.5 -19.5s17.5 -30.833 17.5 -53.5c0 -21.333 -5.83301 -38.5 -17.5 -51.5s-28.167 -19.5 -49.5 -19.5c-22 0 -39 6.5 -51 19.5s-18 30.167 -18 51.5zM211 663c0 22.667 6 40.5 18 53.5
s28.667 19.5 50 19.5c22 0 38.833 -6.5 50.5 -19.5s17.5 -30.833 17.5 -53.5c0 -21.333 -5.83301 -38.5 -17.5 -51.5s-28.5 -19.5 -50.5 -19.5c-21.333 0 -38 6.5 -50 19.5s-18 30.167 -18 51.5zM328 0l-276 0.000976562v39c10 5.33301 20.333 9.83301 31 13.5
s22.334 7.16699 35.001 10.5v366l-66 8v39c10 4 22.5 8 37.5 12s30.833 7.5 47.5 10.5s33.167 5.66699 49.5 8s30.166 4.16602 41.499 5.49902h34v-449c13.333 -3.33301 25.333 -6.83301 36 -10.5s20.667 -8.16699 30 -13.5v-39z" />
    <glyph glyph-name="afii10105" unicode="&#x458;" horiz-adv-x="320" 
d="M97 429l-66.001 8v39c10 4.66699 22.333 9 37 13s30.334 7.5 47.001 10.5s33.167 5.5 49.5 7.5s30.5 3.66699 42.5 5h34v-469c0 -31.333 -3.83301 -59.333 -11.5 -84s-17.667 -46 -30 -64s-26 -33.333 -41 -46s-29.667 -23.167 -44 -31.5s-27.5 -14.833 -39.5 -19.5
s-21.333 -8 -28 -10l-20 30c8 4 16 10.5 24 19.5s15.5 21.5 22.5 37.5s12.667 36.167 17 60.5s6.5 53.833 6.5 88.5v405zM79.999 664c0 23.333 8 41.666 24 54.999s36.667 20 62 20s46 -6.66699 62 -20s24 -31.666 24 -54.999c0 -22.667 -8 -40.667 -24 -54
s-36.667 -20 -62 -20s-46 6.66699 -62 20s-24 31.333 -24 54z" />
    <glyph glyph-name="afii10106" unicode="&#x459;" horiz-adv-x="800" 
d="M561 461c-8 -4.66699 -18.0049 -8.99707 -30.0049 -12.9971s-24 -7.66699 -36 -11v-136l42.5 5c17 2 38.833 3 65.5 3c52 0 94.167 -12.5 126.5 -37.5s48.5 -62.5 48.5 -112.5c0 -26.667 -5.16699 -50.167 -15.5 -70.5s-24.666 -37.333 -42.999 -51s-40 -24 -65 -31
s-52.167 -10.5 -81.5 -10.5c-9.33301 0 -22.166 0.166992 -38.499 0.5s-34 0.833008 -53 1.5s-37.833 1.16699 -56.5 1.5s-34.334 0.5 -47.001 0.5h-82v39c8 5.33301 16.167 10 24.5 14s18.5 7.33301 30.5 10v380h-110c-0.666992 -35.333 -2.66699 -72.166 -6 -110.499
s-8.5 -75.833 -15.5 -112.5s-16.167 -71.167 -27.5 -103.5s-25 -59.833 -41 -82.5c-13.333 -18.667 -28 -32 -44 -40s-30.333 -10.667 -43 -8c-8.66699 4.66699 -16.667 12.167 -24 22.5s-13.666 21.166 -18.999 32.499s-9.66602 22.666 -12.999 33.999s-5.33301 21 -6 29
l23 34l94 -25c16.667 31.333 29 75.166 37 131.499s12.333 117.166 13 182.499c-13.333 4 -26.166 9 -38.499 15s-23.166 12.333 -32.499 19v39h463v-39zM494.995 57.0029c6.66699 -1.33301 13.833 -2.33301 21.5 -3s15.167 -1 22.5 -1c26.667 0 47 8.16699 61 24.5
s21 43.833 21 82.5c0 36 -7.5 60.333 -22.5 73s-33.167 19 -54.5 19c-7.33301 0 -15.333 -0.333008 -24 -1s-17 -2 -25 -4v-190z" />
    <glyph glyph-name="afii10107" unicode="&#x45a;" horiz-adv-x="874" 
d="M370 0l-0.00195312 39c17.333 12.667 35.666 20.667 54.999 24v161h-186v-161c11.333 -2.66699 21.5 -6 30.5 -10s17.167 -8.66699 24.5 -14v-39h-265v39c9.33301 5.33301 19.666 9.83301 30.999 13.5s23 7.16699 35 10.5v374c-12 3.33301 -23.667 6.83301 -35 10.5
s-21.666 8.16699 -30.999 13.5v39h265v-39c-15.333 -9.33301 -33.666 -17.333 -54.999 -24v-156h186v156c-19.333 4 -37.666 12 -54.999 24v39h265v-39c-8 -4.66699 -18 -9 -30 -13s-24 -7.66699 -36 -11v-136l42.5 5c17 2 38.833 3 65.5 3c52 0 94.167 -12.5 126.5 -37.5
s48.5 -62.5 48.5 -112.5c0 -26.667 -5.16699 -50.167 -15.5 -70.5s-24.666 -37.333 -42.999 -51s-40 -24 -65 -31s-52.167 -10.5 -81.5 -10.5c-9.33301 0 -22.166 0.166992 -38.499 0.5s-34 0.833008 -53 1.5s-37.833 1.16699 -56.5 1.5s-34.334 0.5 -47.001 0.5h-82z
M568.998 57c6.66699 -1.33301 13.833 -2.33301 21.5 -3s15.167 -1 22.5 -1c26.667 0 47 8.16699 61 24.5s21 43.833 21 82.5c0 36 -7.5 60.333 -22.5 73s-33.167 19 -54.5 19c-7.33301 0 -15.333 -0.333008 -24 -1s-17 -2 -25 -4v-190z" />
    <glyph glyph-name="afii10108" unicode="&#x45b;" horiz-adv-x="631" 
d="M17 597h68.0039v72l-76 8v39c10 4 22.833 8 38.5 12s32.167 7.5 49.5 10.5s34.666 5.66699 51.999 8s32.666 4.16602 45.999 5.49902h34v-155h190v-61h-190v-172h1c6.66699 15.333 15.667 29.833 27 43.5s24.166 25.667 38.499 36s29.833 18.5 46.5 24.5
s34.334 9 53.001 9c26.667 0 50.5 -3.16699 71.5 -9.5s38.5 -17.5 52.5 -33.5s24.667 -37.5 32 -64.5s11 -61.167 11 -102.5v-195l63 -9v-35c-9.33301 -4 -21.333 -8 -36 -12s-30.167 -7.83301 -46.5 -11.5s-32.333 -6.66699 -48 -9s-29.5 -4.16602 -41.5 -5.49902h-34
l-1 240c0 58 -5.5 100.333 -16.5 127s-32.5 40 -64.5 40c-26.667 0 -49.334 -9.16699 -68.001 -27.5s-32 -39.5 -40 -63.5v-243c10.667 -2.66699 20.167 -5.66699 28.5 -9s17.166 -8.33301 26.499 -15v-39h-265v39c20.667 10.667 42.667 18.667 66 24v473h-68v61z" />
    <glyph glyph-name="afii10109" unicode="&#x45c;" horiz-adv-x="594" 
d="M342 500l229.002 -0.000976562v-39c-6.66699 -5.33301 -14.834 -9.83301 -24.501 -13.5s-22.5 -8.16699 -38.5 -13.5c-22.667 -27.333 -46 -53.5 -70 -78.5s-47.333 -48.167 -70 -69.5c14.667 -16 29.667 -33.333 45 -52l45.5 -57.5l46 -58.5
c15.667 -19.333 31.5 -37.666 47.5 -54.999l42 -24v-39h-157l-32 23c-28.667 34.667 -52.167 69.334 -70.5 104.001l-55.5 103h-40v-167c21.333 -6 40 -14 56 -24v-39h-266v39c18 10.667 40 18.667 66 24v374c-23.333 4.66699 -45.333 12.667 -66 24v39h255v-39
c-6.66699 -4.66699 -13.167 -9 -19.5 -13s-14.833 -7.66699 -25.5 -11v-163l46 10c19.333 22 38.666 45.667 57.999 71s37 51.666 53 78.999c-11.333 4.66699 -21 9 -29 13s-16.333 8.66699 -25 14v39zM347.002 762.999c5.33301 1.33301 14.168 1.83301 26.501 1.5
s25.166 -1.5 38.499 -3.5s25.5 -4.83301 36.5 -8.5s18.167 -7.5 21.5 -11.5v-24l-191 -155l-40 22z" />
    <glyph glyph-name="afii10110" unicode="&#x45e;" horiz-adv-x="528" 
d="M38 437c-10 2.66699 -19.166 5.99902 -27.499 9.99902s-16.833 8.66699 -25.5 14v39h263v-38c-14 -9.33301 -33 -17.666 -57 -24.999l101 -251l17 -64h2l16 65l78 250c-20 4 -38.333 12 -55 24v39h193v-39c-14 -9.33301 -33 -17.333 -57 -24l-163 -437
c-16 -42.667 -32 -77.5 -48 -104.5s-32 -48.5 -48 -64.5s-32 -27.167 -48 -33.5s-32 -10.5 -48 -12.5c-6.66699 6 -12.667 13.5 -18 22.5s-10 18.667 -14 29s-7.33301 20.833 -10 31.5s-4.33398 20.667 -5.00098 30l13 24h122c6 9.33301 11.167 19.333 15.5 30
s9.5 26.667 15.5 48zM285.001 555.999c-66 0 -114.001 12.001 -144.001 36.001s-45 56 -45 96c9.33301 8 23 14.167 41 18.5s36.667 7.16602 56 8.49902l34 -13v-89c16.667 -7.33301 36.334 -11 59.001 -11c6.66699 0 15.834 0.666992 27.501 2s22.167 3.33301 31.5 6v92
l34 13c18 -1.33301 35.667 -4 53 -8s30.666 -10.333 39.999 -19c0 -40 -15.167 -72 -45.5 -96s-77.5 -36 -141.5 -36z" />
    <glyph glyph-name="afii10193" unicode="&#x45f;" horiz-adv-x="654" 
d="M294 461l-22.998 -12c-8 -4 -18.667 -8 -32 -12v-380h176v380c-14.667 3.33301 -25.834 7 -33.501 11s-14.834 8.33301 -21.501 13v39h265v-39c-21.333 -12 -43.333 -20 -66 -24v-374c14 -1.33301 26.333 -4.33301 37 -9s20.334 -9.66699 29.001 -15v-39h-227
c-4 -32 -10.667 -64.167 -20 -96.5s-19 -63.5 -29 -93.5h-44c-10.667 32 -20.167 63.667 -28.5 95s-15.166 63 -20.499 95h-227v39c7.33301 4.66699 16.666 9 27.999 13s24 7.66699 38 11v374c-10 1.33301 -20.333 3.83301 -31 7.5s-22.334 9.16699 -35.001 16.5v39h265v-39
z" />
    <glyph glyph-name="afii10146" unicode="&#x462;" horiz-adv-x="769" 
d="M381 558l0.00488281 -155.999c12 1.33301 27.167 2.66602 45.5 3.99902s34.166 2 47.499 2c38 0 73.333 -3.33301 106 -10s61 -17.834 85 -33.501s42.833 -36.167 56.5 -61.5s20.5 -56.666 20.5 -93.999c0 -38 -7.16699 -70.5 -21.5 -97.5s-34.5 -49 -60.5 -66
s-57.333 -29.333 -94 -37s-77.334 -11.5 -122.001 -11.5c-3.33301 0 -10.666 0.166992 -21.999 0.5s-24 0.666016 -38 0.999023l-43.5 1c-15 0.333008 -27.5 0.5 -37.5 0.5h-154v38c12 6.66699 25.167 12.667 39.5 18s28.5 9 42.5 11v491h-94l-64 -166h-41
c-2.66699 13.333 -5.33398 29.833 -8.00098 49.5s-5 40 -7 61s-3.66699 41.833 -5 62.5s-2 38.667 -2 54h221v42c-13.333 2.66699 -27.333 6.33398 -42 11.001s-28 10.667 -40 18v34h324v-34c-11.333 -6.66699 -25.333 -12.5 -42 -17.5s-33.334 -8.83301 -50.001 -11.5v-42
h248c-0.666992 -30 -3.33398 -61.5 -8.00098 -94.5s-9.33398 -61.167 -14.001 -84.5h-42l-58 118h-126zM437.005 343.001c-12.667 0 -23.335 -0.332031 -32.002 -0.999023s-16.667 -2 -24 -4v-272c6 -1.33301 15.333 -2.33301 28 -3s22.667 -1 30 -1
c18 0 35.333 2.16699 52 6.5s31.334 12.166 44.001 23.499s22.834 26.333 30.501 45s11.5 42.667 11.5 72c0 48 -12.833 82.333 -38.5 103s-59.5 31 -101.5 31z" />
    <glyph glyph-name="afii10194" unicode="&#x463;" horiz-adv-x="646" 
d="M331 443v-147.001c11.333 1.33301 26.333 3 45 5s41.334 3 68.001 3c54.667 0 98.334 -12.167 131.001 -36.5s49 -61.5 49 -111.5c0 -26.667 -5.33301 -50 -16 -70s-25.334 -36.667 -44.001 -50s-40.834 -23.333 -66.501 -30s-53.5 -10 -83.5 -10
c-9.33301 0 -22.5 0.166992 -39.5 0.5s-35.333 0.833008 -55 1.5s-39 1.16699 -58 1.5s-34.833 0.5 -47.5 0.5h-93v39c10 5.33301 20.667 9.83301 32 13.5l34 10.5v380h-68l-44 -138h-42c-3.33301 14 -6.5 29.667 -9.5 47s-5.5 34.833 -7.5 52.5
s-3.83301 34.834 -5.5 51.501s-2.5 31.334 -2.5 44.001h179v169l-76 8v39c8.66699 4 20.667 8 36 12s31.833 7.5 49.5 10.5s35.334 5.66699 53.001 8s33.5 4.16602 47.5 5.49902h34v-252h199c0 -24 -1.33301 -48 -4 -72s-6.33398 -50 -11.001 -78h-43l-69 93h-72z
M331 56.999c6.66699 -1.33301 13.833 -2.33496 21.5 -3.00195s15.167 -1 22.5 -1c14 0 26.667 1.5 38 4.5s21 8.5 29 16.5s14.167 18.667 18.5 32s6.5 30.333 6.5 51c0 18 -2.16699 32.833 -6.5 44.5s-10.333 20.834 -18 27.501s-16.667 11.334 -27 14.001s-21.5 4 -33.5 4
c-8 0 -16.5 -0.333008 -25.5 -1s-17.5 -2 -25.5 -4v-185z" />
    <glyph glyph-name="afii10147" unicode="&#x472;" horiz-adv-x="754" 
d="M39 350c0 52 7.33301 100.167 22 144.5s36.334 82.666 65.001 114.999s64 57.5 106 75.5s90.333 27 145 27s103 -9 145 -27s77.167 -43.167 105.5 -75.5s49.833 -70.666 64.5 -114.999s22 -92.5 22 -144.5s-7.33301 -100.167 -22 -144.5s-36.167 -82.666 -64.5 -114.999
s-63.5 -57.5 -105.5 -75.5s-90.333 -27 -145 -27s-103 9 -145 27s-77.333 43.167 -106 75.5s-50.334 70.666 -65.001 114.999s-22 92.5 -22 144.5zM386 53c26.667 0 50.001 6.66699 70.001 20s36.667 31.833 50 55.5s23.5 51.667 30.5 84s11.167 67.833 12.5 106.5
c-28 -34 -58.333 -51 -91 -51c-16 0 -31.333 3.5 -46 10.5s-29.167 14.5 -43.5 22.5s-28.5 15.5 -42.5 22.5s-27.667 10.5 -41 10.5c-11.333 0 -24.333 -2.16699 -39 -6.5s-28.334 -13.5 -41.001 -27.5c2.66699 -36 8.16699 -69.167 16.5 -99.5s20 -56.5 35 -78.5
s33.333 -39 55 -51s46.5 -18 74.5 -18zM369.001 647c-30 0 -55.3301 -7.00098 -75.9971 -21.001s-37.5 -33.5 -50.5 -58.5s-22.5 -54.333 -28.5 -88s-9.33301 -70.5 -10 -110.5c26 35.333 54.333 56 85 62c14.667 2 28 1.66699 40 -1c14 -2 27.5 -6.33301 40.5 -13
s25.667 -13.5 38 -20.5s24.666 -13.333 36.999 -19s24.833 -8.5 37.5 -8.5c9.33301 0 20 0.833008 32 2.5s23.333 6.83398 34 15.501c-1.33301 37.333 -5.83301 72 -13.5 104s-18.834 59.5 -33.501 82.5s-32.834 41 -54.501 54s-47.5 19.5 -77.5 19.5z" />
    <glyph glyph-name="afii10195" unicode="&#x473;" horiz-adv-x="594" 
d="M31 250c0 40.667 6.16406 77.167 18.4971 109.5s30 59.833 53 82.5s50.833 40 83.5 52s69.667 18 111 18c46.667 0 86.834 -6.5 120.501 -19.5s61.334 -31 83.001 -54s37.5 -50.667 47.5 -83s15 -67.5 15 -105.5c0 -40.667 -6 -77.167 -18 -109.5
s-29.5 -59.833 -52.5 -82.5s-51 -40 -84 -52s-70.167 -18 -111.5 -18c-45.333 0 -84.666 6.5 -117.999 19.5s-61 31 -83 54s-38.333 50.667 -49 83s-16 67.5 -16 105.5zM370.997 273c5.33301 0 12.335 1.66602 21.002 4.99902s16.667 8.66602 24 15.999
c-4 48.667 -16 87.667 -36 117s-50.333 44 -91 44c-34 0 -61 -14.333 -81 -43s-30.667 -76.667 -32 -144c16 16.667 31.667 28.667 47 36s29 11 41 11c10.667 0 20.5 -2.16699 29.5 -6.5s17.667 -9.16602 26 -14.499s16.666 -10.166 24.999 -14.499s17.166 -6.5 26.499 -6.5
zM225.999 231.999c-7.33301 0 -15.3311 -2.66504 -23.998 -7.99805s-16.667 -13 -24 -23c4 -46.667 16.5 -84.334 37.5 -113.001s53.833 -43 98.5 -43c29.333 0 53.5 14.167 72.5 42.5s29.167 76.166 30.5 143.499c-28.667 -28.667 -56 -43 -82 -43
c-10.667 0 -20.667 2.33301 -30 7s-18.333 9.66699 -27 15s-17.334 10.333 -26.001 15s-17.334 7 -26.001 7z" />
    <glyph glyph-name="afii10148" unicode="&#x474;" horiz-adv-x="763" 
d="M688 712c10 -2.66699 19.835 -9.33594 29.502 -20.0029s18.5 -23.167 26.5 -37.5s14.5 -29.166 19.5 -44.499s7.83301 -29 8.5 -41l-31 -35l-107 28c-18.667 -26.667 -38.334 -61.667 -59.001 -105s-41 -90.833 -61 -142.5s-38.333 -105.834 -55 -162.501
s-30.334 -111.334 -41.001 -164.001h-84l-259 645c-13.333 3.33301 -26.666 7.5 -39.999 12.5s-25 10.5 -35 16.5v38h333v-38c-11.333 -5.33301 -24 -10.666 -38 -15.999s-28.667 -9.66602 -44 -12.999l128 -374l23 -94h2l18 95c13.333 52.667 28.5 101.5 45.5 146.5
s34.5 85.333 52.5 121s35.667 66.334 53 92.001s32.666 45.5 45.999 59.5c11.333 12 22.833 20.333 34.5 25s23.167 7.33398 34.5 8.00098z" />
    <glyph glyph-name="afii10196" unicode="&#x475;" horiz-adv-x="558" 
d="M324 0l-86.002 -11.998l-195 449c-19.333 6.66699 -37 14.667 -53 24v39h263v-38c-8.66699 -4.66699 -17.5 -9.16699 -26.5 -13.5s-19.167 -8.16602 -30.5 -11.499l93 -256l15 -62h2l10 67l19 74c6.66699 25.333 14.167 50.166 22.5 74.499s17.5 47.666 27.5 69.999
s21.667 42.5 35 60.5c13.333 18.667 27.833 31.5 43.5 38.5s29.834 9.16699 42.501 6.5c8.66699 -4.66699 17 -11.5 25 -20.5s14.833 -19 20.5 -30s10.334 -22.5 14.001 -34.5s6.16699 -23 7.5 -33l-28 -39l-84 25c-8 -12 -16 -26.333 -24 -43s-15.667 -34.334 -23 -53.001
s-14.333 -38 -21 -58s-12.667 -39 -18 -57z" />
    <glyph glyph-name="uni048A" unicode="&#x48a;" horiz-adv-x="812" 
d="M321 0l-301 -0.00195312v38c12.667 6.66699 26 12.667 40 18s28 9 42 11v566c-13.333 3.33301 -27.333 7.16602 -42 11.499s-28 10.166 -40 17.499v38h301v-38c-10 -6 -21.333 -11.667 -34 -17s-26.334 -9.33301 -41.001 -12v-380l-10 -78l49 82l252 352v24
c-31.333 7.33301 -57.666 17 -78.999 29v38h301v-38c-11.333 -7.33301 -24.166 -13.166 -38.499 -17.499s-28.833 -8.16602 -43.5 -11.499v-568h112l10 -13c-2.66699 -12.667 -7.83398 -27.834 -15.501 -45.501s-17 -36 -28 -55s-23.167 -37.5 -36.5 -55.5
s-26.666 -33.333 -39.999 -46h-54l34 150h-201v38c9.33301 4.66699 20.5 9.83398 33.5 15.501s26.833 10.167 41.5 13.5v379l10 79l-45 -79l-256 -357v-22c15.333 -3.33301 29.666 -7.66602 42.999 -12.999s25.333 -10.666 36 -15.999v-38zM390 740.998
c-30.667 0 -58.499 2.83594 -83.499 8.50293s-46.5 14 -64.5 25s-31.833 24.833 -41.5 41.5s-14.5 35.667 -14.5 57c12 8.66699 28 14.334 48 17.001s38 4.33398 54 5.00098l34 -18v-78c9.33301 -4.66699 20.166 -7.83398 32.499 -9.50098s24.5 -2.5 36.5 -2.5
c9.33301 0 20.833 0.666992 34.5 2s25.167 3.66602 34.5 6.99902v81l34 18c12.667 1.33301 28.5 0.166016 47.5 -3.50098s35.833 -9.83398 50.5 -18.501c0 -42.667 -18 -75.334 -54 -98.001s-85.333 -34 -148 -34z" />
    <glyph glyph-name="uni048B" unicode="&#x48b;" horiz-adv-x="691" 
d="M29 500h266.001v-39c-7.33301 -4 -15.833 -8 -25.5 -12s-21.167 -8 -34.5 -12v-225l-11 -93h5l39 75l183 306h189v-39c-21.333 -12 -43.333 -20 -66 -24v-380h106l6 -10c-3.33301 -16 -9.83301 -33.667 -19.5 -53s-20.834 -38 -33.501 -56s-25.5 -34.667 -38.5 -50
s-24.167 -27.333 -33.5 -36h-49l31 148h-169v39c18.667 10.667 38.667 18.667 60 24v236l10 79h-5l-38 -75l-181 -303h-191v39c11.333 5.33301 22.333 9.83301 33 13.5s21.667 7.16699 33 10.5v374c-26 4 -48 12 -66 24v39zM352.001 551
c-66 0 -114.001 12.002 -144.001 36.002s-45 56 -45 96c5.33301 4 12.166 7.5 20.499 10.5s17 5.66699 26 8s18 4.16602 27 5.49902s16.833 2.33301 23.5 3l34 -13v-89c16.667 -7.33301 36.334 -11 59.001 -11c6.66699 0 15.834 0.666992 27.501 2s22.167 3.33301 31.5 6v92
l34 13c6.66699 -0.666992 14.5 -1.83398 23.5 -3.50098s18 -3.66699 27 -6s17.333 -5 25 -8s13.5 -6.16699 17.5 -9.5c0 -40 -15.167 -72 -45.5 -96s-77.5 -36 -141.5 -36z" />
    <glyph glyph-name="uni048C" unicode="&#x48c;" horiz-adv-x="683" 
d="M10 565l135.002 -0.00292969v68c-13.333 2.66699 -27.333 6.33398 -42 11.001s-28 10.667 -40 18v38h324v-38c-11.333 -6.66699 -25.333 -12.5 -42 -17.5s-33.334 -8.83301 -50.001 -11.5v-68h194v-64h-194v-82c12 2 27.167 3.66699 45.5 5s34.166 2 47.499 2
c38 0 73.333 -3.66699 106 -11s61 -19.166 85 -35.499s42.833 -37.666 56.5 -63.999s20.5 -58.166 20.5 -95.499c0 -38 -7.16699 -71 -21.5 -99s-34.5 -51.167 -60.5 -69.5s-57.333 -32 -94 -41s-77.334 -13.5 -122.001 -13.5c-3.33301 0 -10.666 0.166992 -21.999 0.5
s-24 0.666016 -38 0.999023l-43.5 1c-15 0.333008 -27.5 0.5 -37.5 0.5h-154v38c12 6.66699 25.167 12.667 39.5 18s28.5 9 42.5 11v434h-135v64zM351.002 360.997c-23.333 0 -42.002 -2 -56.002 -6v-289c6 -1.33301 15.333 -2.33301 28 -3s22.667 -1 30 -1
c18 0 35.333 2.83301 52 8.5s31.334 14.667 44.001 27s22.834 28.5 30.501 48.5s11.5 44.667 11.5 74c0 48 -12.833 83.5 -38.5 106.5s-59.5 34.5 -101.5 34.5z" />
    <glyph glyph-name="uni048D" unicode="&#x48d;" horiz-adv-x="544" 
d="M2 495l92.999 0.000976562v174l-76 8v39c9.33301 4 22 8 38 12s33 7.5 51 10.5s35.667 5.66699 53 8s32 4.16602 44 5.49902h34v-257h145v-61h-145v-133l42.5 5c17 2 38.833 3 65.5 3c52 0 94.167 -12.5 126.5 -37.5s48.5 -62.5 48.5 -112.5
c0 -26.667 -5.16699 -50.167 -15.5 -70.5s-24.666 -37.333 -42.999 -51s-40 -24 -65 -31s-52.167 -10.5 -81.5 -10.5c-9.33301 0 -22.166 0.166992 -38.499 0.5s-34 0.833008 -53 1.5s-37.833 1.16699 -56.5 1.5s-34.334 0.5 -47.001 0.5h-93v39
c10.667 6 21.5 10.667 32.5 14l33.5 10v371h-93v61zM238.999 57.001c6.66699 -1.33301 13.833 -2.33301 21.5 -3s15.167 -1 22.5 -1c26.667 0 47 8.16699 61 24.5s21 43.833 21 82.5c0 36 -7.5 60.333 -22.5 73s-33.167 19 -54.5 19c-7.33301 0 -15.333 -0.333008 -24 -1
s-17 -2 -25 -4v-190z" />
    <glyph glyph-name="uni048E" unicode="&#x48e;" horiz-adv-x="640" 
d="M252 67c18 -2.66699 35.8301 -6.49902 53.4971 -11.499s33.5 -10.833 47.5 -17.5v-38h-333v38c12.667 7.33301 26.167 13.333 40.5 18s28.166 8.33398 41.499 11.001v566c-15.333 2.66699 -30 6.5 -44 11.5s-26.667 10.833 -38 17.5v38h105
c12.667 0 27.334 0.333008 44.001 1s34.334 1.5 53.001 2.5l56.5 3c19 1 36.833 1.5 53.5 1.5c35.333 0 69.833 -3.5 103.5 -10.5s63.667 -18.833 90 -35.5s47.5 -38.834 63.5 -66.501s24 -62.167 24 -103.5c0 -27.333 -3.83301 -51.833 -11.5 -73.5s-18.167 -41 -31.5 -58
s-29.166 -31.667 -47.499 -44s-38.166 -22.5 -59.499 -30.5l37 -63l-80 -43l-50 89c-10 -2 -20.333 -3.33301 -31 -4s-21.667 -1 -33 -1c-6.66699 0 -16.167 0.166992 -28.5 0.5s-20.833 1.16602 -25.5 2.49902v-200zM305.997 643.001
c-13.333 0 -23.833 -0.499023 -31.5 -1.49902s-15.167 -2.5 -22.5 -4.5v-304c6 -2 15 -3.16699 27 -3.5s21.667 -0.5 29 -0.5c14.667 0 29.667 2 45 6l-54 93l48 26l52 -92c14.667 12.667 26.5 29.167 35.5 49.5s13.5 45.5 13.5 75.5c0 53.333 -13 92.666 -39 117.999
s-60.333 38 -103 38z" />
    <glyph glyph-name="uni048F" unicode="&#x48f;" horiz-adv-x="609" 
d="M297 -200l-275.999 -0.00195312v39c22.667 10.667 44.667 18.667 66 24v566l-66 8v39c10.667 4.66699 24 9.16699 40 13.5s32.667 8.16602 50 11.499s34.166 6 50.499 8s30.166 3 41.499 3h28v-112c11.333 29.333 27 53.833 47 73.5s47.667 31.5 83 35.5
c7.33301 1.33301 15 2 23 2s16 -0.333008 24 -1c26 -2 49.5 -8.33301 70.5 -19s38.833 -26.167 53.5 -46.5s26 -45.666 34 -75.999s12 -66.166 12 -107.499c0 -62 -12.167 -114.333 -36.5 -157s-58.5 -74 -102.5 -94l49 -77l-74 -39l-62 98c-16.667 -2.66699 -34 -3 -52 -1
c-15.333 0.666992 -27.833 2.33398 -37.5 5.00098s-20.167 6.66699 -31.5 12v-145c10.667 -1.33301 21.334 -3.83301 32.001 -7.5s22 -9.16699 34 -16.5v-39zM329.001 431.998c-23.333 0 -44.667 -9.16797 -64 -27.501s-30.666 -47.166 -33.999 -86.499v-250
c10.667 -8 22 -13.833 34 -17.5s27.667 -5.5 47 -5.5c7.33301 0 14.666 1 21.999 3l-54 87l50 31l52 -83c13.333 17.333 23.5 41.166 30.5 71.499s10.5 65.833 10.5 106.5c0 54.667 -6.83301 96.834 -20.5 126.501s-38.167 44.5 -73.5 44.5z" />
    <glyph glyph-name="afii10050" unicode="&#x490;" horiz-adv-x="538" 
d="M252 67c16.667 -2.66699 33.168 -6.66895 49.501 -12.002s31.833 -11 46.5 -17v-38h-328v38c29.333 14.667 56.666 24.334 81.999 29.001v566c-13.333 2.66699 -27.166 6.33398 -41.499 11.001s-27.833 10.667 -40.5 18v38h390l60 150h42c2.66699 -16 5 -34 7 -54
s3.66699 -40 5 -60s2.16602 -38.833 2.49902 -56.5s0.5 -32.5 0.5 -44.5h-275v-568z" />
    <glyph glyph-name="afii10098" unicode="&#x491;" horiz-adv-x="441" 
d="M333 500c1.33301 4.66699 3 9.16797 5 13.501s3.66699 8.83301 5 13.5l44 111h41c2.66699 -14.667 5 -30.667 7 -48s3.66699 -34.833 5 -52.5s2.5 -34.834 3.5 -51.501l2.5 -43h-207v-380c38 -7.33301 68 -15.333 90 -24v-39h-300v39c11.333 6.66699 22.333 11.667 33 15
s21.667 6.33301 33 9v375c-24.667 4 -46.667 11.667 -66 23v39h304z" />
    <glyph glyph-name="uni0492" unicode="&#x492;" horiz-adv-x="562" 
d="M29 384l82.001 -0.00195312v249c-13.333 2.66699 -27.166 6.33398 -41.499 11.001s-27.833 10.667 -40.5 18v38h512c0 -16 -0.333008 -34.333 -1 -55s-1.66699 -41.667 -3 -63s-3.33301 -42.5 -6 -63.5s-5.33398 -39.833 -8.00098 -56.5h-41l-63 173h-158v-251h135v-70
h-135v-247c16.667 -2.66699 33.167 -6.66699 49.5 -12s31.833 -11 46.5 -17v-38h-328v38c29.333 14.667 56.666 24.334 81.999 29.001v247h-82v70z" />
    <glyph glyph-name="uni0493" unicode="&#x493;" horiz-adv-x="466" 
d="M456 500c-0.666992 -12.667 -1.83496 -27.334 -3.50195 -44.001s-3.66699 -34 -6 -52s-5.16602 -35.667 -8.49902 -53s-6.66602 -32.666 -9.99902 -45.999h-41l-44 138h-104v-184h94v-70h-94v-126c38 -7.33301 68 -15.333 90 -24v-39h-300v39
c11.333 6.66699 22.333 11.667 33 15s21.667 6.33301 33 9v126h-69v70h69v179c-24.667 4 -46.667 11.667 -66 23v39h427z" />
    <glyph glyph-name="uni0494" unicode="&#x494;" horiz-adv-x="652" 
d="M252 67c13.333 -3.33301 26.3301 -7.66797 38.9971 -13.001s24.334 -10.666 35.001 -15.999v-38h-306v38c29.333 14.667 56.666 24.334 81.999 29.001v566c-13.333 2.66699 -27.166 6.33398 -41.499 11.001s-27.833 10.667 -40.5 18v38h512
c0 -16 -0.333008 -33.5 -1 -52.5s-1.66699 -38.333 -3 -58s-3.33301 -39.167 -6 -58.5s-5.33398 -37.333 -8.00098 -54h-41l-63 158h-158v-277c18.667 11.333 42.834 21.666 72.501 30.999s63.5 14 101.5 14c28.667 0 55.167 -4 79.5 -12s45.333 -20.833 63 -38.5
s31.5 -40.834 41.5 -69.501s15 -63.334 15 -104.001c0 -47.333 -4.33301 -88.666 -13 -123.999s-23.167 -64.666 -43.5 -87.999s-47.166 -41 -80.499 -53s-74.333 -18.333 -123 -19l-6 45c26.667 8 47.834 18.167 63.501 30.5s27.5 27.166 35.5 44.499s13 37.5 15 60.5
s2.66699 49.167 2 78.5c-0.666992 27.333 -2.66699 52 -6 74s-9 40.833 -17 56.5s-19 27.667 -33 36s-32 12.5 -54 12.5s-42.333 -3.16699 -61 -9.5s-36 -14.833 -52 -25.5v-231z" />
    <glyph glyph-name="uni0495" unicode="&#x495;" horiz-adv-x="596" 
d="M456 500c-0.666992 -25.333 -2.5 -53.1709 -5.5 -83.5039s-7.16699 -59.166 -12.5 -86.499h-41l-54 113h-104v-221c16 17.333 37 31.333 63 42s54 16 84 16c46.667 0 84 -12.667 112 -38s42 -59.666 42 -102.999v-139c0 -41.333 -4.83301 -75.666 -14.5 -102.999
s-24 -49 -43 -65s-43 -27.333 -72 -34s-63.5 -10 -103.5 -10l-5 46c18 4.66699 33 10.667 45 18s21.667 17.5 29 30.5s12.5 29 15.5 48s4.5 42.5 4.5 70.5v113c0 28 -5.83301 50.167 -17.5 66.5s-29.167 24.5 -52.5 24.5c-17.333 0 -33.333 -2.66699 -48 -8
s-27.667 -11.666 -39 -18.999v-115c15.333 -3.33301 28.833 -6.83301 40.5 -10.5s23.167 -8.16699 34.5 -13.5v-39h-285v39c11.333 6.66699 22.333 11.667 33 15s21.667 6.33301 33 9v375c-24.667 4 -46.667 11.667 -66 23v39h427z" />
    <glyph glyph-name="uni0496" unicode="&#x496;" horiz-adv-x="1040" 
d="M441 633c-13.333 3.33301 -25.5 7.66504 -36.5 12.998s-20.5 10.666 -28.5 15.999v38h260v-38c-6.66699 -4.66699 -14.834 -9.5 -24.501 -14.5s-21.167 -9.83301 -34.5 -14.5v-255l68 15l144 240c-13.333 3.33301 -26.166 7.66602 -38.499 12.999
s-23.833 10.666 -34.5 15.999v38h265v-38c-10 -5.33301 -21.167 -10.666 -33.5 -15.999s-25.166 -9.66602 -38.499 -12.999l-180 -245l53.5 -73l59.5 -82.5l64.5 -85.5c22.333 -28.667 45.166 -56 68.499 -82h82c-0.666992 -17.333 -1.83398 -36.166 -3.50098 -56.499
s-3.5 -40.833 -5.5 -61.5s-4.5 -40.5 -7.5 -59.5s-6.5 -35.833 -10.5 -50.5h-39l-54 163h-83l-43 34c-19.333 22.667 -37 46 -53 70s-31 48.333 -45 73s-27.5 49.834 -40.5 75.501s-26.833 51.5 -41.5 77.5h-54v-263c11.333 -3.33301 22.333 -7.5 33 -12.5
s21 -10.5 31 -16.5v-38h-270v38c9.33301 6 19.833 11.5 31.5 16.5s24.5 9.16699 38.5 12.5v272l-57 -15l-80.5 -152c-25.667 -47.333 -56.167 -93.333 -91.5 -138l-43 -34h-169v34l41 24c24 26.667 47.333 54.334 70 83.001l65 85l58 81l50 71l-179 255
c-13.333 3.33301 -25.666 7.66602 -36.999 12.999s-21.333 10.666 -30 15.999v38h264v-38c-8.66699 -5.33301 -19 -10.666 -31 -15.999s-24.667 -9.66602 -38 -12.999l144 -246h64v246z" />
    <glyph glyph-name="uni0497" unicode="&#x497;" horiz-adv-x="836" 
d="M633 23c-11.333 14 -23.3369 30.5 -36.0039 49.5s-24.834 38.167 -36.501 57.5l-32 55c-9.66699 17.333 -17.167 31.666 -22.5 42.999h-39v-165c20.667 -5.33301 40.667 -13.333 60 -24v-39h-246v39c9.33301 4.66699 18.5 9 27.5 13s18.5 7.66699 28.5 11v171l-45 -10
c-5.33301 -9.33301 -12.333 -22.5 -21 -39.5s-18.5 -35.167 -29.5 -54.5s-22.667 -38.666 -35 -57.999s-24.5 -35.666 -36.5 -48.999l-30 -23h-140v39l42 24c16.667 19.333 32.834 39.333 48.501 60l44.5 60l39 54l32 43l-68 75c-21.333 24.667 -42.666 52 -63.999 82
c-17.333 4 -34 12 -50 24v39h209v-39c-12.667 -9.33301 -29.334 -17.333 -50.001 -24c8.66699 -16 17.334 -30.333 26.001 -43l26 -37l27.5 -36.5l32.5 -42.5h42v159c-11.333 2.66699 -20.833 6 -28.5 10s-15.167 8.66699 -22.5 14v39h230v-39
c-6.66699 -5.33301 -13.5 -10 -20.5 -14s-16.5 -7.33301 -28.5 -10v-165l46 10l31.5 42l25.5 35.5l24 35.5c8 12 16.667 26 26 42c-9.33301 3.33301 -18 6.66602 -26 9.99902s-16 8 -24 14v39h209v-39c-11.333 -8 -30.333 -16 -57 -24
c-21.333 -28 -42.666 -53.833 -63.999 -77.5l-64 -73.5l34 -45l46 -58l51.5 -63.5l50.5 -62.5h66c-1.33301 -32 -4.16602 -66.333 -8.49902 -103s-8.16602 -70.667 -11.499 -102h-39l-54 148h-68z" />
    <glyph glyph-name="uni0498" unicode="&#x498;" horiz-adv-x="580" 
d="M543 199c0 -30 -4.99902 -56.6621 -14.999 -79.9951s-24.167 -43.5 -42.5 -60.5s-40.333 -30.833 -66 -41.5s-54.5 -18.334 -86.5 -23.001c-4.66699 -31.333 -11.167 -64 -19.5 -98s-17.166 -66 -26.499 -96h-44c-10.667 31.333 -19.667 63.333 -27 96
s-13.666 64.334 -18.999 95.001c-31.333 2.66699 -61.333 7.16699 -90 13.5s-51.667 13.833 -69 22.5c0 10.667 1.16699 23.667 3.5 39s5.16602 31.166 8.49902 47.499s7.16602 32.666 11.499 48.999s8.5 31.166 12.5 44.499h42l40 -142
c7.33301 -3.33301 19.166 -6.16602 35.499 -8.49902s31.5 -3.5 45.5 -3.5c44 0 79.333 12.667 106 38s40 59.666 40 102.999c0 47.333 -11.667 80.833 -35 100.5s-54.666 29.5 -93.999 29.5l-77 -13c-3.33301 12 -5.33301 25.667 -6 41s1 29.333 5 42h32
c11.333 -0.666992 24.5 -0.5 39.5 0.5s27.833 2.16699 38.5 3.5c51.333 21.333 77.666 62.666 78.999 123.999c-1.33301 39.333 -11.833 70 -31.5 92s-48.167 33 -85.5 33c-16 0 -30.5 -1.83301 -43.5 -5.5s-21.833 -8.16699 -26.5 -13.5l-49 -127h-42
c-2.66699 10 -5.33398 21.5 -8.00098 34.5s-5 27 -7 42s-3.83301 30.333 -5.5 46s-2.5 30.834 -2.5 45.501c12.667 8.66699 27.5 15.667 44.5 21s34.333 9.66602 52 12.999s35.167 5.66602 52.5 6.99902s33 2 47 2c32 0 63.667 -2.33301 95 -7s59.166 -13.5 83.499 -26.5
s44 -30.667 59 -53s22.5 -50.833 22.5 -85.5c0 -34 -11.167 -66.5 -33.5 -97.5s-56.166 -53.5 -101.499 -67.5v-4c20.667 -3.33301 40.5 -9.33301 59.5 -18s35.833 -20 50.5 -34s26.334 -31 35.001 -51s13 -43 13 -69z" />
    <glyph glyph-name="uni0499" unicode="&#x499;" horiz-adv-x="498" 
d="M201 52c36 0 62.666 9.50684 79.999 28.5068s26 41.833 26 68.5c0 28.667 -6.33301 48.167 -19 58.5s-30.667 17.166 -54 20.499l-89 -15c-3.33301 8 -5.33301 19.167 -6 33.5s1.33301 26.166 6 35.499h97c11.333 5.33301 22.833 15.333 34.5 30s17.5 35 17.5 61
c0 25.333 -7.16699 45.333 -21.5 60s-34.833 22 -61.5 22c-11.333 0 -22.166 -0.833008 -32.499 -2.5s-17.166 -3.16699 -20.499 -4.5l-45 -113h-34c-9.33301 18.667 -18.166 40.5 -26.499 65.5s-12.833 48.167 -13.5 69.5c15.333 10 39.666 19.5 72.999 28.5
s74.333 13.5 123 13.5c66 0 117 -9.83301 153 -29.5s54 -48.834 54 -87.501c0 -17.333 -3.66699 -33 -11 -47s-17.166 -26 -29.499 -36s-26.333 -18.5 -42 -25.5s-31.834 -12.167 -48.501 -15.5c19.333 -2 38.166 -5.5 56.499 -10.5s34.5 -12.333 48.5 -22
s25.167 -21.834 33.5 -36.501s12.5 -32.334 12.5 -53.001c0 -45.333 -15.167 -81 -45.5 -107s-72.5 -42.667 -126.5 -50c-4.66699 -30 -9.83398 -59.167 -15.501 -87.5s-13.167 -56.5 -22.5 -84.5h-44c-8.66699 30 -16 58.5 -22 85.5s-11.333 55.5 -16 85.5
c-32 3.33301 -59.667 10.166 -83 20.499s-42.666 22.5 -57.999 36.5l27 94h29c10 -9.33301 21 -22 33 -38l32 -43c6.66699 -2.66699 14 -4.83398 22 -6.50098s17.667 -2.5 29 -2.5z" />
    <glyph glyph-name="uni049A" unicode="&#x49a;" horiz-adv-x="725" 
d="M399 700l267.998 -0.00390625v-38c-11.333 -7.33301 -24.333 -13.5 -39 -18.5s-28 -8.5 -40 -10.5l-190 -241l53.5 -72.5l65.5 -83.5l71.5 -87l71.5 -84h84c-0.666992 -17.333 -1.66699 -36.166 -3 -56.499s-3.16602 -40.833 -5.49902 -61.5s-5 -40.5 -8 -59.5
s-6.16699 -35.833 -9.5 -50.5h-39l-54 163h-89l-40 28c-16 20 -32.833 42.167 -50.5 66.5l-52.5 76l-51 79.5l-47 78h-43v-261c14.667 -2.66699 28 -6.66699 40 -12s22.333 -11 31 -17v-38h-303v38c13.333 6.66699 27 12.5 41 17.5s27.667 8.83301 41 11.5v566
c-15.333 2 -30.166 5.66699 -44.499 11s-26.833 11.333 -37.5 18v38h303v-38c-8.66699 -5.33301 -19.167 -10.666 -31.5 -15.999s-25.5 -9.66602 -39.5 -12.999v-254l59 14l161 240c-13.333 2.66699 -26.5 6.83398 -39.5 12.501s-24.167 11.167 -33.5 16.5v38z" />
    <glyph glyph-name="uni049B" unicode="&#x49b;" horiz-adv-x="610" 
d="M405 23c-28.667 34.667 -52.167 69.334 -70.5 104.001l-55.5 103h-40v-167c21.333 -6 40 -14 56 -24v-39h-266v39c18 10.667 40 18.667 66 24v374c-23.333 4.66699 -45.333 12.667 -66 24v39h255v-39c-6.66699 -4.66699 -13.167 -9 -19.5 -13s-14.833 -7.66699 -25.5 -11
v-163l46 10c19.333 22 38.666 45.667 57.999 71s37 51.666 53 78.999c-11.333 4.66699 -21 9 -29 13s-16.333 8.66699 -25 14v39h229v-39c-6.66699 -5.33301 -14.834 -9.83301 -24.501 -13.5s-22.5 -8.16699 -38.5 -13.5c-22.667 -27.333 -46 -53.5 -70 -78.5
s-47.333 -48.167 -70 -69.5c14.667 -16 30 -33.667 46 -53l48 -59.5l48.5 -61c16.333 -20.333 32.5 -38.833 48.5 -55.5h57c-1.33301 -32 -4.16602 -66.333 -8.49902 -103s-8.16602 -70.667 -11.499 -102h-39l-54 148h-66z" />
    <glyph glyph-name="uni049C" unicode="&#x49c;" horiz-adv-x="790" 
d="M484 700l257.999 -0.00292969v-38c-11.333 -7.33301 -24.333 -13.5 -39 -18.5s-28 -8.5 -40 -10.5l-179 -232l52 -75l64 -87l70 -90.5c24 -30.333 47.667 -58.833 71 -85.5l48 -29v-34h-174l-40 28c-16 20 -32.5 42.333 -49.5 67l-50.5 76.5l-48.5 80l-43.5 77.5h-21
v-145h-64v145h-48v-262c14.667 -2.66699 28 -6.66699 40 -12s22.333 -11 31 -17v-38h-301v38c13.333 6.66699 27 12.5 41 17.5s27.667 8.83301 41 11.5v566c-15.333 2 -30.166 5.66699 -44.499 11s-26.833 11.333 -37.5 18v38h301v-38
c-8.66699 -5.33301 -19.167 -10.666 -31.5 -15.999s-25.5 -9.66602 -39.5 -12.999v-255l48 5v148h64v-143l37 4l158 241c-13.333 2.66699 -26.5 6.83398 -39.5 12.501s-24.167 11.167 -33.5 16.5v38z" />
    <glyph glyph-name="uni049D" unicode="&#x49d;" horiz-adv-x="694" 
d="M442 500l229.001 -0.000976562v-39c-6.66699 -5.33301 -15 -10 -25 -14s-22.667 -8.33301 -38 -13c-22.667 -27.333 -46 -53.5 -70 -78.5s-47.333 -48.167 -70 -69.5c14.667 -16 29.667 -33.333 45 -52l45.5 -57.5l46 -58.5c15.667 -19.333 31.5 -37.666 47.5 -54.999
l42 -24v-39h-157l-32 23c-28.667 34.667 -52.167 69.334 -70.5 104.001l-55.5 103h-26v-118h-59v118h-55v-167c21.333 -6 40 -14 56 -24v-39h-266v39c18 10.667 40 18.667 66 24v374c-23.333 4.66699 -45.333 12.667 -66 24v39h255v-39
c-6.66699 -4.66699 -13.167 -9 -19.5 -13s-14.833 -7.66699 -25.5 -11v-172l55 7v134h59v-126l32 4c19.333 22 38.666 45.667 57.999 71s37 51.666 53 78.999c-11.333 4.66699 -21 9 -29 13s-16.333 8.66699 -25 14v39z" />
    <glyph glyph-name="uni049E" unicode="&#x49e;" horiz-adv-x="725" 
d="M10 574l111.999 -0.00390625v59c-15.333 2 -30.166 5.66699 -44.499 11s-26.833 11.333 -37.5 18v38h303v-38c-8.66699 -5.33301 -19.167 -10.666 -31.5 -15.999s-25.5 -9.66602 -39.5 -12.999v-59h91v-63h-91v-134l66 14l156 242
c-13.333 2.66699 -26.5 6.83398 -39.5 12.501s-24.167 11.167 -33.5 16.5v38h258v-38c-11.333 -7.33301 -24.333 -13.5 -39 -18.5s-28 -8.5 -40 -10.5l-176 -232l51 -75l62.5 -87l69 -90.5c23.667 -30.333 47.167 -58.833 70.5 -85.5l48 -29v-34h-174l-40 28
c-16 20 -32.333 42.167 -49 66.5s-33.167 49.833 -49.5 76.5l-47.5 80c-15.333 26.667 -29.333 52.334 -42 77.001h-51v-261c14.667 -2.66699 28 -6.66699 40 -12s22.333 -11 31 -17v-38h-303v38c13.333 6.66699 27 12.5 41 17.5s27.667 8.83301 41 11.5v444h-112v63z" />
    <glyph glyph-name="uni049F" unicode="&#x49f;" horiz-adv-x="583" 
d="M7 620l78.001 0.000976562v49l-76 8v39c9.33301 4 22 8 38 12s33 7.5 51 10.5s35.667 5.66699 53 8s32 4.16602 44 5.49902h34v-132h135v-61h-135v-276h26c22 23.333 42.5 49 61.5 77l50.5 77c-8.66699 2.66699 -16.5 6 -23.5 10s-14.167 8.66699 -21.5 14v39h234v-39
c-12.667 -5.33301 -24.5 -10 -35.5 -14s-23.167 -7.33301 -36.5 -10c-10 -13.333 -20.833 -26.5 -32.5 -39.5l-35 -37.5l-33.5 -34.5l-29 -29.5l35 -48l43 -59.5l48.5 -64c17 -21.667 34.167 -42.167 51.5 -61.5l51 -24v-39h-169l-27 24c-15.333 20.667 -28.833 40 -40.5 58
s-22.167 35.333 -31.5 52l-27 48.5l-26 46.5l-33 10v-176c11.333 -2 21.666 -5 30.999 -9s19.333 -9 30 -15v-39h-271v39c22 10.667 44 18.667 66 24v496h-78v61z" />
    <glyph glyph-name="uni04A0" unicode="&#x4a0;" horiz-adv-x="834" 
d="M528 700l258.001 -0.00488281v-38c-11.333 -7.33301 -24.333 -13.5 -39 -18.5s-28 -8.5 -40 -10.5l-181 -232l52 -75l64.5 -87l71.5 -90.5l72 -85.5l48 -29v-34h-173l-41 28c-16 20 -32.667 42.167 -50 66.5l-52 76.5l-50 80c-16 26.667 -30.333 52.334 -43 77.001h-44
v-261c14.667 -2.66699 28 -6.66699 40 -12s22.333 -11 31 -17v-38h-303v38c13.333 6.66699 27 12.5 41 17.5s27.667 8.83301 41 11.5v568h-104l-53 -151h-42c-4 16.667 -7.33301 34.834 -10 54.501s-4.83398 39.167 -6.50098 58.5s-3 38 -4 56s-1.5 33.667 -1.5 47h442v-38
c-8.66699 -5.33301 -19.167 -10.666 -31.5 -15.999s-25.5 -9.66602 -39.5 -12.999v-254l59 14l161 240c-13.333 2.66699 -26.5 6.83398 -39.5 12.501s-24.167 11.167 -33.5 16.5v38z" />
    <glyph glyph-name="uni04A1" unicode="&#x4a1;" horiz-adv-x="675" 
d="M365 500v-39.001c-6.66699 -4.66699 -13.167 -9 -19.5 -13s-14.833 -7.66699 -25.5 -11v-163l46 10c19.333 20 38.833 43.167 58.5 69.5s37.167 53.166 52.5 80.499c-11.333 4.66699 -21 9 -29 13s-16.333 8.66699 -25 14v39h229v-39
c-6.66699 -5.33301 -14.834 -9.83301 -24.501 -13.5s-22.5 -8.16699 -38.5 -13.5c-22.667 -27.333 -46 -53.5 -70 -78.5s-47.333 -48.167 -70 -69.5c14.667 -16 29.667 -33.333 45 -52l45.5 -57.5l46 -58.5c15.667 -19.333 31.5 -37.666 47.5 -54.999l42 -24v-39h-157
l-32 23c-28.667 34.667 -52.167 69.334 -70.5 104.001l-55.5 103h-40v-167c20.667 -6 39.334 -14 56.001 -24v-39h-266v39c18 10.667 40 18.667 66 24v380h-60l-49 -128h-34c-2.66699 12.667 -5.5 27 -8.5 43s-5.66699 32.5 -8 49.5s-4.33301 33.5 -6 49.5
s-2.5 30.333 -2.5 43h357z" />
    <glyph glyph-name="uni04A2" unicode="&#x4a2;" horiz-adv-x="787" 
d="M323 0l-302.996 0.000976562v38c11.333 6 24.5 11.667 39.5 17s29.167 9.33301 42.5 12v566c-16 2.66699 -31.333 6.66699 -46 12s-26.667 11 -36 17v38h303v-38c-10 -6.66699 -21.167 -12.667 -33.5 -18s-24.833 -9 -37.5 -11v-242h265v242
c-14.667 2.66699 -27.834 6.66699 -39.501 12s-22.167 11 -31.5 17v38h303v-38c-11.333 -7.33301 -24.333 -13.333 -39 -18s-29 -8.33398 -43 -11.001v-568h110c-0.666992 -17.333 -1.83398 -36.166 -3.50098 -56.499s-3.5 -40.833 -5.5 -61.5s-4.5 -40.5 -7.5 -59.5
s-6.5 -35.833 -10.5 -50.5h-39l-54 163h-211v38c10 6 21 11.667 33 17s24.667 9.33301 38 12v259h-265v-259c13.333 -2.66699 25.666 -6.33398 36.999 -11.001s22.666 -10.667 33.999 -18v-38z" />
    <glyph glyph-name="uni04A3" unicode="&#x4a3;" horiz-adv-x="676" 
d="M294 0h-265.003v39c9.33301 5.33301 19.666 9.83301 30.999 13.5s23 7.16699 35 10.5v374c-12 3.33301 -23.667 6.83301 -35 10.5s-21.666 8.16699 -30.999 13.5v39h265v-39c-15.333 -9.33301 -33.666 -17.333 -54.999 -24v-156h186v156c-19.333 4 -37.666 12 -54.999 24
v39h265v-39c-18 -11.333 -40 -19.333 -66 -24v-380h93c-1.33301 -32 -4.16602 -66.333 -8.49902 -103s-8.16602 -70.667 -11.499 -102h-39l-54 148h-179v39c17.333 12.667 35.666 20.667 54.999 24v161h-186v-161c11.333 -2.66699 21.5 -6 30.5 -10
s17.167 -8.66699 24.5 -14v-39z" />
    <glyph glyph-name="uni04A4" unicode="&#x4a4;" horiz-adv-x="958" 
d="M667 67c16.667 -2.66699 33.1689 -6.66699 49.502 -12s31.833 -11 46.5 -17v-38h-317v38c12.667 7.33301 24.334 12.833 35.001 16.5l36 12.5v259h-265v-259c13.333 -2.66699 25.666 -6.33398 36.999 -11.001s22.666 -10.667 33.999 -18v-38h-303v38
c11.333 6 24.5 11.667 39.5 17s29.167 9.33301 42.5 12v566c-16 2.66699 -31.333 6.66699 -46 12s-26.667 11 -36 17v38h303v-38c-10 -6.66699 -21.167 -12.667 -33.5 -18s-24.833 -9 -37.5 -11v-242h265v242c-12.667 1.33301 -26 4.83301 -40 10.5
s-24.333 11.834 -31 18.501v38h501c0 -16 -0.333008 -34.333 -1 -55s-1.66699 -41.667 -3 -63s-3.33301 -42.5 -6 -63.5s-5.33398 -39.833 -8.00098 -56.5h-41l-63 173h-158v-568z" />
    <glyph glyph-name="uni04A5" unicode="&#x4a5;" horiz-adv-x="796" 
d="M370 0l-0.00195312 39c17.333 12.667 35.666 20.667 54.999 24v161h-186v-161c11.333 -2.66699 21.5 -6 30.5 -10s17.167 -8.66699 24.5 -14v-39h-265v39c9.33301 5.33301 19.666 9.83301 30.999 13.5s23 7.16699 35 10.5v374c-12 3.33301 -23.667 6.83301 -35 10.5
s-21.666 8.16699 -30.999 13.5v39h265v-39c-15.333 -9.33301 -33.666 -17.333 -54.999 -24v-156h186v156c-19.333 4 -37.666 12 -54.999 24v39h416c-0.666992 -12.667 -1.83398 -27.334 -3.50098 -44.001s-3.66699 -34 -6 -52s-5.16602 -35.667 -8.49902 -53
s-6.66602 -32.666 -9.99902 -45.999h-41l-44 138h-104v-380c38 -7.33301 68 -15.333 90 -24v-39h-289z" />
    <glyph glyph-name="uni04A6" unicode="&#x4a6;" horiz-adv-x="1056" 
d="M320 0l-300.008 0.000976562v38c10 5.33301 21.667 10.833 35 16.5s29 9.83398 47 12.501v566c-13.333 2.66699 -27.166 6.33398 -41.499 11.001s-27.833 10.667 -40.5 18v38h718v-38c-12.667 -8 -26 -14.167 -40 -18.5s-28 -7.83301 -42 -10.5v-275
c18.667 11.333 42.834 21.666 72.501 30.999s63.5 14 101.5 14c28.667 0 55.167 -4 79.5 -12s45.333 -20.833 63 -38.5s31.5 -40.834 41.5 -69.501s15 -63.334 15 -104.001c0 -47.333 -4.33301 -88.666 -13 -123.999s-23.167 -64.666 -43.5 -87.999s-47.166 -41 -80.499 -53
s-74.333 -18.333 -123 -19l-6 45c26.667 8 47.834 18.167 63.501 30.5s27.5 27.166 35.5 44.499s13 37.5 15 60.5s2.66699 49.167 2 78.5c-0.666992 27.333 -2.66699 52 -6 74s-9 40.833 -17 56.5s-19 27.667 -33 36s-32 12.5 -54 12.5s-42.333 -3.16699 -61 -9.5
s-36 -14.833 -52 -25.5v-231c12.667 -3.33301 24.334 -7.5 35.001 -12.5s21.334 -10.5 32.001 -16.5v-38h-285v38c6.66699 5.33301 15.334 10.5 26.001 15.5s24.667 9.5 42 13.5v568h-254v-568c13.333 -3.33301 25.333 -7.33301 36 -12s21.334 -10.334 32.001 -17.001v-38z
" />
    <glyph glyph-name="uni04A7" unicode="&#x4a7;" horiz-adv-x="922" 
d="M746 105c0 57.333 -6.50098 97.832 -19.501 121.499s-34.833 35.5 -65.5 35.5c-24 0 -44.167 -6.33301 -60.5 -19s-28.5 -30 -36.5 -52v-128c22.667 -4 44.667 -12 66 -24v-39h-265v39c6.66699 4.66699 13.834 9 21.501 13s18.834 7.66699 33.501 11v380h-181v-380
c13.333 -4 24 -8 32 -12l23 -12v-39h-265v39c12.667 7.33301 24.334 12.833 35.001 16.5s21 6.16699 31 7.5v374c-14 3.33301 -26.667 7 -38 11s-20.666 8.33301 -27.999 13v39h601v-39c-8.66699 -5.33301 -18.334 -10.333 -29.001 -15s-23 -7.66699 -37 -9v-190
c13.333 27.333 33.666 50 60.999 68s58 27 92 27c28.667 0 53.667 -3.66699 75 -11s39.333 -19.666 54 -36.999s25.667 -40 33 -68s11 -62.667 11 -104v-87c-0.666992 -83.333 -19.834 -145.333 -57.501 -186s-96.5 -61 -176.5 -61l-5 46c36 9.33301 60.833 31.333 74.5 66
s20.5 79.667 20.5 135v70z" />
    <glyph glyph-name="uni04A8" unicode="&#x4a8;" horiz-adv-x="909" 
d="M849 71c-6.66699 -23.333 -22.6631 -43 -47.9961 -59s-58 -24 -98 -24c-30.667 0 -58.834 4.5 -84.501 13.5s-44.5 18.833 -56.5 29.5c-14.667 -12 -36.334 -22.167 -65.001 -30.5s-58 -12.5 -88 -12.5c-56 0 -106.833 9 -152.5 27s-84.5 43.333 -116.5 76
s-56.833 71.334 -74.5 116.001s-26.5 93.667 -26.5 147c0 50 7.66699 96.667 23 140s36.833 81.166 64.5 113.499s60.834 57.833 99.501 76.5s81.667 28 129 28c56.667 0 93.667 -16.667 111 -50l-9 -23c-8.66699 3.33301 -17.667 5.5 -27 6.5s-16.666 1.5 -21.999 1.5
c-32.667 0 -61.667 -7.5 -87 -22.5s-46.666 -36 -63.999 -63s-30.5 -58.833 -39.5 -95.5s-13.5 -77 -13.5 -121c0 -42.667 6.16699 -81.834 18.5 -117.501s29.166 -66.5 50.499 -92.5s46.666 -46.167 75.999 -60.5s60.666 -21.5 93.999 -21.5c12 0 23.333 0.833008 34 2.5
s20.667 4.83398 30 9.50098c-18.667 10 -37.834 23.667 -57.501 41s-37.667 38.5 -54 63.5s-29.666 53.333 -39.999 85s-15.5 66.834 -15.5 105.501c0 44.667 7.16699 85.167 21.5 121.5s33.833 67.5 58.5 93.5s52.834 46.167 84.501 60.5s65.167 21.5 100.5 21.5
c34.667 0 68 -6 100 -18s60.167 -30.333 84.5 -55s43.666 -55.334 57.999 -92.001s21.5 -79.334 21.5 -128.001c0 -41.333 -7.33301 -78.833 -22 -112.5s-32.667 -63.167 -54 -88.5s-44 -46.166 -68 -62.499s-45 -27.5 -63 -33.5
c7.33301 -4.66699 16.666 -8.16699 27.999 -10.5s22.333 -3.5 33 -3.5c20 0 39.167 3.16699 57.5 9.5s35.166 16.5 50.499 30.5zM490.004 352c0 -30 3.00391 -57.834 9.00391 -83.501s13.833 -49.167 23.5 -70.5s20.667 -40.166 33 -56.499s24.833 -29.833 37.5 -40.5
c14.667 10 28.667 23.667 42 41s25.166 37.333 35.499 60s18.5 47.834 24.5 75.501s9 57.167 9 88.5c0 29.333 -1.66699 57.666 -5 84.999s-8.83301 51.5 -16.5 72.5s-17.834 37.667 -30.501 50s-28.334 18.5 -47.001 18.5c-20.667 0 -38.334 -6 -53.001 -18
s-26.5 -28.833 -35.5 -50.5s-15.667 -47.167 -20 -76.5s-6.5 -61 -6.5 -95z" />
    <glyph glyph-name="uni04A9" unicode="&#x4a9;" horiz-adv-x="726" 
d="M698 52c-2 -12 -6.32812 -21.998 -12.9951 -29.998s-14.334 -14.5 -23.001 -19.5s-17.834 -8.66699 -27.501 -11s-18.5 -3.5 -26.5 -3.5c-23.333 0 -46.333 2.66699 -69 8s-39.667 12.333 -51 21c-8.66699 -4 -18.667 -7.83301 -30 -11.5s-23.5 -6.66699 -36.5 -9
s-26.167 -4.33301 -39.5 -6s-26 -2.5 -38 -2.5c-48.667 0 -92.334 6.16699 -131.001 18.5s-71.5 30 -98.5 53s-47.667 50.667 -62 83s-21.5 68.166 -21.5 107.499c0 36 6.33301 69.833 19 101.5s30.334 59.5 53.001 83.5s50 42.833 82 56.5s67 20.5 105 20.5
c32 0 55.5 -5.16699 70.5 -15.5s22.833 -23.833 23.5 -40.5l-5 -7c-15.333 4 -30 6 -44 6c-22 -0.666992 -42.167 -6.16699 -60.5 -16.5s-34 -24.5 -47 -42.5s-23.167 -39.333 -30.5 -64s-11 -52 -11 -82s4.83301 -57.667 14.5 -83s23 -47 40 -65s36.5 -32 58.5 -42
s45.667 -15 71 -15c4.66699 0 10.167 0.166992 16.5 0.5l19 1c6.33301 0.333008 12.166 0.833008 17.499 1.5s9.33301 1.66699 12 3c-18 4.66699 -35.833 13 -53.5 25s-33.5 26.5 -47.5 43.5s-25.167 36.167 -33.5 57.5s-12.5 43.333 -12.5 66
c0 36 5.83301 67.167 17.5 93.5s27.167 48 46.5 65s41.666 29.667 66.999 38s52 12.5 80 12.5c25.333 0 50 -4.16699 74 -12.5s45.167 -20.833 63.5 -37.5s33.166 -37.834 44.499 -63.501s17 -55.5 17 -89.5c0 -23.333 -4.5 -46 -13.5 -68s-20.833 -42 -35.5 -60
s-31.167 -33.167 -49.5 -45.5s-36.833 -20.833 -55.5 -25.5c9.33301 -3.33301 22 -5.5 38 -6.5s29.667 -1.16699 41 -0.5s23 3 35 7s22.333 9.66699 31 17zM409.005 242.002c0 -34.667 6.49707 -67.6709 19.4971 -99.0039s31.167 -55.666 54.5 -72.999
c18.667 13.333 34.834 35.5 48.501 66.5s20.5 71.167 20.5 120.5c0 18 -1.16699 35.333 -3.5 52s-6.16602 31.334 -11.499 44.001s-12.166 22.834 -20.499 30.501s-18.833 11.5 -31.5 11.5c-22 0 -40.167 -13.667 -54.5 -41s-21.5 -64.666 -21.5 -111.999z" />
    <glyph glyph-name="uni04AA" unicode="&#x4aa;" horiz-adv-x="652" 
d="M540 210l40.9951 0.00488281c2.66699 -10.667 5.16699 -23.5 7.5 -38.5s4.33301 -31 6 -48s2.83398 -33.833 3.50098 -50.5s1 -31.667 1 -45c-18 -12 -40.167 -20.833 -66.5 -26.5s-53.166 -9.5 -80.499 -11.5c-4 -30 -10.167 -61.833 -18.5 -95.5
s-17.166 -65.167 -26.499 -94.5h-44c-11.333 32 -20.666 64.667 -27.999 98s-13.666 65.666 -18.999 96.999c-42.667 6 -81.167 17.667 -115.5 35s-63.5 40.666 -87.5 69.999s-42.333 64.666 -55 105.999s-19 89.666 -19 144.999c0 63.333 9.5 117.833 28.5 163.5
s44.5 83.167 76.5 112.5s69.167 50.833 111.5 64.5s86.833 20.5 133.5 20.5c44 0 83.833 -3.16699 119.5 -9.5s64.834 -14.833 87.501 -25.5c0 -10.667 -0.5 -24.334 -1.5 -41.001s-2.66699 -34.167 -5 -52.5s-5 -36.333 -8 -54s-5.83301 -32.5 -8.5 -44.5h-42l-55 151
c-6 3.33301 -15.667 6 -29 8s-27 3 -41 3c-27.333 0 -53 -5.5 -77 -16.5s-45.333 -28.5 -64 -52.5s-33.334 -54.833 -44.001 -92.5s-16 -82.834 -16 -135.501c0 -95.333 19 -168.666 57 -219.999s89.667 -77 155 -77c18.667 0 34.5 1.5 47.5 4.5s21.833 7.16699 26.5 12.5z
" />
    <glyph glyph-name="uni04AB" unicode="&#x4ab;" horiz-adv-x="484" 
d="M456 81c-8 -22 -23.668 -41.002 -47.001 -57.002s-51.666 -26.667 -84.999 -32c-7.33301 -60 -19.666 -117.333 -36.999 -172h-44c-8.66699 30.667 -16 60.167 -22 88.5s-11.667 57.833 -17 88.5c-59.333 13.333 -103 42.333 -131 87s-42 100 -42 166
c0 84.667 23.167 149.5 69.5 194.5s112.166 67.5 197.499 67.5c32.667 0 62.667 -3.5 90 -10.5s50 -15.167 68 -24.5c-1.33301 -11.333 -3.16602 -23.833 -5.49902 -37.5s-5 -27.334 -8 -41.001s-6.5 -27 -10.5 -40s-8 -23.833 -12 -32.5h-49l-42 119
c-4.66699 3.33301 -9.66699 5.83301 -15 7.5s-13.333 2.5 -24 2.5c-17.333 0 -32.333 -3.16699 -45 -9.5s-23.5 -17.166 -32.5 -32.499s-15.667 -35.666 -20 -60.999s-6.5 -56.666 -6.5 -93.999c0 -27.333 3 -52.5 9 -75.5s15.167 -43 27.5 -60s27.833 -30.333 46.5 -40
s40.667 -14.5 66 -14.5c23.333 0 43.666 3.33301 60.999 10s32 14.667 44 24z" />
    <glyph glyph-name="uni04AC" unicode="&#x4ac;" horiz-adv-x="667" 
d="M161 38c13.333 5.33301 28.501 10.8311 45.501 16.498s34.167 9.83398 51.5 12.501v568h-116l-64 -171h-41c-2.66699 13.333 -5.33398 30.333 -8.00098 51s-5 42 -7 64s-3.66699 43.833 -5 65.5s-2 40.167 -2 55.5h637c0 -16 -0.666992 -34.667 -2 -56s-3 -43 -5 -65
s-4.33301 -43.167 -7 -63.5s-5.33398 -37.5 -8.00098 -51.5h-42l-64 171h-116v-568c5.33301 -0.666992 10.833 -1 16.5 -1h16.5h82c-0.666992 -17.333 -1.66699 -36.333 -3 -57s-3.16602 -41.167 -5.49902 -61.5s-5 -40.166 -8 -59.499s-6.16699 -36.333 -9.5 -51h-39
l-54 163h-243v38z" />
    <glyph glyph-name="uni04AD" unicode="&#x4ad;" horiz-adv-x="542" 
d="M128 39c10.667 5.33301 22.3301 10 34.9971 14s24.667 7.33301 36 10v380h-73l-44 -138h-42c-3.33301 14 -6.5 29.667 -9.5 47s-5.5 34.833 -7.5 52.5s-3.83301 34.834 -5.5 51.501s-2.5 31.334 -2.5 44.001h512c0 -12 -0.666992 -26.333 -2 -43
s-3.16602 -33.834 -5.49902 -51.501s-5 -35.334 -8 -53.001s-6.16699 -33.5 -9.5 -47.5h-43l-44 138h-72v-386h102c-1.33301 -32 -4.16602 -66.333 -8.49902 -103s-8.16602 -70.667 -11.499 -102h-39l-54 148h-204v39z" />
    <glyph glyph-name="uni04AE" unicode="&#x4ae;" horiz-adv-x="698" 
d="M453 700l245 0.000976562v-38c-10 -6 -21.167 -11.833 -33.5 -17.5s-24.833 -9.5 -37.5 -11.5l-194 -340v-226c13.333 -1.33301 26.5 -4.83301 39.5 -10.5s25.167 -11.834 36.5 -18.501v-38h-308v38c11.333 6 24 11.667 38 17s28.667 9.33301 44 12v225l-202 341
c-15.333 2.66699 -29.833 6.66699 -43.5 12s-26.167 11 -37.5 17v38h328v-38c-9.33301 -5.33301 -20 -10.666 -32 -15.999s-26 -9.66602 -42 -12.999l143 -268l136 268c-15.333 3.33301 -30 7.66602 -44 12.999s-26 10.666 -36 15.999v38z" />
    <glyph glyph-name="uni04AF" unicode="&#x4af;" horiz-adv-x="539" 
d="M414 -200l-276 -0.000976562v39c10 5.33301 20.333 9.83301 31 13.5s22.334 7.16699 35.001 10.5v160l-161 414c-19.333 6.66699 -37 14.667 -53 24v39h263v-38c-8.66699 -4.66699 -17.5 -9.16699 -26.5 -13.5s-19.167 -8.16602 -30.5 -11.499l90 -261l22 -87h2l19 88
l82 260c-10.667 2.66699 -20.5 6 -29.5 10s-17.5 8.66699 -25.5 14v39h193v-39c-6.66699 -4.66699 -14.834 -9 -24.501 -13s-20.5 -7.66699 -32.5 -11l-144 -415v-159c13.333 -3.33301 25.333 -6.83301 36 -10.5s20.667 -8.16699 30 -13.5v-39z" />
    <glyph glyph-name="uni04B0" unicode="&#x4b0;" horiz-adv-x="698" 
d="M458 700l240 0.000976562v-38c-10 -6 -22 -11.833 -36 -17.5s-27.333 -9.5 -40 -11.5l-188 -339h140v-67h-141v-160c13.333 -1.33301 26.5 -4.83301 39.5 -10.5s25.167 -11.834 36.5 -18.501v-38h-308v38c11.333 6 24 11.667 38 17s28.667 9.33301 44 12v160h-141v67h140
l-201 339c-15.333 2.66699 -29.833 6.66699 -43.5 12s-26.167 11 -37.5 17v38h328v-38c-9.33301 -5.33301 -20 -10.666 -32 -15.999s-26 -9.66602 -42 -12.999l144 -274l140 274c-15.333 3.33301 -30 7.66602 -44 12.999s-26 10.666 -36 15.999v38z" />
    <glyph glyph-name="uni04B1" unicode="&#x4b1;" horiz-adv-x="539" 
d="M98 61l92 -0.000976562l-147 376c-19.333 6.66699 -37 14.667 -53 24v39h263v-38c-8.66699 -4.66699 -17.5 -9.16699 -26.5 -13.5s-19.167 -8.16602 -30.5 -11.499l78 -236l33 -112h2l30 113l72 235c-10.667 2.66699 -20.5 6 -29.5 10s-17.5 8.66699 -25.5 14v39h193v-39
c-6.66699 -4.66699 -14.834 -9 -24.501 -13s-20.5 -7.66699 -32.5 -11l-133 -376h96v-61l-107 -1v-136c13.333 -3.33301 25.333 -6.83301 36 -10.5s20.667 -8.16699 30 -13.5v-39h-276v39c10 5.33301 20.333 9.83301 31 13.5s22.334 7.16699 35.001 10.5v137h-106v61z" />
    <glyph glyph-name="uni04B2" unicode="&#x4b2;" horiz-adv-x="729" 
d="M394 38c10.667 6 21.833 11.498 33.5 16.498s24.167 9.16699 37.5 12.5l-142 220l-132 -221c14 -2 27 -5.33301 39 -10s23.667 -10.667 35 -18v-38h-256v38c22 13.333 44.667 23 68 29l201 285l-188 281c-12.667 3.33301 -24.667 7.66602 -36 12.999l-33 16v38h317v-38
c-8 -4.66699 -18 -9.5 -30 -14.5s-26 -9.83301 -42 -14.5l122 -201l120 201c-13.333 2.66699 -26.666 6.83398 -39.999 12.501s-25.333 11.167 -36 16.5v38h248v-38l-31.5 -16c-11 -5.33301 -23.167 -9.66602 -36.5 -12.999l-178 -261l210 -307h106
c-0.666992 -17.333 -1.83398 -36.166 -3.50098 -56.499s-3.5 -40.833 -5.5 -61.5s-4.5 -40.5 -7.5 -59.5s-6.5 -35.833 -10.5 -50.5h-39l-54 163h-236v38z" />
    <glyph glyph-name="uni04B3" unicode="&#x4b3;" horiz-adv-x="560" 
d="M295 38c7.33301 5.33301 14.8291 10.167 22.4961 14.5s15.5 7.83301 23.5 10.5l-94 137l-93 -137c9.33301 -3.33301 17.5 -7 24.5 -11s13.833 -8.33301 20.5 -13v-39h-189v39l25.5 14c7.66699 4 16.5 7.33301 26.5 10l149 185l-150 189
c-9.33301 3.33301 -17.666 6.83301 -24.999 10.5s-14 8.16699 -20 13.5v39h251v-38l-21.5 -14.5c-6.33301 -4.33301 -14.166 -7.83301 -23.499 -10.5l87 -124l83 124c-11.333 3.33301 -20.333 7 -27 11s-12.667 8.33301 -18 13v39h185v-39c-6.66699 -4.66699 -14 -9 -22 -13
s-18 -7.66699 -30 -11l-137 -169l163 -211h76c-1.33301 -32 -4.16602 -66.333 -8.49902 -103s-8.16602 -70.667 -11.499 -102h-39l-54 148h-174v38z" />
    <glyph glyph-name="uni04B4" unicode="&#x4b4;" horiz-adv-x="967" 
d="M170 0l0.00195312 37.998c13.333 5.33301 28.5 10.833 45.5 16.5s34.167 9.83398 51.5 12.501v573h-118l-62 -176h-42c-2.66699 13.333 -5.16699 30.333 -7.5 51s-4.5 42 -6.5 64s-3.83301 43.833 -5.5 65.5s-2.5 40.167 -2.5 55.5h579c0 -16 -0.666992 -34.667 -2 -56
s-3 -43 -5 -65s-4.33301 -43.167 -7 -63.5s-5.33398 -37.5 -8.00098 -51.5h-42l-58 176h-66v-575h278v568c-22 6 -40 15.667 -54 29v38h283v-38c-12.667 -8 -26 -14.167 -40 -18.5s-28 -7.83301 -42 -10.5v-568h118c-0.666992 -17.333 -1.83398 -36.166 -3.50098 -56.499
s-3.5 -40.833 -5.5 -61.5s-4.5 -40.5 -7.5 -59.5s-6.5 -35.833 -10.5 -50.5h-39l-54 163h-667z" />
    <glyph glyph-name="uni04B5" unicode="&#x4b5;" horiz-adv-x="856" 
d="M338 57h260.998v380c-9.33301 2 -18 5 -26 9s-16 9 -24 15v39h260v-39c-8.66699 -4.66699 -18.334 -9 -29.001 -13s-23 -7.66699 -37 -11v-380h98c-1.33301 -32 -4.16602 -66.333 -8.49902 -103s-8.16602 -70.667 -11.499 -102h-39l-54 148h-600v39
c18 10.667 40 18.667 66 24v380h-68l-44 -138h-42c-3.33301 14 -6.5 29.667 -9.5 47s-5.5 34.833 -7.5 52.5s-3.83301 34.834 -5.5 51.501s-2.5 31.334 -2.5 44.001h502c0 -12 -0.666992 -26.333 -2 -43s-3.16602 -33.834 -5.49902 -51.501s-5 -35.334 -8 -53.001
s-6.16699 -33.5 -9.5 -47.5h-43l-44 138h-67v-386z" />
    <glyph glyph-name="uni04B6" unicode="&#x4b6;" horiz-adv-x="725" 
d="M358 38c15.333 7.33301 30.6699 13.6641 46.0029 18.9971s30.666 8.66602 45.999 9.99902v236c-18.667 -11.333 -43.667 -21.666 -75 -30.999s-65.666 -14 -102.999 -14c-26.667 0 -51.834 2.83301 -75.501 8.5s-44.334 15.5 -62.001 29.5s-31.667 33.167 -42 57.5
s-15.5 55.166 -15.5 92.499v187c-12.667 2 -25.334 5.66699 -38.001 11s-24 11.333 -34 18v38h283v-38c-7.33301 -5.33301 -16.166 -10.666 -26.499 -15.999s-21.833 -9.66602 -34.5 -12.999v-152c0 -23.333 1.33301 -44.333 4 -63s8 -34.667 16 -48
s18.833 -23.666 32.5 -30.999s31.5 -11 53.5 -11s42.833 3.16699 62.5 9.5s37.834 14.833 54.501 25.5v270c-11.333 3.33301 -22.333 7.5 -33 12.5s-20.334 10.5 -29.001 16.5v38h278v-38c-8.66699 -6 -18.667 -11.5 -30 -16.5s-23.333 -9.16699 -36 -12.5v-568h115
c-0.666992 -17.333 -1.83398 -36.166 -3.50098 -56.499s-3.5 -40.833 -5.5 -61.5s-4.5 -40.5 -7.5 -59.5s-6.5 -35.833 -10.5 -50.5h-39l-54 163h-237v38z" />
    <glyph glyph-name="uni04B7" unicode="&#x4b7;" horiz-adv-x="604" 
d="M285 39c27.333 11.333 53.9971 19.335 79.9971 24.002v156c-16 -17.333 -37 -31.5 -63 -42.5s-54 -16.5 -84 -16.5c-46.667 0 -83.167 12.667 -109.5 38s-39.5 59.666 -39.5 102.999v136c-25.333 4.66699 -47.333 12.667 -66 24v39h262v-39
c-13.333 -10.667 -30.666 -18.667 -51.999 -24v-111c0 -28 4.83301 -50.167 14.5 -66.5s26.5 -24.5 50.5 -24.5c17.333 0 33.333 2.66699 48 8s27.667 11.666 39 18.999v175c-10.667 2 -20 5 -28 9s-16.333 9 -25 15v39h263v-39c-18 -11.333 -40 -19.333 -66 -24v-380h95
c-1.33301 -32 -4.16602 -66.333 -8.49902 -103s-8.16602 -70.667 -11.499 -102h-39l-54 148h-206v39z" />
    <glyph glyph-name="uni04B8" unicode="&#x4b8;" horiz-adv-x="729" 
d="M334 261c-19.333 -2 -38.9951 -2.99512 -58.9951 -2.99512c-26.667 0 -52 2.83301 -76 8.5s-45 15.5 -63 29.5s-32.333 33.167 -43 57.5s-16 55.166 -16 92.499v187c-12.667 2 -25.334 5.66699 -38.001 11s-24 11.333 -34 18v38h288v-38
c-7.33301 -5.33301 -17 -10.666 -29 -15.999s-24.333 -9.66602 -37 -12.999v-152c0 -22.667 1.66699 -43.334 5 -62.001s9.16602 -34.5 17.499 -47.5s19.333 -23.333 33 -31s30.834 -11.834 51.501 -12.501v147h64v-142c18.667 3.33301 36.5 7.5 53.5 12.5
s30.833 10.833 41.5 17.5v270c-10.667 3.33301 -21.334 7.5 -32.001 12.5s-20.667 10.5 -30 16.5v38h278v-38c-8.66699 -6 -18.667 -11.5 -30 -16.5s-23.333 -9.16699 -36 -12.5v-566c13.333 -2.66699 25.666 -6.83398 36.999 -12.501s21 -11.167 29 -16.5v-38h-308v38
c15.333 7.33301 30.666 13.666 45.999 18.999s30.666 8.66602 45.999 9.99902v236c-10 -5.33301 -23.333 -10.833 -40 -16.5s-35 -10.834 -55 -15.501v-138h-64v128z" />
    <glyph glyph-name="uni04B9" unicode="&#x4b9;" horiz-adv-x="679" 
d="M302 163c-17.333 -2 -33.666 -2.99902 -48.999 -2.99902c-35.333 0 -64.833 3.33301 -88.5 10s-42.5 16.167 -56.5 28.5s-24 27.166 -30 44.499s-9 36.666 -9 57.999v136c-25.333 4.66699 -47.333 12.667 -66 24v39h262v-39c-13.333 -10.667 -30.666 -18.667 -51.999 -24
v-111c0 -26.667 6.5 -48 19.5 -64s36.167 -25 69.5 -27v156h59v-152c15.333 2.66699 30.5 5.83398 45.5 9.50098s26.167 8.16699 33.5 13.5v175c-10.667 2 -20 5 -28 9s-16.333 9 -25 15v39h263v-39c-18 -11.333 -40 -19.333 -66 -24v-374
c13.333 -3.33301 25.333 -6.83301 36 -10.5s20.667 -8.16699 30 -13.5v-39h-290v39c27.333 11.333 54 19.333 80 24v156c-8.66699 -9.33301 -19.834 -17.5 -33.501 -24.5s-28.834 -13.167 -45.501 -18.5v-79h-59v66z" />
    <glyph glyph-name="uni04BA" unicode="&#x4ba;" horiz-adv-x="686" 
d="M20.041 700l307.983 -0.000976562v-37.998c-15.332 -7.33301 -30.6641 -13.666 -45.9971 -18.999c-15.332 -5.33301 -30.6641 -8.66602 -45.9971 -9.99902v-235.985c18.665 11.333 43.6631 21.666 74.9941 30.999s65.6621 13.999 102.993 13.999
c26.665 0 51.8301 -2.83301 75.4951 -8.49902c23.665 -5.66699 44.3301 -15.5 61.9951 -29.499c17.666 -13.999 31.665 -33.1641 41.998 -57.4961s15.499 -55.1631 15.499 -92.4941v-186.988c12.666 -2 25.332 -5.66699 37.9971 -11
c12.666 -5.33301 23.999 -11.333 33.998 -18v-37.9971h-282.982v37.9971c7.33301 5.33301 16.166 10.666 26.499 15.999s21.832 9.66602 34.498 12.999v151.99c0 23.332 -1.33301 44.3311 -4 62.9961c-2.66602 18.665 -7.99902 34.6641 -15.999 47.9971
c-7.99902 13.333 -18.832 23.666 -32.498 30.999c-13.665 7.33301 -31.4971 10.999 -53.4961 10.999s-42.8311 -3.16602 -62.4961 -9.49902s-37.8311 -14.832 -54.4971 -25.498v-269.983c11.333 -3.33301 22.332 -7.5 32.998 -12.5
c10.666 -4.99902 20.332 -10.499 28.998 -16.499v-37.9971h-277.982v37.9971c8.66602 6 18.665 11.5 29.998 16.499c11.333 5 23.332 9.16699 35.998 12.5v565.965c-13.333 2.66699 -25.666 6.83301 -36.999 12.499c-11.333 5.66699 -20.999 11.167 -28.998 16.5v37.998z
" />
    <glyph glyph-name="uni04BB" unicode="&#x4bb;" horiz-adv-x="640" 
d="M628 0l-264.995 0.000976562v39c8 4.66699 16.333 9 25 13s18.667 7.66699 30 11v202c0 57.333 -5.5 99.5 -16.5 126.5s-32.5 40.5 -64.5 40.5c-26.667 0 -49.334 -9.16699 -68.001 -27.5s-32 -39.5 -40 -63.5v-278c10.667 -2.66699 20.167 -5.66699 28.5 -9
s17.166 -8.33301 26.499 -15v-39h-265v39c20.667 10.667 42.667 18.667 66 24v606l-76 8v39c10 4 22.833 8 38.5 12s32.167 7.5 49.5 10.5s34.666 5.66699 51.999 8s32.666 4.16602 45.999 5.49902h34v-353h1c6.66699 15.333 15.667 29.833 27 43.5s24.166 25.667 38.499 36
s29.833 18.5 46.5 24.5s34.334 9 53.001 9c26.667 0 50.5 -3.16699 71.5 -9.5s38.5 -17.5 52.5 -33.5s24.667 -37.5 32 -64.5s11 -61.167 11 -102.5v-239c11.333 -2.66699 22.666 -5.66699 33.999 -9s22 -8.33301 32 -15v-39z" />
    <glyph glyph-name="uni04BC" unicode="&#x4bc;" horiz-adv-x="849" 
d="M506 712c43.333 0 83.3301 -6.50195 119.997 -19.502s68.167 -32 94.5 -57s47 -56.167 62 -93.5s22.5 -80.333 22.5 -129c0 -34 -2 -61.333 -6 -82h-466c1.33301 -68 16 -121.833 44 -161.5s62.833 -66.667 104.5 -81s86.334 -17.333 134.001 -9
s91.834 26.5 132.501 54.5l15 -33c-13.333 -19.333 -29.5 -36 -48.5 -50s-39.167 -25.667 -60.5 -35s-43 -16.333 -65 -21s-42.667 -7 -62 -7c-49.333 0 -95.333 6.83301 -138 20.5s-80 34.5 -112 62.5s-57.5 63.5 -76.5 106.5s-29.5 94.167 -31.5 153.5
c-28.667 0.666992 -53.834 5.16699 -75.501 13.5s-39.834 19.333 -54.501 33s-25.834 29.667 -33.501 48s-11.5 37.833 -11.5 58.5c0 8 0.833008 17.333 2.5 28s4.33398 21.167 8.00098 31.5s8.33398 20.333 14.001 30s12.167 18.167 19.5 25.5
c15.333 -1.33301 33.333 -6.5 54 -15.5s38.667 -19.833 54 -32.5l8 -29l-84 -71c7.33301 -17.333 20 -30.666 38 -39.999s38.667 -14.333 62 -15c4.66699 52.667 16.834 98.834 36.501 138.501s44.5 72.667 74.5 99s64.333 46 103 59s79.334 19.5 122.001 19.5z
M499.997 646.998c-52.667 0 -93.167 -20.5 -121.5 -61.5s-43.5 -104.167 -45.5 -189.5h307c0.666992 7.33301 1.16699 14.333 1.5 21s0.5 13.334 0.5 20.001c0 67.333 -12.667 119.166 -38 155.499s-60 54.5 -104 54.5z" />
    <glyph glyph-name="uni04BD" unicode="&#x4bd;" horiz-adv-x="661" 
d="M610 84c-5.33301 -11.333 -13.8369 -22.835 -25.5039 -34.502s-26 -22 -43 -31s-36.667 -16.333 -59 -22s-46.5 -8.5 -72.5 -8.5c-40.667 0 -76.667 6 -108 18s-57.666 29 -78.999 51s-37.833 48.5 -49.5 79.5s-17.834 65.833 -18.501 104.5
c-27.333 0.666992 -50.5 4.66699 -69.5 12s-34.5 17 -46.5 29s-20.667 25.833 -26 41.5s-8 32.167 -8 49.5c0 19.333 3.83301 38.833 11.5 58.5s18.5 36.5 32.5 50.5c7.33301 0.666992 15.666 -0.833008 24.999 -4.5s18.333 -8.5 27 -14.5s16.5 -12.833 23.5 -20.5
s12.167 -15.167 15.5 -22.5c0.666992 -3.33301 1.16699 -6.33301 1.5 -9s0.833008 -5.33398 1.5 -8.00098l-73 -62c5.33301 -16.667 16.333 -28.5 33 -35.5s34.667 -11.167 54 -12.5c7.33301 70.667 32.833 124.834 76.5 162.501s101.834 56.5 174.501 56.5
c34 0 65.833 -4.66699 95.5 -14s54.334 -24.666 74.001 -45.999s33.334 -49.333 41.001 -84s7.16699 -77 -1.5 -127h-307c0.666992 -52.667 14.334 -94.667 41.001 -126s65.334 -47 116.001 -47c21.333 0 44 3.33301 68 10s42.667 15.334 56 26.001zM403.996 454.998
c-13.333 0 -25.166 -2.33301 -35.499 -7s-19.333 -13.167 -27 -25.5s-13.834 -29 -18.501 -50s-8 -47.5 -10 -79.5h161c4.66699 52 1.66699 92 -9 120s-31 42 -61 42z" />
    <glyph glyph-name="uni04BE" unicode="&#x4be;" horiz-adv-x="849" 
d="M431 -3c-5.33301 0.666992 -10.5059 1.83105 -15.5059 3.49805s-10.167 3.16699 -15.5 4.5c-33.333 9.33301 -63.833 23 -91.5 41s-51.5 40.5 -71.5 67.5s-36 58.5 -48 94.5s-18.667 77 -20 123c-28.667 0.666992 -53.834 5.16699 -75.501 13.5
s-39.834 19.333 -54.501 33s-25.834 29.667 -33.501 48s-11.5 37.833 -11.5 58.5c0 8 0.833008 17.333 2.5 28s4.33398 21.167 8.00098 31.5s8.33398 20.333 14.001 30s12.167 18.167 19.5 25.5c15.333 -1.33301 33.333 -6.5 54 -15.5s38.667 -19.833 54 -32.5l8 -29
l-84 -71c7.33301 -17.333 20 -30.666 38 -39.999s38.667 -14.333 62 -15c4.66699 52.667 16.834 98.834 36.501 138.501s44.5 72.667 74.5 99s64.333 46 103 59s79.334 19.5 122.001 19.5c43.333 0 83.333 -6.5 120 -19.5s68.167 -32 94.5 -57s47 -56.167 62 -93.5
s22.5 -80.333 22.5 -129c0 -34 -2 -61.333 -6 -82h-466c1.33301 -68 16 -121.833 44 -161.5s62.833 -66.667 104.5 -81s86.334 -17.333 134.001 -9s91.834 26.5 132.501 54.5l15 -33c-22.667 -32 -52 -57 -88 -75s-72 -29.667 -108 -35c-4 -30 -10.167 -62 -18.5 -96
s-17.166 -65.667 -26.499 -95h-44c-11.333 32 -20.666 65 -27.999 99s-13.666 66.667 -18.999 98zM499.994 646.997c-52.667 0 -93.167 -20.5 -121.5 -61.5s-43.5 -104.167 -45.5 -189.5h307c0.666992 7.33301 1.16699 14.333 1.5 21s0.5 13.334 0.5 20.001
c0 67.333 -12.667 119.166 -38 155.499s-60 54.5 -104 54.5z" />
    </font>
</defs>
</svg>
