<?xml version="1.0" encoding="iso-8859-1"?>
<!-- Generator: Adobe Illustrator 17.1.0, SVG Export Plug-In . SVG Version: 6.00 Build 0)  -->
<!DOCTYPE svg PUBLIC "-//W3C//DTD SVG 1.1//EN" "http://www.w3.org/Graphics/SVG/1.1/DTD/svg11.dtd">
<svg version="1.1" id="Capa_1" xmlns="http://www.w3.org/2000/svg" xmlns:xlink="http://www.w3.org/1999/xlink" x="0px" y="0px"
	 viewBox="0 0 221.123 221.123" style="enable-background:new 0 0 221.123 221.123;" xml:space="preserve">
<path d="M221.123,153.127v31.902c0,4.422-3.585,8.007-8.007,8.007H8.007c-4.422,0-8.007-3.585-8.007-8.007v-31.902
	c0-4.422,3.585-8.007,8.007-8.007H53.76c13.971,15.608,34.254,25.453,56.801,25.453s42.83-9.845,56.801-25.453h45.754
	C217.538,145.12,221.123,148.705,221.123,153.127z M176.804,94.33c0,36.526-29.716,66.243-66.243,66.243
	S44.318,130.856,44.318,94.33s29.716-66.243,66.243-66.243S176.804,57.803,176.804,94.33z M123.094,94.33
	c0-6.91-5.622-12.532-12.532-12.532S98.029,87.42,98.029,94.33c0,6.911,5.622,12.533,12.532,12.533S123.094,101.24,123.094,94.33z"
	/>
<g>
</g>
<g>
</g>
<g>
</g>
<g>
</g>
<g>
</g>
<g>
</g>
<g>
</g>
<g>
</g>
<g>
</g>
<g>
</g>
<g>
</g>
<g>
</g>
<g>
</g>
<g>
</g>
<g>
</g>
</svg>
