<?xml version="1.0" encoding="iso-8859-1"?>
<!-- Generator: Adobe Illustrator 19.0.0, SVG Export Plug-In . SVG Version: 6.00 Build 0)  -->
<svg version="1.1" id="Layer_1" xmlns="http://www.w3.org/2000/svg" xmlns:xlink="http://www.w3.org/1999/xlink" x="0px" y="0px"
	 viewBox="0 0 489.85 489.85" style="enable-background:new 0 0 489.85 489.85;" xml:space="preserve">
<g>
	<path d="M483.131,105.025l-97.8-98.8c-8.3-8.3-20.8-8.3-29.1,0c-8.3,8.3-8.3,20.8,0,29.1l34.1,34.5l-33,33.1l-38.5-38.5
		c-8.3-7.3-21.8-7.3-29.1,0l-265.4,265.3c-8.3,8.3-8.3,20.8,0,29.1l39,39l-56.7,56.7c-8.3,8.3-8.3,20.8,0,29.1
		c8.3,8.3,20.8,8.3,29.1,0l57.1-56.3l38.6,38.6c11.9,11.5,25.1,4.6,29.1,0l265.4-265.2c8.3-8.3,8.3-20.8,0-29.1l-39.5-39.5l33-33
		l34.7,35c12.6,11.7,25,4.2,29.1,0C491.531,125.825,491.531,113.325,483.131,105.025z M146.131,423.325l-79.1-79.1l40.6-40.6
		l79.4,78.7L146.131,423.325z M215.831,353.625l-79.1-79.1l166.5-166.5l79.1,79.1L215.831,353.625z"/>
</g>
<g>
</g>
<g>
</g>
<g>
</g>
<g>
</g>
<g>
</g>
<g>
</g>
<g>
</g>
<g>
</g>
<g>
</g>
<g>
</g>
<g>
</g>
<g>
</g>
<g>
</g>
<g>
</g>
<g>
</g>
</svg>
