<?xml version="1.0" encoding="iso-8859-1"?>
<!-- Generator: Adobe Illustrator 19.0.0, SVG Export Plug-In . SVG Version: 6.00 Build 0)  -->
<svg version="1.1" id="Layer_1" xmlns="http://www.w3.org/2000/svg" xmlns:xlink="http://www.w3.org/1999/xlink" x="0px" y="0px"
	 viewBox="0 0 489.6 489.6" style="enable-background:new 0 0 489.6 489.6;" xml:space="preserve">
<g>
	<path d="M462.583,289.3v-52.8c0-38.5-31.2-69.8-68.7-69.8s-68.7,31.2-68.7,69.8v132.3c0,44.8-35.4,80.2-78.1,80.2
		s-78.2-36.5-78.2-80.3v-55.1c38-9,65.6-68.8,65.6-68.8c35.4-58.3,56.3-126,60.4-194.7c1.1-18.1-11.4-50-45.8-50h-7.3
		c-11.5,0-20.8,9.4-20.8,20.8c0,11.5,9.4,20.8,20.8,20.8h7.3c5.9,0,5.2,4.2,5.2,6.2c-4.2,62.5-22.9,123.9-55.2,177
		c0,0-20.8,51-52.1,51c-31.9,0-52.1-52.1-52.1-52.1c-31.2-53.1-50-114.6-54.2-177c0.2-3.2,1.6-5.3,5.2-5.2h7.3
		c11.5,0,20.8-9.4,20.8-20.8c0-11.5-9.4-20.8-20.8-20.8h-7.3c-29,0-47.1,24.3-45.8,48.9c3.8,69.9,25.1,137.6,60.5,195.9
		c0,0,29.7,62.6,66.7,69.4v54.6c0,66.7,53.1,120.8,118.7,120.8s118.7-54.2,118.7-120.8V236.5c0-15.6,12.5-29.2,28.1-29.2
		s28.1,13.5,28.1,29.2v52.8c-15.9,7.9-27.1,24.4-27.1,43c0,26,21.9,47.9,47.9,47.9s47.9-21.9,47.9-47.9
		C489.683,313.7,478.483,297.2,462.583,289.3z M441.783,339.6c-4.2,0-7.3-3.1-7.3-7.3s3.1-7.3,7.3-7.3c4.2,0,7.3,3.1,7.3,7.3
		C449.083,336.4,445.883,339.6,441.783,339.6z"/>
</g>
<g>
</g>
<g>
</g>
<g>
</g>
<g>
</g>
<g>
</g>
<g>
</g>
<g>
</g>
<g>
</g>
<g>
</g>
<g>
</g>
<g>
</g>
<g>
</g>
<g>
</g>
<g>
</g>
<g>
</g>
</svg>
