<?xml version="1.0" encoding="iso-8859-1"?>
<!-- Generator: Adobe Illustrator 18.1.1, SVG Export Plug-In . SVG Version: 6.00 Build 0)  -->
<svg version="1.1" id="Capa_1" xmlns="http://www.w3.org/2000/svg" xmlns:xlink="http://www.w3.org/1999/xlink" x="0px" y="0px"
	 viewBox="0 0 355.564 355.564" style="enable-background:new 0 0 355.564 355.564;" xml:space="preserve">
<g>
	<g id="Layer_5_34_">
		<g>
			<path d="M214.999,184.273l-30.45-30.45c-4.446-4.447-10.376-6.896-16.696-6.896c-6.319,0-12.249,2.448-16.695,6.896
				L5.904,299.074c-1.954,1.955-7.901,7.902-5.223,14.367c0.693,1.674,2.994,5.567,9.373,5.567c2.006,0,4.282-0.378,6.96-1.157
				l120.245-34.981c9.911-2.883,23.393-10.858,30.691-18.157l47.048-47.049C224.204,208.458,224.204,193.479,214.999,184.273z"/>
			<g>
				<path d="M320.989,342.306H36.956c-3.866,0-7-3.134-7-7s3.134-7,7-7h284.033c3.866,0,7,3.134,7,7
					S324.855,342.306,320.989,342.306z"/>
			</g>
			<path d="M350.606,63.346l-45.131-45.131c-3.197-3.197-7.458-4.957-11.997-4.957c-4.54,0-8.801,1.76-11.998,4.957l-94.275,94.276
				c-3.197,3.196-4.959,7.458-4.959,11.997c0,4.541,1.762,8.801,4.958,11.998l45.132,45.132c3.197,3.197,7.458,4.957,11.997,4.957
				s8.8-1.76,11.998-4.958l94.274-94.276c3.197-3.198,4.959-7.458,4.959-11.998S353.803,66.543,350.606,63.346z M308.524,69.856
				l-69.291,69.971c-1.368,1.382-3.171,2.075-4.974,2.075c-1.78,0-3.561-0.675-4.926-2.026c-2.747-2.72-2.769-7.152-0.048-9.899
				l69.291-69.971c2.72-2.748,7.151-2.769,9.899-0.048C311.223,62.678,311.245,67.11,308.524,69.856z"/>
		</g>
	</g>
</g>
<g>
</g>
<g>
</g>
<g>
</g>
<g>
</g>
<g>
</g>
<g>
</g>
<g>
</g>
<g>
</g>
<g>
</g>
<g>
</g>
<g>
</g>
<g>
</g>
<g>
</g>
<g>
</g>
<g>
</g>
</svg>
