<?xml version="1.0" encoding="utf-8"?>
<!-- Generator: Adobe Illustrator 19.0.0, SVG Export Plug-In . SVG Version: 6.00 Build 0)  -->
<svg version="1.1" id="Слой_1" xmlns="http://www.w3.org/2000/svg" xmlns:xlink="http://www.w3.org/1999/xlink" x="0px" y="0px"
	 viewBox="-304 304.7 100 100" style="enable-background:new -304 304.7 100 100;" xml:space="preserve">
<title></title>
<path d="M-223,316.6c-3.2-2.1-5.5-2.8-7.3-1.8c-2.3,1.3-2.1,4.7-2.1,4.8v0.1c0.1,0.3,1.2,7-6.5,11.9c-4.7,2.8-8.4,7.1-10.6,12.1
	c-2.8-1.2-6-1.2-8.8,0c-2.2-5-6-9.2-10.6-12c-7.8-4.9-6.6-11.6-6.5-11.9v-0.1c0-0.1,0.1-3.6-2.1-4.8c-1.7-1-4.1-0.4-7.3,1.8
	c-8.6,5.8-14.5,21.4-14,37c0.5,15.1,8.5,36.4,12.8,39.7c1.6,1.3,2.9,1.7,3.9,1.4c1-0.4,1.6-1.3,1.8-2.3c0-0.2,0.1-0.3,0.1-0.4
	c0.1-0.1,0.1-0.3,0.2-0.5c0.6-1.6,1.9-5.3,7.1-5.3c6.4,0,10.1-1.5,11.8-4.8c0.3-0.6,0.6-1.3,0.8-2c0.2-0.9,0.6-1.7,1.2-2.5
	c1-1.2,3-1.9,5.3-1.9c1.4,0,2.8,0.3,4.1,0.9c1.4,0.7,1.8,2,2.4,3.5c0.2,0.7,0.5,1.4,0.9,2.1c1.7,3.3,5.5,4.8,11.8,4.8
	c5.2,0,6.6,3.7,7.1,5.3c0.1,0.2,0.1,0.4,0.2,0.5c0,0.1,0.1,0.3,0.1,0.4c0.2,1,0.8,1.9,1.8,2.3c0.2,0.1,0.4,0.1,0.7,0.1
	c1.2-0.1,2.4-0.7,3.2-1.5c4.2-3.4,12.2-24.6,12.7-39.7C-208.6,338.1-214.4,322.5-223,316.6z"/>
</svg>
